{"glyphs":{"0":{"ha":697,"x_min":0,"x_max":0,"o":"m 349 -14 b 615 293 515 -14 615 90 l 615 683 b 349 994 615 882 517 994 b 83 683 178 994 83 879 l 83 293 b 349 -14 83 89 178 -14 z m 349 50 b 151 296 214 50 151 138 l 151 681 b 349 933 151 839 214 933 b 546 681 481 933 546 839 l 546 296 b 349 50 546 136 478 50 z "},"1":{"ha":458,"x_min":0,"x_max":0,"o":"m 419 0 l 419 65 l 264 65 l 264 985 l 210 985 b 75 842 194 886 164 844 l 75 786 b 199 839 126 788 174 807 l 199 65 l 46 65 l 46 0 z "},"2":{"ha":644,"x_min":0,"x_max":0,"o":"m 582 0 l 582 65 l 144 65 b 361 400 144 219 253 310 b 574 726 468 489 574 576 l 574 761 b 333 994 574 906 493 994 b 83 754 175 994 83 911 l 83 621 l 150 621 l 150 754 b 333 933 150 871 214 933 b 506 761 453 933 506 871 l 506 725 b 304 438 506 600 407 522 b 71 58 190 344 71 243 l 71 0 z "},"3":{"ha":661,"x_min":0,"x_max":0,"o":"m 329 -14 b 586 235 504 -14 586 83 l 586 294 b 436 510 586 413 539 486 b 574 715 533 538 574 615 l 574 769 b 329 994 574 908 492 994 b 76 765 165 994 76 901 l 76 667 l 144 667 l 144 764 b 328 933 144 864 203 933 b 504 765 449 933 504 869 l 504 711 b 339 539 504 611 453 539 l 254 539 l 254 478 l 340 478 b 517 299 458 478 517 417 l 517 239 b 329 50 517 118 456 50 b 136 226 200 50 136 104 l 136 342 l 68 342 l 68 222 b 329 -14 68 60 154 -14 z "},"4":{"ha":640,"x_min":0,"x_max":0,"o":"m 393 835 l 421 915 l 410 828 l 410 308 l 110 308 z m 606 249 l 606 308 l 472 308 l 472 983 l 410 983 l 38 301 l 38 249 l 410 249 l 410 0 l 472 0 l 472 249 z "},"5":{"ha":668,"x_min":0,"x_max":0,"o":"m 332 -14 b 590 242 494 -14 590 75 l 590 440 b 367 682 590 596 513 682 b 160 557 256 682 197 625 b 196 921 168 649 188 840 l 481 921 b 560 982 547 921 560 928 l 560 983 l 140 983 l 90 483 l 149 465 l 161 493 b 351 621 194 561 253 621 b 521 436 463 621 521 558 l 521 246 b 332 49 521 118 454 49 b 153 226 210 49 153 115 l 153 328 l 83 328 l 83 222 b 332 -14 83 71 169 -14 z "},"6":{"ha":682,"x_min":0,"x_max":0,"o":"m 614 279 l 614 336 b 374 596 614 496 531 596 b 149 450 260 596 181 536 l 149 689 b 351 933 149 846 211 933 b 532 738 471 933 532 868 l 532 708 l 601 708 l 601 740 b 353 994 601 911 510 994 b 83 690 171 994 83 888 l 83 286 b 346 -14 83 82 175 -14 b 614 279 513 -14 614 76 z m 346 50 b 149 289 211 50 149 131 l 149 342 b 357 535 150 453 239 535 b 546 332 486 535 546 447 l 546 282 b 346 50 546 122 475 50 z "},"7":{"ha":572,"x_min":0,"x_max":0,"o":"m 229 0 b 533 926 279 357 410 681 l 533 983 l 39 983 l 39 919 l 463 919 b 157 0 343 683 214 365 z "},"8":{"ha":665,"x_min":0,"x_max":0,"o":"m 332 -14 b 601 218 504 -14 601 81 l 601 303 b 453 515 601 411 544 489 b 586 707 533 542 586 614 l 586 767 b 335 994 586 907 496 994 b 82 767 174 994 82 906 l 82 706 b 210 515 82 613 129 540 b 64 303 119 488 64 406 l 64 218 b 332 -14 64 79 157 -14 z m 349 542 l 315 542 b 150 707 200 542 150 624 l 150 763 b 335 933 150 868 215 933 b 518 764 456 933 518 869 l 518 708 b 349 542 518 621 463 542 z m 332 49 b 133 224 201 49 133 124 l 133 304 b 314 485 133 397 196 485 l 349 485 b 533 304 472 485 533 407 l 533 224 b 332 49 533 122 463 49 z "},"9":{"ha":678,"x_min":0,"x_max":0,"o":"m 328 449 b 138 653 200 449 138 533 l 138 703 b 335 932 138 858 204 932 b 529 690 469 932 529 850 l 529 656 b 328 449 528 535 444 449 z m 326 -14 b 596 289 510 -14 596 93 l 596 693 b 335 994 596 897 506 994 b 69 706 167 994 69 903 l 69 649 b 311 390 69 490 151 390 b 529 538 425 390 499 450 l 529 292 b 331 47 529 133 471 47 b 144 239 208 47 144 110 l 144 299 l 75 299 l 75 236 b 326 -14 75 67 171 -14 z "}," ":{"ha":315,"x_min":0,"x_max":0,"o":""}," ":{"ha":315,"x_min":0,"x_max":0,"o":""},"A":{"ha":646,"x_min":0,"x_max":0,"o":"m 299 797 l 319 921 l 339 799 l 461 306 l 182 306 z m 538 0 l 607 0 l 351 983 l 286 983 l 40 0 l 108 0 l 167 242 l 478 242 z "},"B":{"ha":674,"x_min":0,"x_max":0,"o":"m 371 0 b 610 231 554 0 610 83 l 610 313 b 463 510 610 424 565 486 b 596 710 558 535 596 600 l 596 769 b 351 983 596 906 533 983 l 106 983 l 106 0 z m 351 925 b 529 765 486 925 529 868 l 529 711 b 353 538 529 594 479 536 l 172 538 l 172 925 z m 354 478 b 540 310 489 478 540 421 l 540 233 b 365 61 540 119 504 61 l 172 61 l 172 478 z "},"C":{"ha":693,"x_min":0,"x_max":0,"o":"m 354 -14 b 622 294 531 -14 622 82 l 622 376 l 551 376 l 551 297 b 354 50 551 128 489 50 b 156 297 219 50 156 129 l 156 679 b 354 933 156 843 215 933 b 550 679 496 933 550 847 l 550 633 l 622 633 l 622 682 b 354 994 622 890 539 994 b 86 682 178 994 86 885 l 86 294 b 354 -14 86 81 178 -14 z "},"D":{"ha":704,"x_min":0,"x_max":0,"o":"m 106 0 l 318 0 b 617 311 497 0 617 92 l 617 675 b 317 983 617 892 497 983 l 106 983 z m 314 924 b 549 672 457 924 549 851 l 549 314 b 317 61 549 138 457 61 l 172 61 l 172 924 z "},"E":{"ha":601,"x_min":0,"x_max":0,"o":"m 553 63 l 172 63 l 172 478 l 492 478 l 492 540 l 172 540 l 172 922 l 540 922 l 540 983 l 106 983 l 106 0 l 553 0 z "},"F":{"ha":567,"x_min":0,"x_max":0,"o":"m 499 443 l 499 506 l 171 506 l 171 922 l 521 922 l 521 983 l 106 983 l 106 0 l 171 0 l 171 443 z "},"G":{"ha":715,"x_min":0,"x_max":0,"o":"m 572 0 l 617 0 l 617 499 l 350 499 l 350 438 l 553 438 l 553 299 b 354 50 553 140 482 50 b 156 297 222 50 156 126 l 156 674 b 365 935 156 847 222 935 b 547 736 488 935 547 867 l 547 665 l 617 665 l 617 738 b 365 994 617 908 525 994 b 86 675 182 994 86 888 l 86 293 b 342 -14 86 82 174 -14 b 563 174 460 -14 535 50 z "},"H":{"ha":710,"x_min":0,"x_max":0,"o":"m 538 0 l 604 0 l 604 983 l 538 983 l 538 521 l 172 521 l 172 983 l 106 983 l 106 0 l 172 0 l 172 457 l 538 457 z "},"I":{"ha":442,"x_min":0,"x_max":0,"o":"m 396 0 l 396 63 l 254 63 l 254 922 l 396 922 l 396 983 l 46 983 l 46 922 l 189 922 l 189 63 l 46 63 l 46 0 z "},"J":{"ha":585,"x_min":0,"x_max":0,"o":"m 272 -14 b 489 235 419 -14 489 67 l 489 983 l 421 983 l 421 238 b 272 50 421 107 378 50 b 128 210 171 50 128 115 l 128 333 l 60 333 l 60 207 b 272 -14 60 67 132 -14 z "},"K":{"ha":668,"x_min":0,"x_max":0,"o":"m 344 535 l 564 0 l 638 0 l 375 626 l 614 983 l 538 983 l 179 449 l 169 424 l 172 476 l 172 983 l 106 983 l 106 0 l 172 0 l 172 353 l 329 583 z "},"L":{"ha":550,"x_min":0,"x_max":0,"o":"m 510 0 l 510 64 l 172 64 l 172 983 l 106 983 l 106 0 z "},"M":{"ha":821,"x_min":0,"x_max":0,"o":"m 169 711 l 156 901 l 179 831 l 397 360 l 424 360 l 639 826 l 665 903 l 651 713 l 651 0 l 715 0 l 715 983 l 651 983 l 411 456 l 171 983 l 106 983 l 106 0 l 169 0 z "},"N":{"ha":739,"x_min":0,"x_max":0,"o":"m 169 753 l 158 904 l 211 760 l 575 0 l 633 0 l 633 983 l 569 983 l 569 244 l 581 94 l 529 229 l 167 983 l 106 983 l 106 0 l 169 0 z "},"O":{"ha":714,"x_min":0,"x_max":0,"o":"m 357 -14 b 626 294 532 -14 626 82 l 626 681 b 357 994 626 886 533 994 b 86 681 181 994 86 883 l 86 294 b 357 -14 86 81 181 -14 z m 357 50 b 156 297 222 50 156 129 l 156 678 b 357 933 156 842 218 933 b 558 678 494 933 558 842 l 558 297 b 357 50 558 128 492 50 z "},"P":{"ha":657,"x_min":0,"x_max":0,"o":"m 329 924 b 522 732 464 924 522 850 l 522 578 b 333 382 522 458 460 382 l 172 382 l 172 924 z m 336 322 b 590 578 508 321 590 422 l 590 732 b 331 983 590 890 510 983 l 106 983 l 106 0 l 172 0 l 172 322 z "},"Q":{"ha":714,"x_min":0,"x_max":0,"o":"m 604 -132 l 504 19 b 626 294 585 63 626 153 l 626 681 b 357 994 626 886 533 994 b 86 681 181 994 86 883 l 86 294 b 357 -14 86 81 181 -14 b 443 -4 389 -14 417 -11 l 517 -132 z m 357 50 b 156 297 222 50 156 129 l 156 678 b 357 933 156 842 218 933 b 558 678 494 933 558 842 l 558 297 b 357 50 558 128 492 50 z "},"R":{"ha":674,"x_min":0,"x_max":0,"o":"m 351 924 b 529 749 482 924 529 861 l 529 668 b 346 490 529 553 467 490 l 172 490 l 172 924 z m 346 432 b 517 274 474 432 517 389 l 517 63 b 531 0 517 36 522 13 l 607 0 b 585 61 593 13 585 35 l 585 275 b 457 464 585 392 550 446 b 597 665 549 490 597 556 l 597 753 b 353 983 597 901 526 983 l 106 983 l 106 0 l 172 0 l 172 432 z "},"S":{"ha":640,"x_min":0,"x_max":0,"o":"m 329 -14 b 582 224 496 -14 582 92 l 582 271 b 351 531 582 433 464 483 b 147 732 247 574 147 614 l 147 767 b 319 935 147 867 210 935 b 496 768 431 935 496 878 l 496 682 l 563 682 l 563 771 b 321 994 563 913 475 994 b 79 768 168 994 79 903 l 79 729 b 304 482 79 576 193 529 b 515 268 410 439 515 396 l 515 222 b 329 49 515 125 454 49 b 131 238 199 49 131 118 l 131 339 l 61 339 l 61 236 b 329 -14 61 75 147 -14 z "},"T":{"ha":546,"x_min":0,"x_max":0,"o":"m 508 921 l 508 983 l 38 983 l 38 921 l 238 921 l 238 0 l 304 0 l 304 921 z "},"U":{"ha":690,"x_min":0,"x_max":0,"o":"m 346 -14 b 592 279 511 -14 592 81 l 592 983 l 524 983 l 524 282 b 346 51 524 122 469 51 b 167 282 219 51 167 122 l 167 983 l 99 983 l 99 279 b 346 -14 99 81 175 -14 z "},"V":{"ha":640,"x_min":0,"x_max":0,"o":"m 353 0 l 604 983 l 535 983 l 343 203 l 319 78 l 297 206 l 110 983 l 39 983 l 286 0 z "},"W":{"ha":950,"x_min":0,"x_max":0,"o":"m 463 825 l 469 907 l 476 825 l 663 0 l 722 0 l 899 983 l 835 983 l 696 183 l 689 78 l 676 179 l 494 983 l 446 983 l 251 179 l 239 78 l 235 185 l 117 983 l 51 983 l 201 0 l 264 0 z "},"X":{"ha":613,"x_min":0,"x_max":0,"o":"m 297 440 l 307 475 l 318 440 l 515 0 l 589 0 l 344 528 l 560 983 l 486 983 l 317 604 l 308 574 l 299 604 l 132 983 l 60 983 l 269 526 l 21 0 l 97 0 z "},"Y":{"ha":606,"x_min":0,"x_max":0,"o":"m 332 0 l 332 351 l 572 983 l 501 983 l 308 461 l 299 411 l 290 461 l 106 983 l 35 983 l 264 353 l 264 0 z "},"Z":{"ha":585,"x_min":0,"x_max":0,"o":"m 532 0 l 532 65 l 126 65 l 524 924 l 524 983 l 79 983 l 79 921 l 450 921 l 49 58 l 49 0 z "},"Á":{"ha":646,"x_min":0,"x_max":0,"o":"m 299 797 l 319 921 l 339 799 l 461 306 l 182 306 z m 538 0 l 607 0 l 351 983 l 286 983 l 40 0 l 108 0 l 167 242 l 478 242 z m 290 1079 l 347 1079 l 503 1296 l 428 1296 z "},"Ă":{"ha":646,"x_min":0,"x_max":0,"o":"m 299 797 l 319 921 l 339 799 l 461 306 l 182 306 z m 538 0 l 607 0 l 351 983 l 286 983 l 40 0 l 108 0 l 167 242 l 478 242 z m 317 1075 b 493 1258 435 1075 489 1150 l 439 1258 b 318 1125 436 1178 397 1126 b 200 1258 233 1126 203 1178 l 146 1258 b 317 1075 149 1149 192 1075 z "},"Â":{"ha":646,"x_min":0,"x_max":0,"o":"m 299 797 l 319 921 l 339 799 l 461 306 l 182 306 z m 538 0 l 607 0 l 351 983 l 286 983 l 40 0 l 108 0 l 167 242 l 478 242 z m 410 1072 l 475 1072 l 344 1258 l 293 1258 l 161 1072 l 225 1072 l 318 1208 z "},"Ä":{"ha":646,"x_min":0,"x_max":0,"o":"m 299 797 l 319 921 l 339 799 l 461 306 l 182 306 z m 538 0 l 607 0 l 351 983 l 286 983 l 40 0 l 108 0 l 167 242 l 478 242 z m 401 1074 b 450 1129 433 1074 450 1090 b 401 1188 450 1169 435 1188 b 351 1131 368 1188 351 1169 b 401 1074 351 1089 367 1074 z m 228 1074 b 278 1129 260 1074 278 1090 b 228 1188 278 1169 261 1188 b 178 1131 196 1188 178 1169 b 228 1074 178 1089 194 1074 z "},"À":{"ha":646,"x_min":0,"x_max":0,"o":"m 299 797 l 319 921 l 339 799 l 461 306 l 182 306 z m 538 0 l 607 0 l 351 983 l 286 983 l 40 0 l 108 0 l 167 242 l 478 242 z m 292 1078 l 349 1078 l 228 1267 l 151 1267 z "},"Ā":{"ha":646,"x_min":0,"x_max":0,"o":"m 299 797 l 319 921 l 339 799 l 461 306 l 182 306 z m 538 0 l 607 0 l 351 983 l 286 983 l 40 0 l 108 0 l 167 242 l 478 242 z m 172 1099 l 461 1099 l 461 1154 l 172 1154 z "},"Ʌ":{"ha":646,"x_min":0,"x_max":0,"o":"m 313 853 l 319 906 l 325 853 l 538 0 l 607 0 l 351 983 l 286 983 l 40 0 l 108 0 z "},"Ą":{"ha":646,"x_min":0,"x_max":0,"o":"m 299 797 l 319 921 l 339 799 l 461 306 l 182 306 z m 722 -139 l 660 -139 b 565 -203 644 -181 613 -203 b 485 -136 515 -203 485 -176 b 604 0 485 -93 517 -56 l 607 0 l 351 983 l 286 983 l 40 0 l 108 0 l 167 242 l 478 242 l 535 11 b 428 -139 460 -39 428 -87 b 563 -253 428 -210 476 -253 b 722 -139 646 -253 697 -214 z "},"Å":{"ha":646,"x_min":0,"x_max":0,"o":"m 299 797 l 319 921 l 339 799 l 461 306 l 182 306 z m 538 0 l 607 0 l 351 983 l 286 983 l 40 0 l 108 0 l 167 242 l 478 242 z m 315 1065 b 439 1186 389 1065 439 1111 b 315 1307 439 1261 390 1307 b 194 1186 244 1307 194 1258 b 315 1065 194 1113 243 1065 z m 315 1115 b 247 1186 274 1115 247 1144 b 315 1257 247 1229 275 1257 b 386 1186 358 1257 386 1229 b 315 1115 386 1142 356 1115 z "},"Ǻ":{"ha":646,"x_min":0,"x_max":0,"o":"m 294 1244 l 351 1244 l 507 1461 l 432 1461 z m 318 983 b 250 1054 276 983 250 1013 b 318 1125 250 1097 278 1125 b 389 1054 361 1125 389 1097 b 318 983 389 1010 358 983 z m 299 797 l 319 921 l 339 799 l 461 306 l 182 306 z m 167 242 l 478 242 l 538 0 l 607 0 l 363 940 b 442 1054 411 954 442 996 b 318 1175 442 1129 393 1175 b 197 1054 247 1175 197 1126 b 275 940 197 996 228 954 l 40 0 l 108 0 z "},"Ã":{"ha":646,"x_min":0,"x_max":0,"o":"m 299 797 l 319 921 l 339 799 l 461 306 l 182 306 z m 538 0 l 607 0 l 351 983 l 286 983 l 40 0 l 108 0 l 167 242 l 478 242 z m 126 1079 l 176 1079 b 225 1154 176 1131 189 1154 b 403 1076 279 1154 325 1076 b 503 1204 474 1076 503 1125 l 453 1204 b 403 1129 453 1149 436 1129 b 224 1207 351 1129 304 1207 b 126 1079 156 1207 126 1161 z "},"Æ":{"ha":918,"x_min":0,"x_max":0,"o":"m 371 813 l 392 915 l 394 815 l 457 303 l 197 303 z m 493 0 l 868 0 l 868 63 l 550 63 l 500 463 l 807 463 l 807 525 l 492 525 l 443 922 l 857 922 l 857 983 l 365 983 l 25 0 l 94 0 l 178 243 l 464 243 z "},"Ǽ":{"ha":918,"x_min":0,"x_max":0,"o":"m 371 813 l 392 915 l 394 815 l 457 303 l 197 303 z m 493 0 l 868 0 l 868 63 l 550 63 l 500 463 l 807 463 l 807 525 l 492 525 l 443 922 l 857 922 l 857 983 l 365 983 l 25 0 l 94 0 l 178 243 l 464 243 z m 375 1079 l 432 1079 l 588 1296 l 513 1296 z "},"Ć":{"ha":693,"x_min":0,"x_max":0,"o":"m 354 -14 b 622 294 531 -14 622 82 l 622 376 l 551 376 l 551 297 b 354 50 551 128 489 50 b 156 297 219 50 156 129 l 156 679 b 354 933 156 843 215 933 b 550 679 496 933 550 847 l 550 633 l 622 633 l 622 682 b 354 994 622 890 539 994 b 86 682 178 994 86 885 l 86 294 b 354 -14 86 81 178 -14 z m 332 1090 l 389 1090 l 544 1307 l 469 1307 z "},"Č":{"ha":693,"x_min":0,"x_max":0,"o":"m 354 -14 b 622 294 531 -14 622 82 l 622 376 l 551 376 l 551 297 b 354 50 551 128 489 50 b 156 297 219 50 156 129 l 156 679 b 354 933 156 843 215 933 b 550 679 496 933 550 847 l 550 633 l 622 633 l 622 682 b 354 994 622 890 539 994 b 86 682 178 994 86 885 l 86 294 b 354 -14 86 81 178 -14 z m 385 1088 l 518 1272 l 453 1272 l 361 1140 l 272 1272 l 207 1272 l 336 1088 z "},"Ç":{"ha":693,"x_min":0,"x_max":0,"o":"m 367 -294 b 513 -181 457 -294 513 -251 b 386 -83 513 -118 469 -85 l 386 -12 b 622 294 542 -1 622 96 l 622 376 l 551 376 l 551 297 b 354 50 551 128 489 50 b 156 297 219 50 156 129 l 156 679 b 354 933 156 843 215 933 b 550 679 496 933 550 847 l 550 633 l 622 633 l 622 682 b 354 994 622 890 539 994 b 86 682 178 994 86 885 l 86 294 b 332 -14 86 90 169 -6 l 332 -128 l 364 -128 b 456 -183 431 -128 456 -143 b 367 -246 456 -226 422 -246 b 274 -178 314 -246 279 -225 l 213 -178 b 367 -294 224 -253 269 -294 z "},"Ĉ":{"ha":693,"x_min":0,"x_max":0,"o":"m 354 -14 b 622 294 531 -14 622 82 l 622 376 l 551 376 l 551 297 b 354 50 551 128 489 50 b 156 297 219 50 156 129 l 156 679 b 354 933 156 843 215 933 b 550 679 496 933 550 847 l 550 633 l 622 633 l 622 682 b 354 994 622 890 539 994 b 86 682 178 994 86 885 l 86 294 b 354 -14 86 81 178 -14 z m 453 1088 l 518 1088 l 388 1274 l 336 1274 l 204 1088 l 268 1088 l 361 1224 z "},"Ċ":{"ha":693,"x_min":0,"x_max":0,"o":"m 354 -14 b 622 294 531 -14 622 82 l 622 376 l 551 376 l 551 297 b 354 50 551 128 489 50 b 156 297 219 50 156 129 l 156 679 b 354 933 156 843 215 933 b 550 679 496 933 550 847 l 550 633 l 622 633 l 622 682 b 354 994 622 890 539 994 b 86 682 178 994 86 885 l 86 294 b 354 -14 86 81 178 -14 z m 361 1089 b 415 1150 396 1089 415 1106 b 361 1214 415 1193 397 1214 b 306 1151 325 1214 306 1194 b 361 1089 306 1106 322 1089 z "},"Ď":{"ha":704,"x_min":0,"x_max":0,"o":"m 106 0 l 318 0 b 617 311 497 0 617 92 l 617 675 b 317 983 617 892 497 983 l 106 983 z m 314 924 b 549 672 457 924 549 851 l 549 314 b 317 61 549 138 457 61 l 172 61 l 172 924 z m 365 1075 l 499 1260 l 433 1260 l 342 1128 l 253 1260 l 188 1260 l 317 1075 z "},"Đ":{"ha":711,"x_min":0,"x_max":0,"o":"m 328 0 b 626 311 507 0 626 92 l 626 675 b 326 983 626 892 507 983 l 115 983 l 115 519 l 15 519 l 15 458 l 115 458 l 115 0 z m 321 458 l 321 519 l 182 519 l 182 924 l 324 924 b 558 672 467 924 558 851 l 558 314 b 326 61 558 138 467 61 l 182 61 l 182 458 z "},"Ð":{"ha":711,"x_min":0,"x_max":0,"o":"m 328 0 b 626 311 507 0 626 92 l 626 675 b 326 983 626 892 507 983 l 115 983 l 115 519 l 15 519 l 15 458 l 115 458 l 115 0 z m 321 458 l 321 519 l 182 519 l 182 924 l 324 924 b 558 672 467 924 558 851 l 558 314 b 326 61 558 138 467 61 l 182 61 l 182 458 z "},"É":{"ha":601,"x_min":0,"x_max":0,"o":"m 553 63 l 172 63 l 172 478 l 492 478 l 492 540 l 172 540 l 172 922 l 540 922 l 540 983 l 106 983 l 106 0 l 553 0 z m 297 1079 l 354 1079 l 510 1296 l 435 1296 z "},"Ĕ":{"ha":601,"x_min":0,"x_max":0,"o":"m 553 63 l 172 63 l 172 478 l 492 478 l 492 540 l 172 540 l 172 922 l 540 922 l 540 983 l 106 983 l 106 0 l 553 0 z m 328 1075 b 504 1258 446 1075 500 1150 l 450 1258 b 329 1125 447 1178 408 1126 b 211 1258 244 1126 214 1178 l 157 1258 b 328 1075 160 1149 203 1075 z "},"Ě":{"ha":601,"x_min":0,"x_max":0,"o":"m 553 63 l 172 63 l 172 478 l 492 478 l 492 540 l 172 540 l 172 922 l 540 922 l 540 983 l 106 983 l 106 0 l 553 0 z m 350 1076 l 483 1261 l 418 1261 l 326 1129 l 238 1261 l 172 1261 l 301 1076 z "},"Ê":{"ha":601,"x_min":0,"x_max":0,"o":"m 553 63 l 172 63 l 172 478 l 492 478 l 492 540 l 172 540 l 172 922 l 540 922 l 540 983 l 106 983 l 106 0 l 553 0 z m 421 1078 l 486 1078 l 356 1264 l 304 1264 l 172 1078 l 236 1078 l 329 1214 z "},"Ë":{"ha":601,"x_min":0,"x_max":0,"o":"m 553 63 l 172 63 l 172 478 l 492 478 l 492 540 l 172 540 l 172 922 l 540 922 l 540 983 l 106 983 l 106 0 l 553 0 z m 415 1081 b 464 1136 447 1081 464 1097 b 415 1194 464 1176 449 1194 b 365 1138 382 1194 365 1176 b 415 1081 365 1096 381 1081 z m 242 1081 b 292 1136 274 1081 292 1097 b 242 1194 292 1176 275 1194 b 192 1138 210 1194 192 1176 b 242 1081 192 1096 208 1081 z "},"Ė":{"ha":601,"x_min":0,"x_max":0,"o":"m 553 63 l 172 63 l 172 478 l 492 478 l 492 540 l 172 540 l 172 922 l 540 922 l 540 983 l 106 983 l 106 0 l 553 0 z m 328 1078 b 382 1139 363 1078 382 1094 b 328 1203 382 1182 364 1203 b 272 1140 292 1203 272 1183 b 328 1078 272 1094 289 1078 z "},"È":{"ha":601,"x_min":0,"x_max":0,"o":"m 553 63 l 172 63 l 172 478 l 492 478 l 492 540 l 172 540 l 172 922 l 540 922 l 540 983 l 106 983 l 106 0 l 553 0 z m 307 1078 l 364 1078 l 243 1267 l 167 1267 z "},"Ē":{"ha":601,"x_min":0,"x_max":0,"o":"m 553 63 l 172 63 l 172 478 l 492 478 l 492 540 l 172 540 l 172 922 l 540 922 l 540 983 l 106 983 l 106 0 l 553 0 z m 188 1104 l 476 1104 l 476 1160 l 188 1160 z "},"Ę":{"ha":601,"x_min":0,"x_max":0,"o":"m 671 -139 l 608 -139 b 514 -203 593 -181 561 -203 b 433 -136 464 -203 433 -176 b 553 0 433 -93 465 -56 l 553 63 l 172 63 l 172 478 l 492 478 l 492 540 l 172 540 l 172 922 l 540 922 l 540 983 l 106 983 l 106 0 l 468 0 b 376 -139 403 -46 376 -92 b 511 -253 376 -210 425 -253 b 671 -139 594 -253 646 -214 z "},"Ğ":{"ha":715,"x_min":0,"x_max":0,"o":"m 572 0 l 617 0 l 617 499 l 350 499 l 350 438 l 553 438 l 553 299 b 354 50 553 140 482 50 b 156 297 222 50 156 126 l 156 674 b 365 935 156 847 222 935 b 547 736 488 935 547 867 l 547 665 l 617 665 l 617 738 b 365 994 617 908 525 994 b 86 675 182 994 86 888 l 86 293 b 342 -14 86 82 174 -14 b 563 174 460 -14 535 50 z m 364 1086 b 540 1269 482 1086 536 1161 l 486 1269 b 365 1136 483 1189 444 1138 b 247 1269 281 1138 250 1189 l 193 1269 b 364 1086 196 1160 239 1086 z "},"Ĝ":{"ha":715,"x_min":0,"x_max":0,"o":"m 572 0 l 617 0 l 617 499 l 350 499 l 350 438 l 553 438 l 553 299 b 354 50 553 140 482 50 b 156 297 222 50 156 126 l 156 674 b 365 935 156 847 222 935 b 547 736 488 935 547 867 l 547 665 l 617 665 l 617 738 b 365 994 617 908 525 994 b 86 675 182 994 86 888 l 86 293 b 342 -14 86 82 174 -14 b 563 174 460 -14 535 50 z m 460 1089 l 525 1089 l 394 1275 l 343 1275 l 211 1089 l 275 1089 l 368 1225 z "},"Ģ":{"ha":715,"x_min":0,"x_max":0,"o":"m 572 0 l 617 0 l 617 499 l 350 499 l 350 438 l 553 438 l 553 299 b 354 50 553 140 482 50 b 156 297 222 50 156 126 l 156 674 b 365 935 156 847 222 935 b 547 736 488 935 547 867 l 547 665 l 617 665 l 617 738 b 365 994 617 908 525 994 b 86 675 182 994 86 888 l 86 293 b 342 -14 86 82 174 -14 b 563 174 460 -14 535 50 z m 321 -329 b 418 -171 383 -303 418 -244 b 365 -89 418 -112 401 -89 b 314 -147 332 -89 314 -107 b 356 -199 314 -189 331 -199 b 371 -194 361 -199 367 -197 b 310 -293 367 -242 344 -275 z "},"Ġ":{"ha":715,"x_min":0,"x_max":0,"o":"m 572 0 l 617 0 l 617 499 l 350 499 l 350 438 l 553 438 l 553 299 b 354 50 553 140 482 50 b 156 297 222 50 156 126 l 156 674 b 365 935 156 847 222 935 b 547 736 488 935 547 867 l 547 665 l 617 665 l 617 738 b 365 994 617 908 525 994 b 86 675 182 994 86 888 l 86 293 b 342 -14 86 82 174 -14 b 563 174 460 -14 535 50 z m 365 1089 b 419 1150 400 1089 419 1106 b 365 1214 419 1193 401 1214 b 310 1151 329 1214 310 1194 b 365 1089 310 1106 326 1089 z "},"Ħ":{"ha":726,"x_min":0,"x_max":0,"o":"m 546 508 l 181 508 l 181 715 l 546 715 z m 546 0 l 613 0 l 613 715 l 711 715 l 711 774 l 613 774 l 613 983 l 546 983 l 546 774 l 181 774 l 181 983 l 114 983 l 114 774 l 15 774 l 15 715 l 114 715 l 114 0 l 181 0 l 181 449 l 546 449 z "},"Ĥ":{"ha":710,"x_min":0,"x_max":0,"o":"m 538 0 l 604 0 l 604 983 l 538 983 l 538 521 l 172 521 l 172 983 l 106 983 l 106 0 l 172 0 l 172 457 l 538 457 z m 446 1067 l 511 1067 l 381 1253 l 329 1253 l 197 1067 l 261 1067 l 354 1203 z "},"Í":{"ha":442,"x_min":0,"x_max":0,"o":"m 396 0 l 396 63 l 254 63 l 254 922 l 396 922 l 396 983 l 46 983 l 46 922 l 189 922 l 189 63 l 46 63 l 46 0 z m 189 1079 l 246 1079 l 401 1296 l 326 1296 z "},"Ĭ":{"ha":442,"x_min":0,"x_max":0,"o":"m 396 0 l 396 63 l 254 63 l 254 922 l 396 922 l 396 983 l 46 983 l 46 922 l 189 922 l 189 63 l 46 63 l 46 0 z m 218 1075 b 394 1258 336 1075 390 1150 l 340 1258 b 219 1125 338 1178 299 1126 b 101 1258 135 1126 104 1178 l 47 1258 b 218 1075 50 1149 93 1075 z "},"Î":{"ha":442,"x_min":0,"x_max":0,"o":"m 396 0 l 396 63 l 254 63 l 254 922 l 396 922 l 396 983 l 46 983 l 46 922 l 189 922 l 189 63 l 46 63 l 46 0 z m 314 1078 l 379 1078 l 249 1264 l 197 1264 l 65 1078 l 129 1078 l 222 1214 z "},"Ï":{"ha":442,"x_min":0,"x_max":0,"o":"m 396 0 l 396 63 l 254 63 l 254 922 l 396 922 l 396 983 l 46 983 l 46 922 l 189 922 l 189 63 l 46 63 l 46 0 z m 307 1081 b 356 1136 339 1081 356 1097 b 307 1194 356 1176 340 1194 b 257 1138 274 1194 257 1176 b 307 1081 257 1096 272 1081 z m 133 1081 b 183 1136 165 1081 183 1097 b 133 1194 183 1176 167 1194 b 83 1138 101 1194 83 1176 b 133 1081 83 1096 100 1081 z "},"İ":{"ha":442,"x_min":0,"x_max":0,"o":"m 396 0 l 396 63 l 254 63 l 254 922 l 396 922 l 396 983 l 46 983 l 46 922 l 189 922 l 189 63 l 46 63 l 46 0 z m 221 1078 b 275 1139 256 1078 275 1094 b 221 1203 275 1182 257 1203 b 165 1140 185 1203 165 1183 b 221 1078 165 1094 182 1078 z "},"Ì":{"ha":442,"x_min":0,"x_max":0,"o":"m 396 0 l 396 63 l 254 63 l 254 922 l 396 922 l 396 983 l 46 983 l 46 922 l 189 922 l 189 63 l 46 63 l 46 0 z m 196 1078 l 253 1078 l 132 1267 l 56 1267 z "},"Ī":{"ha":442,"x_min":0,"x_max":0,"o":"m 396 0 l 396 63 l 254 63 l 254 922 l 396 922 l 396 983 l 46 983 l 46 922 l 189 922 l 189 63 l 46 63 l 46 0 z m 79 1103 l 368 1103 l 368 1158 l 79 1158 z "},"Į":{"ha":442,"x_min":0,"x_max":0,"o":"m 514 -139 l 451 -139 b 357 -203 436 -181 404 -203 b 276 -136 307 -203 276 -176 b 396 0 276 -93 308 -56 l 396 63 l 254 63 l 254 922 l 396 922 l 396 983 l 46 983 l 46 922 l 189 922 l 189 63 l 46 63 l 46 0 l 311 0 b 219 -139 246 -46 219 -92 b 354 -253 219 -210 268 -253 b 514 -139 438 -253 489 -214 z "},"Ĩ":{"ha":442,"x_min":0,"x_max":0,"o":"m 396 0 l 396 63 l 254 63 l 254 922 l 396 922 l 396 983 l 46 983 l 46 922 l 189 922 l 189 63 l 46 63 l 46 0 z m 32 1081 l 82 1081 b 131 1156 82 1132 94 1156 b 308 1078 185 1156 231 1078 b 408 1206 379 1078 408 1126 l 358 1206 b 308 1131 358 1150 342 1131 b 129 1208 257 1131 210 1208 b 32 1081 61 1208 32 1163 z "},"Ĵ":{"ha":585,"x_min":0,"x_max":0,"o":"m 272 -14 b 489 235 419 -14 489 67 l 489 983 l 421 983 l 421 238 b 272 50 421 107 378 50 b 128 210 171 50 128 115 l 128 333 l 60 333 l 60 207 b 272 -14 60 67 132 -14 z m 547 1078 l 613 1078 l 482 1264 l 431 1264 l 299 1078 l 363 1078 l 456 1214 z "},"Ķ":{"ha":668,"x_min":0,"x_max":0,"o":"m 344 535 l 564 0 l 638 0 l 375 626 l 614 983 l 538 983 l 179 449 l 169 424 l 172 476 l 172 983 l 106 983 l 106 0 l 172 0 l 172 353 l 329 583 z m 315 -307 b 413 -149 378 -281 413 -222 b 360 -67 413 -90 396 -67 b 308 -125 326 -67 308 -85 b 350 -176 308 -167 325 -176 b 365 -172 356 -176 361 -175 b 304 -271 361 -219 339 -253 z "},"Ĺ":{"ha":550,"x_min":0,"x_max":0,"o":"m 510 0 l 510 64 l 172 64 l 172 983 l 106 983 l 106 0 z m 107 1079 l 164 1079 l 319 1296 l 244 1296 z "},"Ľ":{"ha":550,"x_min":0,"x_max":0,"o":"m 510 0 l 510 64 l 172 64 l 172 983 l 106 983 l 106 0 z m 324 883 l 372 883 l 440 1082 l 375 1082 z "},"Ļ":{"ha":550,"x_min":0,"x_max":0,"o":"m 510 0 l 510 64 l 172 64 l 172 983 l 106 983 l 106 0 z m 267 -315 b 364 -157 329 -289 364 -231 b 311 -75 364 -99 347 -75 b 260 -133 278 -75 260 -93 b 301 -185 260 -175 276 -185 b 317 -181 307 -185 313 -183 b 256 -279 313 -228 290 -261 z "},"Ŀ":{"ha":550,"x_min":0,"x_max":0,"o":"m 510 0 l 510 64 l 172 64 l 172 983 l 106 983 l 106 0 z m 456 346 b 510 407 490 346 510 363 b 456 471 510 450 492 471 b 400 408 419 471 400 451 b 456 346 400 363 417 346 z "},"Ł":{"ha":561,"x_min":0,"x_max":0,"o":"m 521 0 l 521 64 l 183 64 l 183 493 l 338 539 l 322 594 l 183 553 l 183 983 l 117 983 l 117 533 l 10 501 l 26 446 l 117 472 l 117 0 z "},"Ń":{"ha":739,"x_min":0,"x_max":0,"o":"m 169 753 l 158 904 l 211 760 l 575 0 l 633 0 l 633 983 l 569 983 l 569 244 l 581 94 l 529 229 l 167 983 l 106 983 l 106 0 l 169 0 z m 339 1057 l 396 1057 l 551 1274 l 476 1274 z "},"Ň":{"ha":739,"x_min":0,"x_max":0,"o":"m 169 753 l 158 904 l 211 760 l 575 0 l 633 0 l 633 983 l 569 983 l 569 244 l 581 94 l 529 229 l 167 983 l 106 983 l 106 0 l 169 0 z m 392 1057 l 525 1242 l 460 1242 l 368 1110 l 279 1242 l 214 1242 l 343 1057 z "},"Ņ":{"ha":739,"x_min":0,"x_max":0,"o":"m 169 753 l 158 904 l 211 760 l 575 0 l 633 0 l 633 983 l 569 983 l 569 244 l 581 94 l 529 229 l 167 983 l 106 983 l 106 0 l 169 0 z m 317 -306 b 414 -147 379 -279 414 -221 b 361 -65 414 -89 397 -65 b 310 -124 328 -65 310 -83 b 351 -175 310 -165 326 -175 b 367 -171 357 -175 363 -174 b 306 -269 363 -218 340 -251 z "},"Ñ":{"ha":739,"x_min":0,"x_max":0,"o":"m 169 753 l 158 904 l 211 760 l 575 0 l 633 0 l 633 983 l 569 983 l 569 244 l 581 94 l 529 229 l 167 983 l 106 983 l 106 0 l 169 0 z m 201 1086 l 251 1086 b 300 1161 251 1138 264 1161 b 478 1083 354 1161 400 1083 b 578 1211 549 1083 578 1132 l 528 1211 b 478 1136 528 1156 511 1136 b 299 1214 426 1136 379 1214 b 201 1086 231 1214 201 1168 z "},"Ŋ":{"ha":739,"x_min":0,"x_max":0,"o":"m 463 -228 b 633 -39 597 -228 633 -186 l 633 983 l 569 983 l 569 243 l 581 93 l 528 229 l 167 983 l 106 983 l 106 0 l 169 0 l 169 754 l 158 904 l 207 771 l 569 11 l 569 -33 b 457 -167 569 -142 546 -167 l 425 -167 l 425 -228 z "},"Ó":{"ha":714,"x_min":0,"x_max":0,"o":"m 357 -14 b 626 294 532 -14 626 82 l 626 681 b 357 994 626 886 533 994 b 86 681 181 994 86 883 l 86 294 b 357 -14 86 81 181 -14 z m 357 50 b 156 297 222 50 156 129 l 156 678 b 357 933 156 842 218 933 b 558 678 494 933 558 842 l 558 297 b 357 50 558 128 492 50 z m 336 1089 l 393 1089 l 549 1306 l 474 1306 z "},"Ŏ":{"ha":714,"x_min":0,"x_max":0,"o":"m 357 -14 b 626 294 532 -14 626 82 l 626 681 b 357 994 626 886 533 994 b 86 681 181 994 86 883 l 86 294 b 357 -14 86 81 181 -14 z m 357 50 b 156 297 222 50 156 129 l 156 678 b 357 933 156 842 218 933 b 558 678 494 933 558 842 l 558 297 b 357 50 558 128 492 50 z m 356 1085 b 532 1268 474 1085 528 1160 l 478 1268 b 357 1135 475 1188 436 1136 b 239 1268 272 1136 242 1188 l 185 1268 b 356 1085 188 1158 231 1085 z "},"Ô":{"ha":714,"x_min":0,"x_max":0,"o":"m 357 -14 b 626 294 532 -14 626 82 l 626 681 b 357 994 626 886 533 994 b 86 681 181 994 86 883 l 86 294 b 357 -14 86 81 181 -14 z m 357 50 b 156 297 222 50 156 129 l 156 678 b 357 933 156 842 218 933 b 558 678 494 933 558 842 l 558 297 b 357 50 558 128 492 50 z m 451 1088 l 517 1088 l 386 1274 l 335 1274 l 203 1088 l 267 1088 l 360 1224 z "},"Ö":{"ha":714,"x_min":0,"x_max":0,"o":"m 357 -14 b 626 294 532 -14 626 82 l 626 681 b 357 994 626 886 533 994 b 86 681 181 994 86 883 l 86 294 b 357 -14 86 81 181 -14 z m 357 50 b 156 297 222 50 156 129 l 156 678 b 357 933 156 842 218 933 b 558 678 494 933 558 842 l 558 297 b 357 50 558 128 492 50 z m 443 1090 b 492 1146 475 1090 492 1107 b 443 1204 492 1186 476 1204 b 393 1147 410 1204 393 1186 b 443 1090 393 1106 408 1090 z m 269 1090 b 319 1146 301 1090 319 1107 b 269 1204 319 1186 303 1204 b 219 1147 238 1204 219 1186 b 269 1090 219 1106 236 1090 z "},"Ò":{"ha":714,"x_min":0,"x_max":0,"o":"m 357 -14 b 626 294 532 -14 626 82 l 626 681 b 357 994 626 886 533 994 b 86 681 181 994 86 883 l 86 294 b 357 -14 86 81 181 -14 z m 357 50 b 156 297 222 50 156 129 l 156 678 b 357 933 156 842 218 933 b 558 678 494 933 558 842 l 558 297 b 357 50 558 128 492 50 z m 333 1089 l 390 1089 l 269 1278 l 193 1278 z "},"Ő":{"ha":714,"x_min":0,"x_max":0,"o":"m 357 -14 b 626 294 532 -14 626 82 l 626 681 b 357 994 626 886 533 994 b 86 681 181 994 86 883 l 86 294 b 357 -14 86 81 181 -14 z m 357 50 b 156 297 222 50 156 129 l 156 678 b 357 933 156 842 218 933 b 558 678 494 933 558 842 l 558 297 b 357 50 558 128 492 50 z m 447 1276 l 374 1276 l 257 1089 l 311 1089 z m 603 1276 l 528 1276 l 399 1089 l 454 1089 z "},"Ō":{"ha":714,"x_min":0,"x_max":0,"o":"m 357 -14 b 626 294 532 -14 626 82 l 626 681 b 357 994 626 886 533 994 b 86 681 181 994 86 883 l 86 294 b 357 -14 86 81 181 -14 z m 357 50 b 156 297 222 50 156 129 l 156 678 b 357 933 156 842 218 933 b 558 678 494 933 558 842 l 558 297 b 357 50 558 128 492 50 z m 214 1108 l 503 1108 l 503 1164 l 214 1164 z "},"Ø":{"ha":718,"x_min":0,"x_max":0,"o":"m 156 297 l 156 679 b 358 935 156 843 219 935 b 453 917 394 935 426 928 l 222 93 b 156 297 178 133 156 201 z m 358 49 b 268 65 324 49 293 54 l 499 885 b 563 679 542 842 563 772 l 563 297 b 358 49 563 128 494 49 z m 358 -15 b 631 294 536 -15 631 82 l 631 681 b 518 954 631 813 593 904 l 563 1103 l 508 1103 l 471 978 b 358 996 439 990 400 996 b 86 681 181 996 86 883 l 86 294 b 201 22 86 157 125 68 l 156 -125 l 211 -125 l 249 0 b 358 -15 281 -10 318 -15 z "},"Ǿ":{"ha":718,"x_min":0,"x_max":0,"o":"m 156 297 l 156 679 b 358 935 156 843 219 935 b 453 917 394 935 426 928 l 222 93 b 156 297 178 133 156 201 z m 358 49 b 268 65 324 49 293 54 l 499 885 b 563 679 542 842 563 772 l 563 297 b 358 49 563 128 494 49 z m 358 -15 b 631 294 536 -15 631 82 l 631 681 b 518 954 631 813 593 904 l 563 1103 l 508 1103 l 471 978 b 358 996 439 990 400 996 b 86 681 181 996 86 883 l 86 294 b 201 22 86 157 125 68 l 156 -125 l 211 -125 l 249 0 b 358 -15 281 -10 318 -15 z m 328 1108 l 385 1108 l 540 1325 l 465 1325 z "},"Õ":{"ha":714,"x_min":0,"x_max":0,"o":"m 357 -14 b 626 294 532 -14 626 82 l 626 681 b 357 994 626 886 533 994 b 86 681 181 994 86 883 l 86 294 b 357 -14 86 81 181 -14 z m 357 50 b 156 297 222 50 156 129 l 156 678 b 357 933 156 842 218 933 b 558 678 494 933 558 842 l 558 297 b 357 50 558 128 492 50 z m 168 1092 l 218 1092 b 267 1167 218 1143 231 1167 b 444 1089 321 1167 367 1089 b 544 1217 515 1089 544 1138 l 494 1217 b 444 1142 494 1161 478 1142 b 265 1219 393 1142 346 1219 b 168 1092 197 1219 168 1174 z "},"Œ":{"ha":1051,"x_min":0,"x_max":0,"o":"m 357 50 b 156 297 222 50 156 129 l 156 678 b 357 933 156 842 218 933 b 558 678 494 933 558 842 l 558 297 b 357 50 558 128 492 50 z m 556 0 l 1003 0 l 1003 63 l 621 63 l 621 478 l 942 478 l 942 540 l 621 540 l 621 922 l 990 922 l 990 983 l 556 983 l 556 854 b 349 994 526 944 465 994 b 86 681 179 994 86 883 l 86 294 b 347 -14 86 81 181 -14 b 556 124 463 -14 526 31 z "},"Ŕ":{"ha":674,"x_min":0,"x_max":0,"o":"m 351 924 b 529 749 482 924 529 861 l 529 668 b 346 490 529 553 467 490 l 172 490 l 172 924 z m 346 432 b 517 274 474 432 517 389 l 517 63 b 531 0 517 36 522 13 l 607 0 b 585 61 593 13 585 35 l 585 275 b 457 464 585 392 550 446 b 597 665 549 490 597 556 l 597 753 b 353 983 597 901 526 983 l 106 983 l 106 0 l 172 0 l 172 432 z m 314 1078 l 371 1078 l 526 1294 l 451 1294 z "},"Ř":{"ha":674,"x_min":0,"x_max":0,"o":"m 351 924 b 529 749 482 924 529 861 l 529 668 b 346 490 529 553 467 490 l 172 490 l 172 924 z m 346 432 b 517 274 474 432 517 389 l 517 63 b 531 0 517 36 522 13 l 607 0 b 585 61 593 13 585 35 l 585 275 b 457 464 585 392 550 446 b 597 665 549 490 597 556 l 597 753 b 353 983 597 901 526 983 l 106 983 l 106 0 l 172 0 l 172 432 z m 367 1075 l 500 1260 l 435 1260 l 343 1128 l 254 1260 l 189 1260 l 318 1075 z "},"Ŗ":{"ha":674,"x_min":0,"x_max":0,"o":"m 351 924 b 529 749 482 924 529 861 l 529 668 b 346 490 529 553 467 490 l 172 490 l 172 924 z m 346 432 b 517 274 474 432 517 389 l 517 63 b 531 0 517 36 522 13 l 607 0 b 585 61 593 13 585 35 l 585 275 b 457 464 585 392 550 446 b 597 665 549 490 597 556 l 597 753 b 353 983 597 901 526 983 l 106 983 l 106 0 l 172 0 l 172 432 z m 306 -306 b 403 -147 368 -279 403 -221 b 350 -65 403 -89 386 -65 b 299 -124 317 -65 299 -83 b 340 -175 299 -165 315 -175 b 356 -171 346 -175 351 -174 b 294 -269 351 -218 329 -251 z "},"Ś":{"ha":640,"x_min":0,"x_max":0,"o":"m 329 -14 b 582 224 496 -14 582 92 l 582 271 b 351 531 582 433 464 483 b 147 732 247 574 147 614 l 147 767 b 319 935 147 867 210 935 b 496 768 431 935 496 878 l 496 682 l 563 682 l 563 771 b 321 994 563 913 475 994 b 79 768 168 994 79 903 l 79 729 b 304 482 79 576 193 529 b 515 268 410 439 515 396 l 515 222 b 329 49 515 125 454 49 b 131 238 199 49 131 118 l 131 339 l 61 339 l 61 236 b 329 -14 61 75 147 -14 z m 288 1090 l 344 1090 l 500 1307 l 425 1307 z "},"Š":{"ha":640,"x_min":0,"x_max":0,"o":"m 329 -14 b 582 224 496 -14 582 92 l 582 271 b 351 531 582 433 464 483 b 147 732 247 574 147 614 l 147 767 b 319 935 147 867 210 935 b 496 768 431 935 496 878 l 496 682 l 563 682 l 563 771 b 321 994 563 913 475 994 b 79 768 168 994 79 903 l 79 729 b 304 482 79 576 193 529 b 515 268 410 439 515 396 l 515 222 b 329 49 515 125 454 49 b 131 238 199 49 131 118 l 131 339 l 61 339 l 61 236 b 329 -14 61 75 147 -14 z m 344 1088 l 478 1272 l 413 1272 l 321 1140 l 232 1272 l 167 1272 l 296 1088 z "},"Ş":{"ha":640,"x_min":0,"x_max":0,"o":"m 331 -294 b 476 -181 421 -294 476 -251 b 350 -83 476 -118 433 -85 l 350 -14 b 582 224 503 -4 582 97 l 582 271 b 351 531 582 433 464 483 b 147 732 247 574 147 614 l 147 767 b 319 935 147 867 210 935 b 496 768 431 935 496 878 l 496 682 l 563 682 l 563 771 b 321 994 563 913 475 994 b 79 768 168 994 79 903 l 79 729 b 304 482 79 576 193 529 b 515 268 410 439 515 396 l 515 222 b 329 49 515 125 454 49 b 131 238 199 49 131 118 l 131 339 l 61 339 l 61 236 b 296 -12 61 85 136 -3 l 296 -128 l 328 -128 b 419 -183 394 -128 419 -143 b 331 -246 419 -226 386 -246 b 238 -178 278 -246 243 -225 l 176 -178 b 331 -294 188 -253 233 -294 z "},"Ŝ":{"ha":640,"x_min":0,"x_max":0,"o":"m 329 -14 b 582 224 496 -14 582 92 l 582 271 b 351 531 582 433 464 483 b 147 732 247 574 147 614 l 147 767 b 319 935 147 867 210 935 b 496 768 431 935 496 878 l 496 682 l 563 682 l 563 771 b 321 994 563 913 475 994 b 79 768 168 994 79 903 l 79 729 b 304 482 79 576 193 529 b 515 268 410 439 515 396 l 515 222 b 329 49 515 125 454 49 b 131 238 199 49 131 118 l 131 339 l 61 339 l 61 236 b 329 -14 61 75 147 -14 z m 415 1085 l 481 1085 l 350 1271 l 299 1271 l 167 1085 l 231 1085 l 324 1221 z "},"Ș":{"ha":640,"x_min":0,"x_max":0,"o":"m 329 -14 b 582 224 496 -14 582 92 l 582 271 b 351 531 582 433 464 483 b 147 732 247 574 147 614 l 147 767 b 319 935 147 867 210 935 b 496 768 431 935 496 878 l 496 682 l 563 682 l 563 771 b 321 994 563 913 475 994 b 79 768 168 994 79 903 l 79 729 b 304 482 79 576 193 529 b 515 268 410 439 515 396 l 515 222 b 329 49 515 125 454 49 b 131 238 199 49 131 118 l 131 339 l 61 339 l 61 236 b 329 -14 61 75 147 -14 z m 283 -331 b 381 -172 346 -304 381 -246 b 328 -90 381 -114 364 -90 b 276 -149 294 -90 276 -108 b 318 -200 276 -190 293 -200 b 333 -196 324 -200 329 -199 b 272 -294 329 -243 307 -276 z "},"Ŧ":{"ha":546,"x_min":0,"x_max":0,"o":"m 422 460 l 422 519 l 304 519 l 304 921 l 508 921 l 508 983 l 38 983 l 38 921 l 238 921 l 238 519 l 118 519 l 118 460 l 238 460 l 238 0 l 304 0 l 304 460 z "},"Ť":{"ha":546,"x_min":0,"x_max":0,"o":"m 508 921 l 508 983 l 38 983 l 38 921 l 238 921 l 238 0 l 304 0 l 304 921 z m 296 1076 l 429 1261 l 364 1261 l 272 1129 l 183 1261 l 118 1261 l 247 1076 z "},"Ţ":{"ha":546,"x_min":0,"x_max":0,"o":"m 508 921 l 508 983 l 38 983 l 38 921 l 238 921 l 238 0 l 304 0 l 304 921 z m 231 -315 b 328 -157 293 -289 328 -231 b 275 -75 328 -99 311 -75 b 224 -133 242 -75 224 -93 b 265 -185 224 -175 240 -185 b 281 -181 271 -185 276 -183 b 219 -279 276 -228 254 -261 z "},"Ú":{"ha":690,"x_min":0,"x_max":0,"o":"m 346 -14 b 592 279 511 -14 592 81 l 592 983 l 524 983 l 524 282 b 346 51 524 122 469 51 b 167 282 219 51 167 122 l 167 983 l 99 983 l 99 279 b 346 -14 99 81 175 -14 z m 313 1068 l 369 1068 l 525 1285 l 450 1285 z "},"Ŭ":{"ha":690,"x_min":0,"x_max":0,"o":"m 346 -14 b 592 279 511 -14 592 81 l 592 983 l 524 983 l 524 282 b 346 51 524 122 469 51 b 167 282 219 51 167 122 l 167 983 l 99 983 l 99 279 b 346 -14 99 81 175 -14 z m 340 1064 b 517 1247 458 1064 513 1139 l 463 1247 b 342 1114 460 1167 421 1115 b 224 1247 257 1115 226 1167 l 169 1247 b 340 1064 172 1138 215 1064 z "},"Û":{"ha":690,"x_min":0,"x_max":0,"o":"m 346 -14 b 592 279 511 -14 592 81 l 592 983 l 524 983 l 524 282 b 346 51 524 122 469 51 b 167 282 219 51 167 122 l 167 983 l 99 983 l 99 279 b 346 -14 99 81 175 -14 z m 436 1067 l 501 1067 l 371 1253 l 319 1253 l 188 1067 l 251 1067 l 344 1203 z "},"Ü":{"ha":690,"x_min":0,"x_max":0,"o":"m 346 -14 b 592 279 511 -14 592 81 l 592 983 l 524 983 l 524 282 b 346 51 524 122 469 51 b 167 282 219 51 167 122 l 167 983 l 99 983 l 99 279 b 346 -14 99 81 175 -14 z m 429 1069 b 478 1125 461 1069 478 1086 b 429 1183 478 1165 463 1183 b 379 1126 396 1183 379 1165 b 429 1069 379 1085 394 1069 z m 256 1069 b 306 1125 288 1069 306 1086 b 256 1183 306 1165 289 1183 b 206 1126 224 1183 206 1165 b 256 1069 206 1085 222 1069 z "},"Ù":{"ha":690,"x_min":0,"x_max":0,"o":"m 346 -14 b 592 279 511 -14 592 81 l 592 983 l 524 983 l 524 282 b 346 51 524 122 469 51 b 167 282 219 51 167 122 l 167 983 l 99 983 l 99 279 b 346 -14 99 81 175 -14 z m 319 1067 l 376 1067 l 256 1256 l 179 1256 z "},"Ű":{"ha":690,"x_min":0,"x_max":0,"o":"m 346 -14 b 592 279 511 -14 592 81 l 592 983 l 524 983 l 524 282 b 346 51 524 122 469 51 b 167 282 219 51 167 122 l 167 983 l 99 983 l 99 279 b 346 -14 99 81 175 -14 z m 433 1256 l 360 1256 l 243 1068 l 297 1068 z m 589 1256 l 514 1256 l 385 1068 l 440 1068 z "},"Ū":{"ha":690,"x_min":0,"x_max":0,"o":"m 346 -14 b 592 279 511 -14 592 81 l 592 983 l 524 983 l 524 282 b 346 51 524 122 469 51 b 167 282 219 51 167 122 l 167 983 l 99 983 l 99 279 b 346 -14 99 81 175 -14 z m 200 1088 l 489 1088 l 489 1143 l 200 1143 z "},"Ų":{"ha":690,"x_min":0,"x_max":0,"o":"m 417 -244 b 576 -131 500 -244 551 -206 l 514 -131 b 419 -194 499 -172 467 -194 b 339 -128 369 -194 339 -168 b 449 1 339 -86 368 -50 b 592 279 544 36 592 128 l 592 983 l 524 983 l 524 282 b 346 51 524 122 469 51 b 167 282 219 51 167 122 l 167 983 l 99 983 l 99 279 b 344 -14 99 81 175 -14 b 282 -131 301 -53 282 -90 b 417 -244 282 -201 331 -244 z "},"Ů":{"ha":690,"x_min":0,"x_max":0,"o":"m 346 -14 b 592 279 511 -14 592 81 l 592 983 l 524 983 l 524 282 b 346 51 524 122 469 51 b 167 282 219 51 167 122 l 167 983 l 99 983 l 99 279 b 346 -14 99 81 175 -14 z m 342 1053 b 465 1174 415 1053 465 1099 b 342 1294 465 1249 417 1294 b 221 1174 271 1294 221 1246 b 342 1053 221 1100 269 1053 z m 342 1103 b 274 1174 300 1103 274 1132 b 342 1244 274 1217 301 1244 b 413 1174 385 1244 413 1217 b 342 1103 413 1129 382 1103 z "},"Ũ":{"ha":690,"x_min":0,"x_max":0,"o":"m 346 -14 b 592 279 511 -14 592 81 l 592 983 l 524 983 l 524 282 b 346 51 524 122 469 51 b 167 282 219 51 167 122 l 167 983 l 99 983 l 99 279 b 346 -14 99 81 175 -14 z m 154 1069 l 204 1069 b 253 1144 204 1121 217 1144 b 431 1067 307 1144 353 1067 b 531 1194 501 1067 531 1115 l 481 1194 b 431 1119 481 1139 464 1119 b 251 1197 379 1119 332 1197 b 154 1069 183 1197 154 1151 z "},"Ẃ":{"ha":950,"x_min":0,"x_max":0,"o":"m 463 825 l 469 907 l 476 825 l 663 0 l 722 0 l 899 983 l 835 983 l 696 183 l 689 78 l 676 179 l 494 983 l 446 983 l 251 179 l 239 78 l 235 185 l 117 983 l 51 983 l 201 0 l 264 0 z m 439 1079 l 496 1079 l 651 1296 l 576 1296 z "},"Ŵ":{"ha":950,"x_min":0,"x_max":0,"o":"m 463 825 l 469 907 l 476 825 l 663 0 l 722 0 l 899 983 l 835 983 l 696 183 l 689 78 l 676 179 l 494 983 l 446 983 l 251 179 l 239 78 l 235 185 l 117 983 l 51 983 l 201 0 l 264 0 z m 564 1078 l 629 1078 l 499 1264 l 447 1264 l 315 1078 l 379 1078 l 472 1214 z "},"Ẅ":{"ha":950,"x_min":0,"x_max":0,"o":"m 463 825 l 469 907 l 476 825 l 663 0 l 722 0 l 899 983 l 835 983 l 696 183 l 689 78 l 676 179 l 494 983 l 446 983 l 251 179 l 239 78 l 235 185 l 117 983 l 51 983 l 201 0 l 264 0 z m 556 1081 b 604 1136 588 1081 604 1097 b 556 1194 604 1176 589 1194 b 506 1138 522 1194 506 1176 b 556 1081 506 1096 521 1081 z m 382 1081 b 432 1136 414 1081 432 1097 b 382 1194 432 1176 415 1194 b 332 1138 350 1194 332 1176 b 382 1081 332 1096 349 1081 z "},"Ẁ":{"ha":950,"x_min":0,"x_max":0,"o":"m 463 825 l 469 907 l 476 825 l 663 0 l 722 0 l 899 983 l 835 983 l 696 183 l 689 78 l 676 179 l 494 983 l 446 983 l 251 179 l 239 78 l 235 185 l 117 983 l 51 983 l 201 0 l 264 0 z m 446 1078 l 503 1078 l 382 1267 l 306 1267 z "},"Ý":{"ha":606,"x_min":0,"x_max":0,"o":"m 332 0 l 332 351 l 572 983 l 501 983 l 308 461 l 299 411 l 290 461 l 106 983 l 35 983 l 264 353 l 264 0 z m 272 1072 l 329 1072 l 485 1289 l 410 1289 z "},"Ŷ":{"ha":606,"x_min":0,"x_max":0,"o":"m 332 0 l 332 351 l 572 983 l 501 983 l 308 461 l 299 411 l 290 461 l 106 983 l 35 983 l 264 353 l 264 0 z m 396 1071 l 461 1071 l 331 1257 l 279 1257 l 147 1071 l 211 1071 l 304 1207 z "},"Ÿ":{"ha":606,"x_min":0,"x_max":0,"o":"m 332 0 l 332 351 l 572 983 l 501 983 l 308 461 l 299 411 l 290 461 l 106 983 l 35 983 l 264 353 l 264 0 z m 389 1074 b 438 1129 421 1074 438 1090 b 389 1188 438 1169 422 1188 b 339 1131 356 1188 339 1169 b 389 1074 339 1089 354 1074 z m 215 1074 b 265 1129 247 1074 265 1090 b 215 1188 265 1169 249 1188 b 165 1131 183 1188 165 1169 b 215 1074 165 1089 182 1074 z "},"Ỳ":{"ha":606,"x_min":0,"x_max":0,"o":"m 332 0 l 332 351 l 572 983 l 501 983 l 308 461 l 299 411 l 290 461 l 106 983 l 35 983 l 264 353 l 264 0 z m 279 1071 l 336 1071 l 215 1260 l 139 1260 z "},"Ĳ":{"ha":833,"x_min":0,"x_max":0,"o":"m 493 0 l 528 0 b 738 233 682 0 738 67 l 738 983 l 669 983 l 669 236 b 528 64 669 111 635 64 l 493 64 z m 394 0 l 394 63 l 253 63 l 253 922 l 394 922 l 394 983 l 46 983 l 46 922 l 188 922 l 188 63 l 46 63 l 46 0 z "},"Ź":{"ha":585,"x_min":0,"x_max":0,"o":"m 532 0 l 532 65 l 126 65 l 524 924 l 524 983 l 79 983 l 79 921 l 450 921 l 49 58 l 49 0 z m 267 1079 l 324 1079 l 479 1296 l 404 1296 z "},"Ž":{"ha":585,"x_min":0,"x_max":0,"o":"m 532 0 l 532 65 l 126 65 l 524 924 l 524 983 l 79 983 l 79 921 l 450 921 l 49 58 l 49 0 z m 319 1076 l 453 1261 l 388 1261 l 296 1129 l 207 1261 l 142 1261 l 271 1076 z "},"Ż":{"ha":585,"x_min":0,"x_max":0,"o":"m 532 0 l 532 65 l 126 65 l 524 924 l 524 983 l 79 983 l 79 921 l 450 921 l 49 58 l 49 0 z m 296 1078 b 350 1139 331 1078 350 1094 b 296 1203 350 1182 332 1203 b 240 1140 260 1203 240 1183 b 296 1078 240 1094 257 1078 z "},"Þ":{"ha":640,"x_min":0,"x_max":0,"o":"m 317 756 b 510 582 450 756 510 701 l 510 443 b 319 263 510 324 446 263 l 172 263 l 172 756 z m 322 201 b 576 443 496 201 576 288 l 576 583 b 318 815 576 742 497 815 l 172 815 l 172 983 l 106 983 l 106 0 l 172 0 l 172 201 z "},"a":{"ha":650,"x_min":0,"x_max":0,"o":"m 278 46 b 131 189 182 46 131 100 l 131 199 b 192 340 131 264 157 311 b 344 413 228 369 260 385 b 494 506 422 442 474 461 l 494 328 b 278 46 494 176 419 46 z m 506 0 l 557 0 l 557 599 b 324 801 557 719 488 801 b 81 585 165 801 81 715 l 81 518 l 146 518 l 146 582 b 324 744 146 686 211 744 b 494 601 443 744 494 689 l 494 594 b 322 457 494 515 419 492 b 146 378 226 424 188 410 b 60 200 97 340 60 282 l 60 181 b 261 -12 60 57 129 -12 b 496 189 385 -12 465 67 z "},"b":{"ha":683,"x_min":0,"x_max":0,"o":"m 361 -12 b 603 282 514 -12 603 88 l 603 508 b 368 801 603 710 519 801 b 161 639 257 801 189 740 l 161 1039 l 99 1039 l 99 0 l 150 0 l 160 150 b 361 -12 183 49 247 -12 z m 347 50 b 161 285 224 50 161 140 l 161 503 b 354 743 161 644 228 743 b 536 506 474 743 536 664 l 536 285 b 347 50 536 131 475 50 z "},"c":{"ha":636,"x_min":0,"x_max":0,"o":"m 321 -14 b 568 246 482 -14 568 72 l 568 307 l 499 307 l 499 249 b 321 49 499 111 443 49 b 142 272 196 49 142 125 l 142 510 b 326 743 142 668 204 743 b 499 547 439 743 499 693 l 499 501 l 568 501 l 568 550 b 326 801 568 731 476 801 b 75 514 164 801 75 713 l 75 268 b 321 -14 75 82 157 -14 z "},"d":{"ha":679,"x_min":0,"x_max":0,"o":"m 326 49 b 142 285 201 49 142 129 l 142 499 b 331 743 142 658 208 743 b 517 501 463 743 517 644 l 517 292 b 326 49 517 149 450 49 z m 529 0 l 581 0 l 581 1039 l 517 1039 l 517 656 b 318 801 489 747 426 801 b 75 504 167 801 75 704 l 75 279 b 313 -12 75 83 160 -12 b 518 161 426 -12 493 57 z "},"e":{"ha":647,"x_min":0,"x_max":0,"o":"m 139 514 b 331 743 139 669 208 743 b 511 521 453 743 511 674 l 511 436 l 139 436 z m 578 228 l 578 268 l 510 268 l 510 224 b 329 49 510 101 439 49 b 139 264 200 49 139 122 l 139 381 l 578 381 l 578 521 b 331 801 578 703 494 801 b 75 514 169 801 75 703 l 75 260 b 329 -14 75 82 156 -14 b 578 228 489 -14 578 72 z "},"f":{"ha":376,"x_min":0,"x_max":0,"o":"m 353 728 l 353 789 l 194 789 l 194 844 b 313 999 194 974 215 999 l 353 999 l 353 1058 l 307 1058 b 131 847 175 1058 131 1014 l 131 789 l 19 789 l 19 728 l 131 728 l 131 0 l 193 0 l 194 728 z "},"g":{"ha":624,"x_min":0,"x_max":0,"o":"m 301 -269 b 594 -81 494 -269 594 -185 l 594 -76 b 392 74 594 18 533 74 l 240 74 b 121 139 157 72 121 94 b 279 215 121 183 164 215 l 311 215 b 549 431 456 215 549 286 l 549 581 b 401 783 549 714 474 771 b 369 788 389 785 381 786 b 533 932 497 797 533 840 l 533 957 l 463 957 l 463 928 b 319 807 463 853 435 822 b 250 794 297 803 268 799 b 79 574 143 768 79 699 l 79 429 b 201 242 79 324 121 265 b 58 125 104 226 58 182 b 199 17 58 60 103 21 b 51 -131 110 -7 51 -58 b 276 -269 51 -214 117 -269 z m 310 268 b 147 431 204 268 147 319 l 147 575 b 261 742 147 671 188 722 b 321 750 279 747 300 750 b 482 581 424 750 482 694 l 482 431 b 310 268 482 324 421 268 z m 281 -211 b 117 -115 167 -211 117 -171 b 328 17 117 -36 203 14 l 382 17 b 531 -81 488 17 531 -15 l 531 -85 b 308 -211 531 -157 443 -211 z "},"h":{"ha":669,"x_min":0,"x_max":0,"o":"m 161 506 b 346 742 161 647 228 742 b 510 543 461 742 510 669 l 510 0 l 576 0 l 576 550 b 363 801 576 710 507 801 b 161 636 256 801 188 739 l 161 1039 l 99 1039 l 99 0 l 161 0 z "},"i":{"ha":264,"x_min":0,"x_max":0,"o":"m 132 886 b 179 944 165 886 179 903 b 133 1004 179 986 165 1004 b 86 944 100 1004 86 986 b 132 886 86 903 97 886 z m 165 0 l 165 789 l 99 789 l 99 0 z "},"j":{"ha":267,"x_min":0,"x_max":0,"o":"m 135 886 b 182 944 168 886 182 903 b 136 1004 182 986 168 1004 b 89 944 103 1004 89 986 b 135 886 89 903 100 886 z m -6 -226 b 167 -36 131 -226 167 -185 l 167 789 l 101 789 l 101 -32 b -10 -164 101 -139 79 -164 l -42 -164 l -42 -226 z "},"k":{"ha":613,"x_min":0,"x_max":0,"o":"m 513 0 l 583 0 l 358 501 l 564 789 l 488 789 l 161 338 l 163 372 l 163 1039 l 99 1039 l 99 0 l 163 0 l 163 256 l 311 461 z "},"l":{"ha":265,"x_min":0,"x_max":0,"o":"m 165 0 l 165 1039 l 100 1039 l 100 0 z "},"m":{"ha":1001,"x_min":0,"x_max":0,"o":"m 164 514 b 325 744 164 650 214 744 b 471 556 433 744 471 669 l 471 0 l 536 0 l 536 554 b 690 744 536 656 582 744 b 842 549 797 744 842 674 l 842 0 l 908 0 l 908 557 b 707 804 908 717 842 804 b 522 651 608 804 546 746 b 342 804 504 746 450 804 b 158 651 244 804 183 746 l 150 789 l 99 789 l 99 0 l 164 0 z "},"n":{"ha":669,"x_min":0,"x_max":0,"o":"m 164 506 b 349 742 164 653 228 742 b 511 540 465 742 511 669 l 511 0 l 578 0 l 578 547 b 363 801 578 713 510 801 b 160 636 251 801 183 738 l 150 789 l 99 789 l 99 0 l 164 0 z "},"o":{"ha":660,"x_min":0,"x_max":0,"o":"m 328 -14 b 579 261 486 -14 579 76 l 579 517 b 328 801 579 713 486 801 b 75 517 169 801 75 713 l 75 261 b 328 -14 75 76 165 -14 z m 328 49 b 142 265 203 49 142 125 l 142 514 b 328 743 142 671 208 743 b 513 514 447 743 513 669 l 513 265 b 328 49 513 125 453 49 z "},"p":{"ha":681,"x_min":0,"x_max":0,"o":"m 347 49 b 161 282 224 49 161 139 l 161 499 b 354 743 161 644 226 743 b 536 503 474 743 536 667 l 536 281 b 347 49 536 129 474 49 z m 361 -12 b 603 279 514 -12 603 86 l 603 506 b 367 801 603 711 518 801 b 158 635 253 801 185 736 l 149 789 l 99 789 l 99 -274 l 161 -274 l 161 142 b 361 -12 186 44 250 -12 z "},"q":{"ha":678,"x_min":0,"x_max":0,"o":"m 579 -274 l 579 789 l 531 789 l 519 640 b 318 801 496 739 435 801 b 75 503 165 801 75 707 l 75 272 b 313 -12 75 79 161 -12 b 517 157 424 -12 490 51 l 517 -274 z m 326 47 b 142 279 201 47 142 128 l 142 500 b 331 743 142 663 210 743 b 517 497 463 743 517 644 l 517 289 b 326 47 517 146 449 47 z "},"r":{"ha":424,"x_min":0,"x_max":0,"o":"m 163 0 l 163 476 b 361 722 163 643 213 722 l 392 722 l 392 790 l 369 790 b 160 638 244 790 182 743 l 149 789 l 99 789 l 99 0 z "},"s":{"ha":604,"x_min":0,"x_max":0,"o":"m 306 -14 b 539 206 464 -14 539 69 l 539 225 b 329 435 539 358 432 399 b 144 592 235 468 144 499 l 144 607 b 299 744 144 685 196 744 b 458 604 406 744 458 692 l 458 546 l 525 546 l 525 603 b 300 801 525 728 446 801 b 79 606 157 801 79 721 l 79 589 b 286 383 79 460 185 419 b 474 222 382 350 474 319 l 474 206 b 307 47 474 106 421 47 b 133 207 189 47 133 111 l 133 276 l 64 276 l 64 204 b 306 -14 64 65 143 -14 z "},"t":{"ha":404,"x_min":0,"x_max":0,"o":"m 365 64 l 329 64 b 193 232 222 64 193 90 l 193 728 l 365 728 l 365 789 l 193 789 l 193 950 l 143 950 b 136 846 142 922 139 861 b 88 789 129 799 124 792 b 24 785 81 786 33 785 l 24 728 l 129 728 l 129 228 b 318 0 129 44 174 0 l 365 0 z "},"u":{"ha":650,"x_min":0,"x_max":0,"o":"m 499 0 l 551 0 l 551 789 l 485 789 l 485 283 b 314 49 485 138 421 49 b 161 246 206 49 161 121 l 161 789 l 94 789 l 94 238 b 299 -12 94 78 158 -12 b 490 153 400 -12 465 50 z "},"v":{"ha":615,"x_min":0,"x_max":0,"o":"m 339 0 l 579 789 l 511 789 l 315 126 l 307 81 l 299 126 l 104 789 l 38 789 l 274 0 z "},"w":{"ha":881,"x_min":0,"x_max":0,"o":"m 424 617 l 436 701 l 449 618 l 603 0 l 665 0 l 839 789 l 774 789 l 643 163 l 631 72 l 617 165 l 458 789 l 417 789 l 249 164 l 232 72 l 222 164 l 107 789 l 42 789 l 193 0 l 258 0 z "},"x":{"ha":574,"x_min":0,"x_max":0,"o":"m 279 343 l 289 376 l 299 343 l 474 0 l 547 0 l 326 419 l 528 789 l 454 789 l 299 492 l 289 461 l 279 492 l 126 789 l 53 789 l 251 419 l 26 0 l 101 0 z "},"y":{"ha":588,"x_min":0,"x_max":0,"o":"m 101 -218 b 319 -42 238 -218 271 -186 l 553 789 l 485 789 l 315 163 l 303 82 l 288 160 l 107 789 l 39 789 l 269 13 l 258 -33 b 97 -156 222 -137 196 -156 l 63 -156 l 63 -218 z "},"z":{"ha":547,"x_min":0,"x_max":0,"o":"m 501 0 l 501 63 l 121 63 l 503 733 l 503 789 l 68 789 l 68 729 l 431 729 l 44 53 l 44 0 z "},"á":{"ha":650,"x_min":0,"x_max":0,"o":"m 278 46 b 131 189 182 46 131 100 l 131 199 b 192 340 131 264 157 311 b 344 413 228 369 260 385 b 494 506 422 442 474 461 l 494 328 b 278 46 494 176 419 46 z m 506 0 l 557 0 l 557 599 b 324 801 557 719 488 801 b 81 585 165 801 81 715 l 81 518 l 146 518 l 146 582 b 324 744 146 686 211 744 b 494 601 443 744 494 689 l 494 594 b 322 457 494 515 419 492 b 146 378 226 424 188 410 b 60 200 97 340 60 282 l 60 181 b 261 -12 60 57 129 -12 b 496 189 385 -12 465 67 z m 293 896 l 350 896 l 506 1113 l 431 1113 z "},"ă":{"ha":650,"x_min":0,"x_max":0,"o":"m 278 46 b 131 189 182 46 131 100 l 131 199 b 192 340 131 264 157 311 b 344 413 228 369 260 385 b 494 506 422 442 474 461 l 494 328 b 278 46 494 176 419 46 z m 506 0 l 557 0 l 557 599 b 324 801 557 719 488 801 b 81 585 165 801 81 715 l 81 518 l 146 518 l 146 582 b 324 744 146 686 211 744 b 494 601 443 744 494 689 l 494 594 b 322 457 494 515 419 492 b 146 378 226 424 188 410 b 60 200 97 340 60 282 l 60 181 b 261 -12 60 57 129 -12 b 496 189 385 -12 465 67 z m 325 892 b 501 1075 443 892 497 967 l 447 1075 b 326 942 444 994 406 943 b 208 1075 242 943 211 994 l 154 1075 b 325 892 157 965 200 892 z "},"â":{"ha":650,"x_min":0,"x_max":0,"o":"m 278 46 b 131 189 182 46 131 100 l 131 199 b 192 340 131 264 157 311 b 344 413 228 369 260 385 b 494 506 422 442 474 461 l 494 328 b 278 46 494 176 419 46 z m 506 0 l 557 0 l 557 599 b 324 801 557 719 488 801 b 81 585 165 801 81 715 l 81 518 l 146 518 l 146 582 b 324 744 146 686 211 744 b 494 601 443 744 494 689 l 494 594 b 322 457 494 515 419 492 b 146 378 226 424 188 410 b 60 200 97 340 60 282 l 60 181 b 261 -12 60 57 129 -12 b 496 189 385 -12 465 67 z m 421 894 l 486 894 l 356 1081 l 304 1081 l 172 894 l 236 894 l 329 1031 z "},"ä":{"ha":650,"x_min":0,"x_max":0,"o":"m 278 46 b 131 189 182 46 131 100 l 131 199 b 192 340 131 264 157 311 b 344 413 228 369 260 385 b 494 506 422 442 474 461 l 494 328 b 278 46 494 176 419 46 z m 506 0 l 557 0 l 557 599 b 324 801 557 719 488 801 b 81 585 165 801 81 715 l 81 518 l 146 518 l 146 582 b 324 744 146 686 211 744 b 494 601 443 744 494 689 l 494 594 b 322 457 494 515 419 492 b 146 378 226 424 188 410 b 60 200 97 340 60 282 l 60 181 b 261 -12 60 57 129 -12 b 496 189 385 -12 465 67 z m 413 897 b 461 953 444 897 461 914 b 413 1011 461 993 446 1011 b 363 954 379 1011 363 993 b 413 897 363 913 378 897 z m 239 897 b 289 953 271 897 289 914 b 239 1011 289 993 272 1011 b 189 954 207 1011 189 993 b 239 897 189 913 206 897 z "},"à":{"ha":650,"x_min":0,"x_max":0,"o":"m 278 46 b 131 189 182 46 131 100 l 131 199 b 192 340 131 264 157 311 b 344 413 228 369 260 385 b 494 506 422 442 474 461 l 494 328 b 278 46 494 176 419 46 z m 506 0 l 557 0 l 557 599 b 324 801 557 719 488 801 b 81 585 165 801 81 715 l 81 518 l 146 518 l 146 582 b 324 744 146 686 211 744 b 494 601 443 744 494 689 l 494 594 b 322 457 494 515 419 492 b 146 378 226 424 188 410 b 60 200 97 340 60 282 l 60 181 b 261 -12 60 57 129 -12 b 496 189 385 -12 465 67 z m 303 896 l 360 896 l 239 1085 l 163 1085 z "},"ā":{"ha":650,"x_min":0,"x_max":0,"o":"m 278 46 b 131 189 182 46 131 100 l 131 199 b 192 340 131 264 157 311 b 344 413 228 369 260 385 b 494 506 422 442 474 461 l 494 328 b 278 46 494 176 419 46 z m 506 0 l 557 0 l 557 599 b 324 801 557 719 488 801 b 81 585 165 801 81 715 l 81 518 l 146 518 l 146 582 b 324 744 146 686 211 744 b 494 601 443 744 494 689 l 494 594 b 322 457 494 515 419 492 b 146 378 226 424 188 410 b 60 200 97 340 60 282 l 60 181 b 261 -12 60 57 129 -12 b 496 189 385 -12 465 67 z m 183 915 l 472 915 l 472 971 l 183 971 z "},"ą":{"ha":650,"x_min":0,"x_max":0,"o":"m 278 46 b 131 189 182 46 131 100 l 131 199 b 192 340 131 264 157 311 b 344 413 228 369 260 385 b 494 506 422 442 474 461 l 494 328 b 278 46 494 176 419 46 z m 675 -139 l 613 -139 b 518 -203 597 -181 565 -203 b 438 -136 468 -203 438 -176 b 557 0 438 -93 469 -56 l 557 599 b 324 801 557 719 488 801 b 81 585 165 801 81 715 l 81 518 l 146 518 l 146 582 b 324 744 146 686 211 744 b 494 601 443 744 494 689 l 494 594 b 322 457 494 515 419 492 b 146 378 226 424 188 410 b 60 200 97 340 60 282 l 60 181 b 261 -12 60 57 129 -12 b 496 189 385 -12 465 67 l 504 21 b 381 -139 417 -32 381 -85 b 515 -253 381 -210 429 -253 b 675 -139 599 -253 650 -214 z "},"å":{"ha":650,"x_min":0,"x_max":0,"o":"m 278 46 b 131 189 182 46 131 100 l 131 199 b 192 340 131 264 157 311 b 344 413 228 369 260 385 b 494 506 422 442 474 461 l 494 328 b 278 46 494 176 419 46 z m 506 0 l 557 0 l 557 599 b 324 801 557 719 488 801 b 81 585 165 801 81 715 l 81 518 l 146 518 l 146 582 b 324 744 146 686 211 744 b 494 601 443 744 494 689 l 494 594 b 322 457 494 515 419 492 b 146 378 226 424 188 410 b 60 200 97 340 60 282 l 60 181 b 261 -12 60 57 129 -12 b 496 189 385 -12 465 67 z m 324 896 b 447 1017 397 896 447 942 b 324 1138 447 1092 399 1138 b 203 1017 253 1138 203 1089 b 324 896 203 943 251 896 z m 324 946 b 256 1017 282 946 256 975 b 324 1088 256 1060 283 1088 b 394 1017 367 1088 394 1060 b 324 946 394 972 364 946 z "},"ǻ":{"ha":650,"x_min":0,"x_max":0,"o":"m 278 46 b 131 189 182 46 131 100 l 131 199 b 192 340 131 264 157 311 b 344 413 228 369 260 385 b 494 506 422 442 474 461 l 494 328 b 278 46 494 176 419 46 z m 506 0 l 557 0 l 557 599 b 324 801 557 719 488 801 b 81 585 165 801 81 715 l 81 518 l 146 518 l 146 582 b 324 744 146 686 211 744 b 494 601 443 744 494 689 l 494 594 b 322 457 494 515 419 492 b 146 378 226 424 188 410 b 60 200 97 340 60 282 l 60 181 b 261 -12 60 57 129 -12 b 496 189 385 -12 465 67 z m 325 874 b 449 994 399 874 449 919 b 325 1115 449 1069 400 1115 b 204 994 254 1115 204 1067 b 325 874 204 921 253 874 z m 325 924 b 257 994 283 924 257 953 b 325 1065 257 1038 285 1065 b 396 994 368 1065 396 1038 b 325 924 396 950 365 924 z m 303 1186 l 360 1186 l 515 1403 l 440 1403 z "},"ã":{"ha":650,"x_min":0,"x_max":0,"o":"m 278 46 b 131 189 182 46 131 100 l 131 199 b 192 340 131 264 157 311 b 344 413 228 369 260 385 b 494 506 422 442 474 461 l 494 328 b 278 46 494 176 419 46 z m 506 0 l 557 0 l 557 599 b 324 801 557 719 488 801 b 81 585 165 801 81 715 l 81 518 l 146 518 l 146 582 b 324 744 146 686 211 744 b 494 601 443 744 494 689 l 494 594 b 322 457 494 515 419 492 b 146 378 226 424 188 410 b 60 200 97 340 60 282 l 60 181 b 261 -12 60 57 129 -12 b 496 189 385 -12 465 67 z m 138 899 l 188 899 b 236 974 188 950 200 974 b 414 896 290 974 336 896 b 514 1024 485 896 514 944 l 464 1024 b 414 949 464 968 447 949 b 235 1026 363 949 315 1026 b 138 899 167 1026 138 981 z "},"æ":{"ha":1067,"x_min":0,"x_max":0,"o":"m 557 514 b 749 743 557 669 626 743 b 932 521 871 743 932 674 l 932 435 l 557 435 z m 276 46 b 131 190 182 46 131 99 l 131 200 b 192 340 131 264 156 311 b 344 413 228 369 260 385 b 494 506 422 442 474 461 l 494 328 b 276 46 494 176 419 46 z m 997 224 l 997 268 l 929 268 l 929 224 b 747 49 929 100 856 49 b 557 267 618 49 557 125 l 557 378 l 997 378 l 997 521 b 750 801 997 707 913 801 b 539 679 646 801 575 758 b 324 801 514 754 450 801 b 81 586 165 801 81 717 l 81 518 l 146 518 l 146 582 b 324 746 146 688 211 746 b 494 603 443 746 494 690 l 494 593 b 322 457 494 517 419 492 b 144 378 226 424 186 410 b 60 201 96 340 60 283 l 60 181 b 263 -12 60 57 131 -12 b 503 171 386 -12 469 57 b 746 -14 529 58 608 -14 b 997 224 901 -14 997 69 z "},"ǽ":{"ha":1067,"x_min":0,"x_max":0,"o":"m 557 514 b 749 743 557 669 626 743 b 932 521 871 743 932 674 l 932 435 l 557 435 z m 276 46 b 131 190 182 46 131 99 l 131 200 b 192 340 131 264 156 311 b 344 413 228 369 260 385 b 494 506 422 442 474 461 l 494 328 b 276 46 494 176 419 46 z m 997 224 l 997 268 l 929 268 l 929 224 b 747 49 929 100 856 49 b 557 267 618 49 557 125 l 557 378 l 997 378 l 997 521 b 750 801 997 707 913 801 b 539 679 646 801 575 758 b 324 801 514 754 450 801 b 81 586 165 801 81 717 l 81 518 l 146 518 l 146 582 b 324 746 146 688 211 746 b 494 603 443 746 494 690 l 494 593 b 322 457 494 517 419 492 b 144 378 226 424 186 410 b 60 201 96 340 60 283 l 60 181 b 263 -12 60 57 131 -12 b 503 171 386 -12 469 57 b 746 -14 529 58 608 -14 b 997 224 901 -14 997 69 z m 511 874 l 568 874 l 724 1090 l 649 1090 z "},"ć":{"ha":636,"x_min":0,"x_max":0,"o":"m 321 -14 b 568 246 482 -14 568 72 l 568 307 l 499 307 l 499 249 b 321 49 499 111 443 49 b 142 272 196 49 142 125 l 142 510 b 326 743 142 668 204 743 b 499 547 439 743 499 693 l 499 501 l 568 501 l 568 550 b 326 801 568 731 476 801 b 75 514 164 801 75 713 l 75 268 b 321 -14 75 82 157 -14 z m 299 896 l 356 896 l 511 1113 l 436 1113 z "},"č":{"ha":636,"x_min":0,"x_max":0,"o":"m 321 -14 b 568 246 482 -14 568 72 l 568 307 l 499 307 l 499 249 b 321 49 499 111 443 49 b 142 272 196 49 142 125 l 142 510 b 326 743 142 668 204 743 b 499 547 439 743 499 693 l 499 501 l 568 501 l 568 550 b 326 801 568 731 476 801 b 75 514 164 801 75 713 l 75 268 b 321 -14 75 82 157 -14 z m 351 893 l 485 1078 l 419 1078 l 328 946 l 239 1078 l 174 1078 l 303 893 z "},"ç":{"ha":636,"x_min":0,"x_max":0,"o":"m 336 -294 b 482 -181 426 -294 482 -251 b 356 -83 482 -118 439 -85 l 356 -12 b 568 246 494 0 568 85 l 568 307 l 499 307 l 499 249 b 321 49 499 111 443 49 b 142 272 196 49 142 125 l 142 510 b 326 743 142 668 204 743 b 499 547 439 743 499 693 l 499 501 l 568 501 l 568 550 b 326 801 568 731 476 801 b 75 514 164 801 75 713 l 75 268 b 301 -14 75 89 150 -6 l 301 -128 l 333 -128 b 425 -183 400 -128 425 -143 b 336 -246 425 -226 392 -246 b 243 -178 283 -246 249 -225 l 182 -178 b 336 -294 193 -253 239 -294 z "},"ĉ":{"ha":636,"x_min":0,"x_max":0,"o":"m 321 -14 b 568 246 482 -14 568 72 l 568 307 l 499 307 l 499 249 b 321 49 499 111 443 49 b 142 272 196 49 142 125 l 142 510 b 326 743 142 668 204 743 b 499 547 439 743 499 693 l 499 501 l 568 501 l 568 550 b 326 801 568 731 476 801 b 75 514 164 801 75 713 l 75 268 b 321 -14 75 82 157 -14 z m 422 894 l 488 894 l 357 1081 l 306 1081 l 174 894 l 238 894 l 331 1031 z "},"ċ":{"ha":636,"x_min":0,"x_max":0,"o":"m 321 -14 b 568 246 482 -14 568 72 l 568 307 l 499 307 l 499 249 b 321 49 499 111 443 49 b 142 272 196 49 142 125 l 142 510 b 326 743 142 668 204 743 b 499 547 439 743 499 693 l 499 501 l 568 501 l 568 550 b 326 801 568 731 476 801 b 75 514 164 801 75 713 l 75 268 b 321 -14 75 82 157 -14 z m 328 894 b 382 956 363 894 382 911 b 328 1019 382 999 364 1019 b 272 957 292 1019 272 1000 b 328 894 272 911 289 894 z "},"ď":{"ha":679,"x_min":0,"x_max":0,"o":"m 326 49 b 142 285 201 49 142 129 l 142 499 b 331 743 142 658 208 743 b 517 501 463 743 517 644 l 517 292 b 326 49 517 149 450 49 z m 529 0 l 581 0 l 581 1039 l 517 1039 l 517 656 b 318 801 489 747 426 801 b 75 504 167 801 75 704 l 75 279 b 313 -12 75 83 160 -12 b 518 161 426 -12 493 57 z m 663 917 l 711 917 l 779 1115 l 714 1115 z "},"đ":{"ha":679,"x_min":0,"x_max":0,"o":"m 326 49 b 142 285 201 49 142 129 l 142 499 b 331 743 142 658 208 743 b 517 501 463 743 517 644 l 517 292 b 326 49 517 149 450 49 z m 518 161 l 529 0 l 581 0 l 581 892 l 664 892 l 664 938 l 581 938 l 581 1039 l 517 1039 l 517 938 l 388 938 l 388 892 l 517 892 l 517 656 b 318 801 489 747 426 801 b 75 504 167 801 75 704 l 75 279 b 313 -12 75 83 160 -12 b 518 161 426 -12 493 57 z "},"ð":{"ha":660,"x_min":0,"x_max":0,"o":"m 328 -14 b 581 261 492 -14 581 82 l 581 535 b 404 968 581 708 522 850 l 532 1068 l 454 1068 l 368 1001 b 283 1068 343 1025 314 1047 l 183 1068 b 321 965 236 1033 282 1000 l 185 860 l 264 860 l 357 932 b 508 669 440 851 489 767 b 314 794 476 749 411 794 b 75 531 169 794 75 704 l 75 250 b 328 -14 75 82 165 -14 z m 328 49 b 143 253 204 49 143 128 l 143 531 b 329 735 143 663 213 735 b 514 531 453 735 514 649 l 514 261 b 328 49 514 125 454 49 z "},"é":{"ha":647,"x_min":0,"x_max":0,"o":"m 139 514 b 331 743 139 669 208 743 b 511 521 453 743 511 674 l 511 436 l 139 436 z m 578 228 l 578 268 l 510 268 l 510 224 b 329 49 510 101 439 49 b 139 264 200 49 139 122 l 139 381 l 578 381 l 578 521 b 331 801 578 703 494 801 b 75 514 169 801 75 703 l 75 260 b 329 -14 75 82 156 -14 b 578 228 489 -14 578 72 z m 300 897 l 357 897 l 513 1114 l 438 1114 z "},"ĕ":{"ha":647,"x_min":0,"x_max":0,"o":"m 139 514 b 331 743 139 669 208 743 b 511 521 453 743 511 674 l 511 436 l 139 436 z m 578 228 l 578 268 l 510 268 l 510 224 b 329 49 510 101 439 49 b 139 264 200 49 139 122 l 139 381 l 578 381 l 578 521 b 331 801 578 703 494 801 b 75 514 169 801 75 703 l 75 260 b 329 -14 75 82 156 -14 b 578 228 489 -14 578 72 z m 335 893 b 511 1076 453 893 507 968 l 457 1076 b 336 943 454 996 415 944 b 218 1076 251 944 221 996 l 164 1076 b 335 893 167 967 210 893 z "},"ě":{"ha":647,"x_min":0,"x_max":0,"o":"m 139 514 b 331 743 139 669 208 743 b 511 521 453 743 511 674 l 511 436 l 139 436 z m 578 228 l 578 268 l 510 268 l 510 224 b 329 49 510 101 439 49 b 139 264 200 49 139 122 l 139 381 l 578 381 l 578 521 b 331 801 578 703 494 801 b 75 514 169 801 75 703 l 75 260 b 329 -14 75 82 156 -14 b 578 228 489 -14 578 72 z m 358 894 l 492 1079 l 426 1079 l 335 947 l 246 1079 l 181 1079 l 310 894 z "},"ê":{"ha":647,"x_min":0,"x_max":0,"o":"m 139 514 b 331 743 139 669 208 743 b 511 521 453 743 511 674 l 511 436 l 139 436 z m 578 228 l 578 268 l 510 268 l 510 224 b 329 49 510 101 439 49 b 139 264 200 49 139 122 l 139 381 l 578 381 l 578 521 b 331 801 578 703 494 801 b 75 514 169 801 75 703 l 75 260 b 329 -14 75 82 156 -14 b 578 228 489 -14 578 72 z m 425 896 l 490 896 l 360 1082 l 308 1082 l 176 896 l 240 896 l 333 1032 z "},"ë":{"ha":647,"x_min":0,"x_max":0,"o":"m 139 514 b 331 743 139 669 208 743 b 511 521 453 743 511 674 l 511 436 l 139 436 z m 578 228 l 578 268 l 510 268 l 510 224 b 329 49 510 101 439 49 b 139 264 200 49 139 122 l 139 381 l 578 381 l 578 521 b 331 801 578 703 494 801 b 75 514 169 801 75 703 l 75 260 b 329 -14 75 82 156 -14 b 578 228 489 -14 578 72 z m 417 899 b 465 954 449 899 465 915 b 417 1013 465 994 450 1013 b 367 956 383 1013 367 994 b 417 899 367 914 382 899 z m 243 899 b 293 954 275 899 293 915 b 243 1013 293 994 276 1013 b 193 956 211 1013 193 994 b 243 899 193 914 210 899 z "},"ė":{"ha":647,"x_min":0,"x_max":0,"o":"m 139 514 b 331 743 139 669 208 743 b 511 521 453 743 511 674 l 511 436 l 139 436 z m 578 228 l 578 268 l 510 268 l 510 224 b 329 49 510 101 439 49 b 139 264 200 49 139 122 l 139 381 l 578 381 l 578 521 b 331 801 578 703 494 801 b 75 514 169 801 75 703 l 75 260 b 329 -14 75 82 156 -14 b 578 228 489 -14 578 72 z m 333 896 b 388 957 368 896 388 913 b 333 1021 388 1000 369 1021 b 278 958 297 1021 278 1001 b 333 896 278 913 294 896 z "},"è":{"ha":647,"x_min":0,"x_max":0,"o":"m 139 514 b 331 743 139 669 208 743 b 511 521 453 743 511 674 l 511 436 l 139 436 z m 578 228 l 578 268 l 510 268 l 510 224 b 329 49 510 101 439 49 b 139 264 200 49 139 122 l 139 381 l 578 381 l 578 521 b 331 801 578 703 494 801 b 75 514 169 801 75 703 l 75 260 b 329 -14 75 82 156 -14 b 578 228 489 -14 578 72 z m 311 897 l 368 897 l 247 1086 l 171 1086 z "},"ē":{"ha":647,"x_min":0,"x_max":0,"o":"m 139 514 b 331 743 139 669 208 743 b 511 521 453 743 511 674 l 511 436 l 139 436 z m 578 228 l 578 268 l 510 268 l 510 224 b 329 49 510 101 439 49 b 139 264 200 49 139 122 l 139 381 l 578 381 l 578 521 b 331 801 578 703 494 801 b 75 514 169 801 75 703 l 75 260 b 329 -14 75 82 156 -14 b 578 228 489 -14 578 72 z m 192 917 l 481 917 l 481 972 l 192 972 z "},"ę":{"ha":647,"x_min":0,"x_max":0,"o":"m 422 -237 b 582 -124 506 -237 557 -199 l 519 -124 b 425 -187 504 -165 472 -187 b 344 -121 375 -187 344 -161 b 456 10 344 -79 375 -43 b 578 228 535 46 578 119 l 578 268 l 510 268 l 510 224 b 329 49 510 101 439 49 b 139 264 200 49 139 122 l 139 381 l 578 381 l 578 521 b 331 801 578 703 494 801 b 75 514 169 801 75 703 l 75 260 b 329 -14 75 82 156 -14 l 343 -14 b 288 -124 304 -50 288 -86 b 422 -237 288 -194 336 -237 z m 139 514 b 331 743 139 669 208 743 b 511 521 453 743 511 674 l 511 436 l 139 436 z "},"ğ":{"ha":624,"x_min":0,"x_max":0,"o":"m 311 913 b 488 1096 429 913 483 988 l 433 1096 b 313 963 431 1015 392 964 b 194 1096 228 964 197 1015 l 140 1096 b 311 913 143 986 186 913 z m 301 -269 b 594 -81 494 -269 594 -185 l 594 -76 b 392 74 594 18 533 74 l 240 74 b 121 139 157 72 121 94 b 279 215 121 183 164 215 l 311 215 b 549 431 456 215 549 286 l 549 581 b 401 783 549 714 474 771 b 372 788 390 785 382 786 b 533 872 497 793 533 810 l 533 892 l 463 892 l 463 881 b 319 807 463 825 435 822 b 250 794 297 803 268 799 b 79 574 143 768 79 699 l 79 429 b 201 242 79 324 121 265 b 58 125 104 226 58 182 b 199 17 58 60 103 21 b 51 -131 110 -7 51 -58 b 276 -269 51 -214 117 -269 z m 310 268 b 147 431 204 268 147 319 l 147 575 b 261 742 147 671 188 722 b 321 750 279 747 300 750 b 482 581 424 750 482 694 l 482 431 b 310 268 482 324 421 268 z m 281 -211 b 117 -115 167 -211 117 -171 b 328 17 117 -36 203 14 l 382 17 b 531 -81 488 17 531 -15 l 531 -85 b 308 -211 531 -157 443 -211 z "},"ĝ":{"ha":624,"x_min":0,"x_max":0,"o":"m 397 936 l 463 936 l 332 1122 l 281 1122 l 149 936 l 213 936 l 306 1072 z m 301 -269 b 594 -81 494 -269 594 -185 l 594 -76 b 392 74 594 18 533 74 l 240 74 b 121 139 157 72 121 94 b 279 215 121 183 164 215 l 311 215 b 549 431 456 215 549 286 l 549 581 b 401 783 549 714 474 771 b 372 788 390 785 382 786 b 533 872 497 793 533 810 l 533 892 l 463 892 l 463 881 b 319 807 463 825 435 822 b 250 794 297 803 268 799 b 79 574 143 768 79 699 l 79 429 b 201 242 79 324 121 265 b 58 125 104 226 58 182 b 199 17 58 60 103 21 b 51 -131 110 -7 51 -58 b 276 -269 51 -214 117 -269 z m 310 268 b 147 431 204 268 147 319 l 147 575 b 261 742 147 671 188 722 b 321 750 279 747 300 750 b 482 581 424 750 482 694 l 482 431 b 310 268 482 324 421 268 z m 281 -211 b 117 -115 167 -211 117 -171 b 328 17 117 -36 203 14 l 382 17 b 531 -81 488 17 531 -15 l 531 -85 b 308 -211 531 -157 443 -211 z "},"ģ":{"ha":624,"x_min":0,"x_max":0,"o":"m 321 904 b 372 963 354 904 372 922 b 331 1013 372 1004 356 1013 b 314 1008 324 1013 318 1011 b 376 1108 319 1056 342 1089 l 365 1144 b 267 986 303 1117 267 1060 b 321 904 267 926 285 904 z m 301 -269 b 594 -81 494 -269 594 -185 l 594 -76 b 392 74 594 18 533 74 l 240 74 b 121 139 157 72 121 94 b 279 215 121 183 164 215 l 311 215 b 549 431 456 215 549 286 l 549 581 b 401 783 549 714 474 771 b 372 788 390 785 382 786 b 533 872 497 793 533 810 l 533 892 l 463 892 l 463 881 b 319 807 463 825 435 822 b 250 794 297 803 268 799 b 79 574 143 768 79 699 l 79 429 b 201 242 79 324 121 265 b 58 125 104 226 58 182 b 199 17 58 60 103 21 b 51 -131 110 -7 51 -58 b 276 -269 51 -214 117 -269 z m 310 268 b 147 431 204 268 147 319 l 147 575 b 261 742 147 671 188 722 b 321 750 279 747 300 750 b 482 581 424 750 482 694 l 482 431 b 310 268 482 324 421 268 z m 281 -211 b 117 -115 167 -211 117 -171 b 328 17 117 -36 203 14 l 382 17 b 531 -81 488 17 531 -15 l 531 -85 b 308 -211 531 -157 443 -211 z "},"ġ":{"ha":624,"x_min":0,"x_max":0,"o":"m 319 908 b 374 969 354 908 374 925 b 319 1033 374 1013 356 1033 b 264 971 283 1033 264 1014 b 319 908 264 925 281 908 z m 301 -269 b 594 -81 494 -269 594 -185 l 594 -76 b 392 74 594 18 533 74 l 240 74 b 121 139 157 72 121 94 b 279 215 121 183 164 215 l 311 215 b 549 431 456 215 549 286 l 549 581 b 401 783 549 714 474 771 b 372 788 390 785 382 786 b 533 872 497 793 533 810 l 533 892 l 463 892 l 463 881 b 319 807 463 825 435 822 b 250 794 297 803 268 799 b 79 574 143 768 79 699 l 79 429 b 201 242 79 324 121 265 b 58 125 104 226 58 182 b 199 17 58 60 103 21 b 51 -131 110 -7 51 -58 b 276 -269 51 -214 117 -269 z m 310 268 b 147 431 204 268 147 319 l 147 575 b 261 742 147 671 188 722 b 321 750 279 747 300 750 b 482 581 424 750 482 694 l 482 431 b 310 268 482 324 421 268 z m 281 -211 b 117 -115 167 -211 117 -171 b 328 17 117 -36 203 14 l 382 17 b 531 -81 488 17 531 -15 l 531 -85 b 308 -211 531 -157 443 -211 z "},"ß":{"ha":699,"x_min":0,"x_max":0,"o":"m 388 -4 b 633 254 557 -4 633 89 l 633 317 b 467 550 633 457 578 526 b 606 760 558 578 606 646 l 606 811 b 354 1047 606 965 515 1047 b 99 803 193 1047 99 965 l 99 0 l 164 0 l 164 797 b 354 988 164 929 232 988 b 540 808 474 988 540 929 l 540 758 b 353 578 540 636 472 578 l 318 578 l 318 517 l 356 517 b 565 315 494 517 565 463 l 565 260 b 382 60 565 124 496 60 b 307 65 346 60 319 63 l 307 3 b 388 -4 318 0 353 -4 z "},"ħ":{"ha":669,"x_min":0,"x_max":0,"o":"m 161 506 b 346 742 161 647 228 742 b 510 543 461 742 510 669 l 510 0 l 576 0 l 576 550 b 363 801 576 710 507 801 b 161 636 256 801 188 739 l 161 892 l 290 892 l 290 939 l 161 939 l 161 1039 l 99 1039 l 99 939 l 25 939 l 25 892 l 99 892 l 99 0 l 161 0 z "},"ĥ":{"ha":669,"x_min":0,"x_max":0,"o":"m 161 506 b 346 742 161 647 228 742 b 510 543 461 742 510 669 l 510 0 l 576 0 l 576 550 b 363 801 576 710 507 801 b 161 636 256 801 188 739 l 161 1039 l 99 1039 l 99 0 l 161 0 z m 222 1133 l 288 1133 l 157 1319 l 106 1319 l -26 1133 l 38 1133 l 131 1269 z "},"í":{"ha":264,"x_min":0,"x_max":0,"o":"m 165 0 l 165 789 l 99 789 l 99 0 z m 106 890 l 163 890 l 318 1107 l 243 1107 z "},"ĭ":{"ha":264,"x_min":0,"x_max":0,"o":"m 165 0 l 165 789 l 99 789 l 99 0 z m 129 879 b 306 1063 247 879 301 954 l 251 1063 b 131 929 249 982 210 931 b 13 1063 46 931 15 982 l -42 1063 b 129 879 -39 953 4 879 z "},"î":{"ha":264,"x_min":0,"x_max":0,"o":"m 165 0 l 165 789 l 99 789 l 99 0 z m 224 882 l 289 882 l 158 1068 l 107 1068 l -25 882 l 39 882 l 132 1018 z "},"ï":{"ha":264,"x_min":0,"x_max":0,"o":"m 165 0 l 165 789 l 99 789 l 99 0 z m 215 885 b 264 940 247 885 264 901 b 215 999 264 981 249 999 b 165 942 182 999 165 981 b 215 885 165 900 181 885 z m 42 885 b 92 940 74 885 92 901 b 42 999 92 981 75 999 b -8 942 10 999 -8 981 b 42 885 -8 900 8 885 z "},"ì":{"ha":264,"x_min":0,"x_max":0,"o":"m 165 0 l 165 789 l 99 789 l 99 0 z m 104 883 l 161 883 l 40 1072 l -36 1072 z "},"ī":{"ha":264,"x_min":0,"x_max":0,"o":"m 165 0 l 165 789 l 99 789 l 99 0 z m -12 903 l 276 903 l 276 958 l -12 958 z "},"į":{"ha":264,"x_min":0,"x_max":0,"o":"m 132 886 b 179 944 165 886 179 903 b 133 1004 179 986 165 1004 b 86 944 100 1004 86 986 b 132 886 86 903 97 886 z m 283 -139 l 221 -139 b 126 -203 206 -181 174 -203 b 46 -136 76 -203 46 -176 b 165 0 46 -93 78 -56 l 165 789 l 99 789 l 99 13 b -11 -139 21 -37 -11 -87 b 124 -253 -11 -210 38 -253 b 283 -139 207 -253 258 -214 z "},"ĩ":{"ha":264,"x_min":0,"x_max":0,"o":"m 165 0 l 165 789 l 99 789 l 99 0 z m -56 886 l -6 886 b 43 961 -6 938 7 961 b 221 883 97 961 143 883 b 321 1011 292 883 321 932 l 271 1011 b 221 936 271 956 254 936 b 42 1014 169 936 122 1014 b -56 886 -26 1014 -56 968 z "},"ı":{"ha":264,"x_min":0,"x_max":0,"o":"m 165 0 l 165 789 l 99 789 l 99 0 z "},"ĵ":{"ha":267,"x_min":0,"x_max":0,"o":"m -42 -226 l -6 -226 b 167 -36 131 -226 167 -185 l 167 789 l 101 789 l 101 -32 b -10 -164 101 -139 79 -164 l -42 -164 z m 226 882 l 292 882 l 161 1068 l 110 1068 l -22 882 l 42 882 l 135 1018 z "},"ȷ":{"ha":267,"x_min":0,"x_max":0,"o":"m -42 -226 l -6 -226 b 167 -36 131 -226 167 -185 l 167 789 l 101 789 l 101 -32 b -10 -164 101 -139 79 -164 l -42 -164 z "},"ķ":{"ha":613,"x_min":0,"x_max":0,"o":"m 513 0 l 583 0 l 358 501 l 564 789 l 488 789 l 161 338 l 163 372 l 163 1039 l 99 1039 l 99 0 l 163 0 l 163 256 l 311 461 z m 286 -307 b 383 -149 349 -281 383 -222 b 331 -67 383 -90 367 -67 b 279 -125 297 -67 279 -85 b 321 -176 279 -167 296 -176 b 336 -172 326 -176 332 -175 b 275 -271 332 -219 310 -253 z "},"ĸ":{"ha":613,"x_min":0,"x_max":0,"o":"m 513 0 l 583 0 l 358 501 l 564 789 l 488 789 l 161 338 l 163 372 l 163 789 l 99 789 l 99 0 l 163 0 l 163 256 l 311 461 z "},"ĺ":{"ha":265,"x_min":0,"x_max":0,"o":"m 165 0 l 165 1039 l 100 1039 l 100 0 z m 103 1135 l 160 1135 l 315 1351 l 240 1351 z "},"ľ":{"ha":265,"x_min":0,"x_max":0,"o":"m 165 0 l 165 1039 l 100 1039 l 100 0 z m 258 911 l 307 911 l 375 1110 l 310 1110 z "},"ļ":{"ha":265,"x_min":0,"x_max":0,"o":"m 165 0 l 165 1039 l 100 1039 l 100 0 z m 99 -319 b 196 -161 161 -293 196 -235 b 143 -79 196 -103 179 -79 b 92 -137 110 -79 92 -97 b 133 -189 92 -179 108 -189 b 149 -185 139 -189 144 -187 b 88 -283 144 -232 122 -265 z "},"ŀ":{"ha":360,"x_min":0,"x_max":0,"o":"m 165 0 l 165 1039 l 100 1039 l 100 0 z m 307 313 b 361 374 342 313 361 329 b 307 438 361 417 343 438 b 251 375 271 438 251 418 b 307 313 251 329 268 313 z "},"ł":{"ha":282,"x_min":0,"x_max":0,"o":"m 175 0 l 175 438 l 279 474 l 264 517 l 175 486 l 175 1039 l 110 1039 l 110 463 l 4 426 l 19 383 l 110 415 l 110 0 z "},"ń":{"ha":669,"x_min":0,"x_max":0,"o":"m 164 506 b 349 742 164 653 228 742 b 511 540 465 742 511 669 l 511 0 l 578 0 l 578 547 b 363 801 578 713 510 801 b 160 636 251 801 183 738 l 150 789 l 99 789 l 99 0 l 164 0 z m 317 894 l 374 894 l 529 1111 l 454 1111 z "},"ň":{"ha":669,"x_min":0,"x_max":0,"o":"m 164 506 b 349 742 164 653 228 742 b 511 540 465 742 511 669 l 511 0 l 578 0 l 578 547 b 363 801 578 713 510 801 b 160 636 251 801 183 738 l 150 789 l 99 789 l 99 0 l 164 0 z m 369 892 l 503 1076 l 438 1076 l 346 944 l 257 1076 l 192 1076 l 321 892 z "},"ņ":{"ha":669,"x_min":0,"x_max":0,"o":"m 164 506 b 349 742 164 653 228 742 b 511 540 465 742 511 669 l 511 0 l 578 0 l 578 547 b 363 801 578 713 510 801 b 160 636 251 801 183 738 l 150 789 l 99 789 l 99 0 l 164 0 z m 299 -308 b 396 -150 361 -282 396 -224 b 343 -68 396 -92 379 -68 b 292 -126 310 -68 292 -86 b 333 -178 292 -168 308 -178 b 349 -174 339 -178 344 -176 b 288 -272 344 -221 322 -254 z "},"ñ":{"ha":669,"x_min":0,"x_max":0,"o":"m 164 506 b 349 742 164 653 228 742 b 511 540 465 742 511 669 l 511 0 l 578 0 l 578 547 b 363 801 578 713 510 801 b 160 636 251 801 183 738 l 150 789 l 99 789 l 99 0 l 164 0 z m 163 897 l 213 897 b 261 972 213 949 225 972 b 439 894 315 972 361 894 b 539 1022 510 894 539 943 l 489 1022 b 439 947 489 967 472 947 b 260 1025 388 947 340 1025 b 163 897 192 1025 163 979 z "},"ŋ":{"ha":671,"x_min":0,"x_max":0,"o":"m 406 -226 b 578 -36 542 -226 578 -186 l 578 547 b 363 801 578 713 510 801 b 160 636 251 801 183 738 l 150 789 l 99 789 l 99 0 l 164 0 l 164 506 b 349 742 164 653 228 742 b 511 540 465 742 511 669 l 511 -32 b 400 -164 511 -139 490 -164 l 368 -164 l 368 -226 z "},"ó":{"ha":660,"x_min":0,"x_max":0,"o":"m 328 -14 b 579 261 486 -14 579 76 l 579 517 b 328 801 579 713 486 801 b 75 517 169 801 75 713 l 75 261 b 328 -14 75 76 165 -14 z m 328 49 b 142 265 203 49 142 125 l 142 514 b 328 743 142 671 208 743 b 513 514 447 743 513 669 l 513 265 b 328 49 513 125 453 49 z m 299 896 l 356 896 l 511 1113 l 436 1113 z "},"ŏ":{"ha":660,"x_min":0,"x_max":0,"o":"m 328 -14 b 579 261 486 -14 579 76 l 579 517 b 328 801 579 713 486 801 b 75 517 169 801 75 713 l 75 261 b 328 -14 75 76 165 -14 z m 328 49 b 142 265 203 49 142 125 l 142 514 b 328 743 142 671 208 743 b 513 514 447 743 513 669 l 513 265 b 328 49 513 125 453 49 z m 326 892 b 503 1075 444 892 499 967 l 449 1075 b 328 942 446 994 407 943 b 210 1075 243 943 213 994 l 156 1075 b 326 892 158 965 201 892 z "},"ô":{"ha":660,"x_min":0,"x_max":0,"o":"m 328 -14 b 579 261 486 -14 579 76 l 579 517 b 328 801 579 713 486 801 b 75 517 169 801 75 713 l 75 261 b 328 -14 75 76 165 -14 z m 328 49 b 142 265 203 49 142 125 l 142 514 b 328 743 142 671 208 743 b 513 514 447 743 513 669 l 513 265 b 328 49 513 125 453 49 z m 422 894 l 488 894 l 357 1081 l 306 1081 l 174 894 l 238 894 l 331 1031 z "},"ö":{"ha":660,"x_min":0,"x_max":0,"o":"m 328 -14 b 579 261 486 -14 579 76 l 579 517 b 328 801 579 713 486 801 b 75 517 169 801 75 713 l 75 261 b 328 -14 75 76 165 -14 z m 328 49 b 142 265 203 49 142 125 l 142 514 b 328 743 142 671 208 743 b 513 514 447 743 513 669 l 513 265 b 328 49 513 125 453 49 z m 415 897 b 464 953 447 897 464 914 b 415 1011 464 993 449 1011 b 365 954 382 1011 365 993 b 415 897 365 913 381 897 z m 242 897 b 292 953 274 897 292 914 b 242 1011 292 993 275 1011 b 192 954 210 1011 192 993 b 242 897 192 913 208 897 z "},"œ":{"ha":1089,"x_min":0,"x_max":0,"o":"m 328 49 b 142 265 203 49 142 125 l 142 514 b 328 743 142 671 208 743 b 513 514 447 743 513 669 l 513 265 b 328 49 513 125 453 49 z m 578 514 b 769 743 578 669 647 743 b 953 521 892 743 953 674 l 953 435 l 578 435 z m 1018 224 l 1018 268 l 951 268 l 951 224 b 768 49 951 100 878 49 b 578 265 640 49 578 124 l 578 378 l 1018 378 l 1018 521 b 772 801 1018 703 933 801 b 546 647 651 801 578 749 b 325 801 518 753 447 801 b 75 517 169 801 75 713 l 75 261 b 324 -14 75 76 165 -14 b 544 131 443 -14 514 33 b 771 -14 574 36 643 -14 b 1018 224 922 -14 1018 69 z "},"ò":{"ha":660,"x_min":0,"x_max":0,"o":"m 328 -14 b 579 261 486 -14 579 76 l 579 517 b 328 801 579 713 486 801 b 75 517 169 801 75 713 l 75 261 b 328 -14 75 76 165 -14 z m 328 49 b 142 265 203 49 142 125 l 142 514 b 328 743 142 671 208 743 b 513 514 447 743 513 669 l 513 265 b 328 49 513 125 453 49 z m 304 894 l 361 894 l 240 1083 l 164 1083 z "},"ő":{"ha":660,"x_min":0,"x_max":0,"o":"m 328 -14 b 579 261 486 -14 579 76 l 579 517 b 328 801 579 713 486 801 b 75 517 169 801 75 713 l 75 261 b 328 -14 75 76 165 -14 z m 328 49 b 142 265 203 49 142 125 l 142 514 b 328 743 142 671 208 743 b 513 514 447 743 513 669 l 513 265 b 328 49 513 125 453 49 z m 418 1083 l 344 1083 l 228 896 l 282 896 z m 574 1083 l 499 1083 l 369 896 l 425 896 z "},"ō":{"ha":660,"x_min":0,"x_max":0,"o":"m 328 -14 b 579 261 486 -14 579 76 l 579 517 b 328 801 579 713 486 801 b 75 517 169 801 75 713 l 75 261 b 328 -14 75 76 165 -14 z m 328 49 b 142 265 203 49 142 125 l 142 514 b 328 743 142 671 208 743 b 513 514 447 743 513 669 l 513 265 b 328 49 513 125 453 49 z m 185 915 l 474 915 l 474 971 l 185 971 z "},"ø":{"ha":660,"x_min":0,"x_max":0,"o":"m 142 265 l 142 514 b 328 743 142 671 208 743 b 411 728 360 743 388 738 l 214 81 b 142 265 165 115 142 178 z m 328 49 b 257 58 301 49 278 51 l 453 700 b 513 514 492 663 513 601 l 513 265 b 328 49 513 125 453 49 z m 328 -14 b 579 261 486 -14 579 76 l 579 517 b 472 765 579 642 542 724 l 517 906 l 467 906 l 429 786 b 328 801 400 796 365 801 b 75 517 169 801 75 713 l 75 261 b 193 15 75 136 117 54 l 149 -125 l 201 -125 l 239 -3 b 328 -14 265 -10 294 -14 z "},"ǿ":{"ha":660,"x_min":0,"x_max":0,"o":"m 142 265 l 142 514 b 328 743 142 671 208 743 b 411 728 360 743 388 738 l 214 81 b 142 265 165 115 142 178 z m 328 49 b 257 58 301 49 278 51 l 453 700 b 513 514 492 663 513 601 l 513 265 b 328 49 513 125 453 49 z m 328 -14 b 579 261 486 -14 579 76 l 579 517 b 472 765 579 642 542 724 l 517 906 l 467 906 l 429 786 b 328 801 400 796 365 801 b 75 517 169 801 75 713 l 75 261 b 193 15 75 136 117 54 l 149 -125 l 201 -125 l 239 -3 b 328 -14 265 -10 294 -14 z m 297 929 l 354 929 l 510 1146 l 435 1146 z "},"õ":{"ha":660,"x_min":0,"x_max":0,"o":"m 328 -14 b 579 261 486 -14 579 76 l 579 517 b 328 801 579 713 486 801 b 75 517 169 801 75 713 l 75 261 b 328 -14 75 76 165 -14 z m 328 49 b 142 265 203 49 142 125 l 142 514 b 328 743 142 671 208 743 b 513 514 447 743 513 669 l 513 265 b 328 49 513 125 453 49 z m 139 897 l 189 897 b 238 972 189 949 201 972 b 415 894 292 972 338 894 b 515 1022 486 894 515 943 l 465 1022 b 415 947 465 967 449 947 b 236 1025 364 947 317 1025 b 139 897 168 1025 139 979 z "},"ŕ":{"ha":424,"x_min":0,"x_max":0,"o":"m 163 0 l 163 476 b 361 722 163 643 213 722 l 392 722 l 392 790 l 369 790 b 160 638 244 790 182 743 l 149 789 l 99 789 l 99 0 z m 197 875 l 254 875 l 410 1092 l 335 1092 z "},"ř":{"ha":424,"x_min":0,"x_max":0,"o":"m 163 0 l 163 476 b 361 722 163 643 213 722 l 392 722 l 392 790 l 369 790 b 160 638 244 790 182 743 l 149 789 l 99 789 l 99 0 z m 250 872 l 383 1057 l 318 1057 l 226 925 l 138 1057 l 72 1057 l 201 872 z "},"ŗ":{"ha":424,"x_min":0,"x_max":0,"o":"m 163 0 l 163 476 b 361 722 163 643 213 722 l 392 722 l 392 790 l 369 790 b 160 638 244 790 182 743 l 149 789 l 99 789 l 99 0 z m 86 -319 b 183 -161 149 -293 183 -235 b 131 -79 183 -103 167 -79 b 79 -137 97 -79 79 -97 b 121 -189 79 -179 96 -189 b 136 -185 126 -189 132 -187 b 75 -283 132 -232 110 -265 z "},"ś":{"ha":604,"x_min":0,"x_max":0,"o":"m 306 -14 b 539 206 464 -14 539 69 l 539 225 b 329 435 539 358 432 399 b 144 592 235 468 144 499 l 144 607 b 299 744 144 685 196 744 b 458 604 406 744 458 692 l 458 546 l 525 546 l 525 603 b 300 801 525 728 446 801 b 79 606 157 801 79 721 l 79 589 b 286 383 79 460 185 419 b 474 222 382 350 474 319 l 474 206 b 307 47 474 106 421 47 b 133 207 189 47 133 111 l 133 276 l 64 276 l 64 204 b 306 -14 64 65 143 -14 z m 269 896 l 326 896 l 482 1113 l 407 1113 z "},"š":{"ha":604,"x_min":0,"x_max":0,"o":"m 306 -14 b 539 206 464 -14 539 69 l 539 225 b 329 435 539 358 432 399 b 144 592 235 468 144 499 l 144 607 b 299 744 144 685 196 744 b 458 604 406 744 458 692 l 458 546 l 525 546 l 525 603 b 300 801 525 728 446 801 b 79 606 157 801 79 721 l 79 589 b 286 383 79 460 185 419 b 474 222 382 350 474 319 l 474 206 b 307 47 474 106 421 47 b 133 207 189 47 133 111 l 133 276 l 64 276 l 64 204 b 306 -14 64 65 143 -14 z m 324 893 l 457 1078 l 392 1078 l 300 946 l 211 1078 l 146 1078 l 275 893 z "},"ş":{"ha":604,"x_min":0,"x_max":0,"o":"m 315 -294 b 461 -181 406 -294 461 -251 b 335 -83 461 -118 418 -85 l 335 -12 b 539 206 474 -3 539 78 l 539 225 b 329 435 539 358 432 399 b 144 592 235 468 144 499 l 144 607 b 299 744 144 685 196 744 b 458 604 406 744 458 692 l 458 546 l 525 546 l 525 603 b 300 801 525 728 446 801 b 79 606 157 801 79 721 l 79 589 b 286 383 79 460 185 419 b 474 222 382 350 474 319 l 474 206 b 307 47 474 106 421 47 b 133 207 189 47 133 111 l 133 276 l 64 276 l 64 204 b 281 -14 64 72 135 -6 l 281 -128 l 313 -128 b 404 -183 379 -128 404 -143 b 315 -246 404 -226 371 -246 b 222 -178 263 -246 228 -225 l 161 -178 b 315 -294 172 -253 218 -294 z "},"ŝ":{"ha":604,"x_min":0,"x_max":0,"o":"m 306 -14 b 539 206 464 -14 539 69 l 539 225 b 329 435 539 358 432 399 b 144 592 235 468 144 499 l 144 607 b 299 744 144 685 196 744 b 458 604 406 744 458 692 l 458 546 l 525 546 l 525 603 b 300 801 525 728 446 801 b 79 606 157 801 79 721 l 79 589 b 286 383 79 460 185 419 b 474 222 382 350 474 319 l 474 206 b 307 47 474 106 421 47 b 133 207 189 47 133 111 l 133 276 l 64 276 l 64 204 b 306 -14 64 65 143 -14 z m 394 894 l 460 894 l 329 1081 l 278 1081 l 146 894 l 210 894 l 303 1031 z "},"ș":{"ha":604,"x_min":0,"x_max":0,"o":"m 306 -14 b 539 206 464 -14 539 69 l 539 225 b 329 435 539 358 432 399 b 144 592 235 468 144 499 l 144 607 b 299 744 144 685 196 744 b 458 604 406 744 458 692 l 458 546 l 525 546 l 525 603 b 300 801 525 728 446 801 b 79 606 157 801 79 721 l 79 589 b 286 383 79 460 185 419 b 474 222 382 350 474 319 l 474 206 b 307 47 474 106 421 47 b 133 207 189 47 133 111 l 133 276 l 64 276 l 64 204 b 306 -14 64 65 143 -14 z m 263 -332 b 360 -174 325 -306 360 -247 b 307 -92 360 -115 343 -92 b 256 -150 274 -92 256 -110 b 297 -201 256 -192 272 -201 b 313 -197 303 -201 308 -200 b 251 -296 308 -244 286 -278 z "},"ŧ":{"ha":403,"x_min":0,"x_max":0,"o":"m 365 64 l 329 64 b 193 232 222 64 193 90 l 193 385 l 314 385 l 314 440 l 193 440 l 193 728 l 365 728 l 365 789 l 193 789 l 193 950 l 143 950 b 136 846 142 922 139 861 b 88 789 129 799 124 792 b 24 785 81 786 33 785 l 24 728 l 129 728 l 129 440 l 46 440 l 46 385 l 129 385 l 129 228 b 318 0 129 44 174 0 l 365 0 z "},"ť":{"ha":403,"x_min":0,"x_max":0,"o":"m 365 64 l 329 64 b 193 232 222 64 193 90 l 193 728 l 365 728 l 365 789 l 193 789 l 193 950 l 143 950 b 136 846 142 922 139 861 b 88 789 129 799 124 792 b 24 785 81 786 33 785 l 24 728 l 129 728 l 129 228 b 318 0 129 44 174 0 l 365 0 z m 274 906 l 322 906 l 390 1104 l 325 1104 z "},"ţ":{"ha":404,"x_min":0,"x_max":0,"o":"m 365 64 l 329 64 b 193 232 222 64 193 90 l 193 728 l 365 728 l 365 789 l 193 789 l 193 950 l 143 950 b 136 846 142 922 139 861 b 88 789 129 799 124 792 b 24 785 81 786 33 785 l 24 728 l 129 728 l 129 228 b 318 0 129 44 174 0 l 365 0 z m 210 -318 b 307 -160 272 -292 307 -233 b 254 -78 307 -101 290 -78 b 203 -136 221 -78 203 -96 b 244 -187 203 -178 219 -187 b 260 -183 250 -187 256 -186 b 199 -282 256 -231 233 -264 z "},"ú":{"ha":650,"x_min":0,"x_max":0,"o":"m 499 0 l 551 0 l 551 789 l 485 789 l 485 283 b 314 49 485 138 421 49 b 161 246 206 49 161 121 l 161 789 l 94 789 l 94 238 b 299 -12 94 78 158 -12 b 490 153 400 -12 465 50 z m 289 867 l 346 867 l 501 1083 l 426 1083 z "},"ŭ":{"ha":650,"x_min":0,"x_max":0,"o":"m 499 0 l 551 0 l 551 789 l 485 789 l 485 283 b 314 49 485 138 421 49 b 161 246 206 49 161 121 l 161 789 l 94 789 l 94 238 b 299 -12 94 78 158 -12 b 490 153 400 -12 465 50 z m 321 874 b 497 1057 439 874 493 949 l 443 1057 b 322 924 440 976 401 925 b 204 1057 238 925 207 976 l 150 1057 b 321 874 153 947 196 874 z "},"û":{"ha":650,"x_min":0,"x_max":0,"o":"m 499 0 l 551 0 l 551 789 l 485 789 l 485 283 b 314 49 485 138 421 49 b 161 246 206 49 161 121 l 161 789 l 94 789 l 94 238 b 299 -12 94 78 158 -12 b 490 153 400 -12 465 50 z m 415 876 l 481 876 l 350 1063 l 299 1063 l 167 876 l 231 876 l 324 1013 z "},"ü":{"ha":650,"x_min":0,"x_max":0,"o":"m 499 0 l 551 0 l 551 789 l 485 789 l 485 283 b 314 49 485 138 421 49 b 161 246 206 49 161 121 l 161 789 l 94 789 l 94 238 b 299 -12 94 78 158 -12 b 490 153 400 -12 465 50 z m 407 879 b 456 935 439 879 456 896 b 407 993 456 975 440 993 b 357 936 374 993 357 975 b 407 879 357 894 372 879 z m 233 879 b 283 935 265 879 283 896 b 233 993 283 975 267 993 b 183 936 201 993 183 975 b 233 879 183 894 200 879 z "},"ù":{"ha":650,"x_min":0,"x_max":0,"o":"m 499 0 l 551 0 l 551 789 l 485 789 l 485 283 b 314 49 485 138 421 49 b 161 246 206 49 161 121 l 161 789 l 94 789 l 94 238 b 299 -12 94 78 158 -12 b 490 153 400 -12 465 50 z m 299 865 l 356 865 l 235 1054 l 158 1054 z "},"ű":{"ha":650,"x_min":0,"x_max":0,"o":"m 499 0 l 551 0 l 551 789 l 485 789 l 485 283 b 314 49 485 138 421 49 b 161 246 206 49 161 121 l 161 789 l 94 789 l 94 238 b 299 -12 94 78 158 -12 b 490 153 400 -12 465 50 z m 403 1063 l 329 1063 l 213 875 l 267 875 z m 558 1063 l 483 1063 l 354 875 l 410 875 z "},"ū":{"ha":650,"x_min":0,"x_max":0,"o":"m 499 0 l 551 0 l 551 789 l 485 789 l 485 283 b 314 49 485 138 421 49 b 161 246 206 49 161 121 l 161 789 l 94 789 l 94 238 b 299 -12 94 78 158 -12 b 490 153 400 -12 465 50 z m 178 897 l 467 897 l 467 953 l 178 953 z "},"ų":{"ha":650,"x_min":0,"x_max":0,"o":"m 669 -139 l 607 -139 b 513 -203 592 -181 560 -203 b 432 -136 463 -203 432 -176 b 551 0 432 -93 464 -56 l 551 789 l 485 789 l 485 283 b 314 49 485 138 421 49 b 161 246 206 49 161 121 l 161 789 l 94 789 l 94 238 b 299 -12 94 78 158 -12 b 490 153 400 -12 465 50 l 497 21 b 375 -139 411 -32 375 -85 b 510 -253 375 -210 424 -253 b 669 -139 593 -253 644 -214 z "},"ů":{"ha":650,"x_min":0,"x_max":0,"o":"m 499 0 l 551 0 l 551 789 l 485 789 l 485 283 b 314 49 485 138 421 49 b 161 246 206 49 161 121 l 161 789 l 94 789 l 94 238 b 299 -12 94 78 158 -12 b 490 153 400 -12 465 50 z m 321 869 b 444 990 394 869 444 915 b 321 1111 444 1065 396 1111 b 200 990 250 1111 200 1063 b 321 869 200 917 249 869 z m 321 919 b 253 990 279 919 253 949 b 321 1061 253 1033 281 1061 b 392 990 364 1061 392 1033 b 321 919 392 946 361 919 z "},"ũ":{"ha":650,"x_min":0,"x_max":0,"o":"m 499 0 l 551 0 l 551 789 l 485 789 l 485 283 b 314 49 485 138 421 49 b 161 246 206 49 161 121 l 161 789 l 94 789 l 94 238 b 299 -12 94 78 158 -12 b 490 153 400 -12 465 50 z m 138 882 l 188 882 b 236 957 188 933 200 957 b 414 879 290 957 336 879 b 514 1007 485 879 514 928 l 464 1007 b 414 932 464 951 447 932 b 235 1010 363 932 315 1010 b 138 882 167 1010 138 964 z "},"ẃ":{"ha":881,"x_min":0,"x_max":0,"o":"m 424 617 l 436 701 l 449 618 l 603 0 l 665 0 l 839 789 l 774 789 l 643 163 l 631 72 l 617 165 l 458 789 l 417 789 l 249 164 l 232 72 l 222 164 l 107 789 l 42 789 l 193 0 l 258 0 z m 404 883 l 461 883 l 617 1100 l 542 1100 z "},"ŵ":{"ha":881,"x_min":0,"x_max":0,"o":"m 424 617 l 436 701 l 449 618 l 603 0 l 665 0 l 839 789 l 774 789 l 643 163 l 631 72 l 617 165 l 458 789 l 417 789 l 249 164 l 232 72 l 222 164 l 107 789 l 42 789 l 193 0 l 258 0 z m 529 882 l 594 882 l 464 1068 l 413 1068 l 281 882 l 344 882 l 438 1018 z "},"ẅ":{"ha":881,"x_min":0,"x_max":0,"o":"m 424 617 l 436 701 l 449 618 l 603 0 l 665 0 l 839 789 l 774 789 l 643 163 l 631 72 l 617 165 l 458 789 l 417 789 l 249 164 l 232 72 l 222 164 l 107 789 l 42 789 l 193 0 l 258 0 z m 521 885 b 569 940 553 885 569 901 b 521 999 569 981 554 999 b 471 942 488 999 471 981 b 521 885 471 900 486 885 z m 347 885 b 397 940 379 885 397 901 b 347 999 397 981 381 999 b 297 942 315 999 297 981 b 347 885 297 900 314 885 z "},"ẁ":{"ha":881,"x_min":0,"x_max":0,"o":"m 424 617 l 436 701 l 449 618 l 603 0 l 665 0 l 839 789 l 774 789 l 643 163 l 631 72 l 617 165 l 458 789 l 417 789 l 249 164 l 232 72 l 222 164 l 107 789 l 42 789 l 193 0 l 258 0 z m 411 883 l 468 883 l 347 1072 l 271 1072 z "},"ý":{"ha":588,"x_min":0,"x_max":0,"o":"m 101 -218 b 319 -42 238 -218 271 -186 l 553 789 l 485 789 l 315 163 l 303 82 l 288 160 l 107 789 l 39 789 l 269 13 l 258 -33 b 97 -156 222 -137 196 -156 l 63 -156 l 63 -218 z m 264 868 l 321 868 l 476 1085 l 401 1085 z "},"ŷ":{"ha":588,"x_min":0,"x_max":0,"o":"m 101 -218 b 319 -42 238 -218 271 -186 l 553 789 l 485 789 l 315 163 l 303 82 l 288 160 l 107 789 l 39 789 l 269 13 l 258 -33 b 97 -156 222 -137 196 -156 l 63 -156 l 63 -218 z m 389 872 l 454 872 l 324 1058 l 272 1058 l 140 872 l 204 872 l 297 1008 z "},"ÿ":{"ha":588,"x_min":0,"x_max":0,"o":"m 101 -218 b 319 -42 238 -218 271 -186 l 553 789 l 485 789 l 315 163 l 303 82 l 288 160 l 107 789 l 39 789 l 269 13 l 258 -33 b 97 -156 222 -137 196 -156 l 63 -156 l 63 -218 z m 381 875 b 429 931 413 875 429 892 b 381 989 429 971 414 989 b 331 932 347 989 331 971 b 381 875 331 890 346 875 z m 207 875 b 257 931 239 875 257 892 b 207 989 257 971 240 989 b 157 932 175 989 157 971 b 207 875 157 890 174 875 z "},"ỳ":{"ha":588,"x_min":0,"x_max":0,"o":"m 101 -218 b 319 -42 238 -218 271 -186 l 553 789 l 485 789 l 315 163 l 303 82 l 288 160 l 107 789 l 39 789 l 269 13 l 258 -33 b 97 -156 222 -137 196 -156 l 63 -156 l 63 -218 z m 272 858 l 329 858 l 208 1047 l 132 1047 z "},"ĳ":{"ha":525,"x_min":0,"x_max":0,"o":"m 132 890 b 179 949 164 890 179 907 b 132 1007 179 990 165 1007 b 85 949 99 1007 85 990 b 132 890 85 907 97 890 z m 396 890 b 442 949 428 890 442 907 b 396 1007 442 990 429 1007 b 349 949 363 1007 349 990 b 396 890 349 907 361 890 z m 97 0 l 164 0 l 164 789 l 132 788 l 97 789 z m 124 -222 l 256 -222 b 426 -32 390 -222 426 -182 l 426 789 l 394 788 l 361 789 l 361 -28 b 251 -161 361 -136 340 -161 l 124 -161 z "},"ź":{"ha":547,"x_min":0,"x_max":0,"o":"m 501 0 l 501 63 l 121 63 l 503 733 l 503 789 l 68 789 l 68 729 l 431 729 l 44 53 l 44 0 z m 256 883 l 313 883 l 468 1100 l 393 1100 z "},"ž":{"ha":547,"x_min":0,"x_max":0,"o":"m 501 0 l 501 63 l 121 63 l 503 733 l 503 789 l 68 789 l 68 729 l 431 729 l 44 53 l 44 0 z m 308 881 l 442 1065 l 376 1065 l 285 933 l 196 1065 l 131 1065 l 260 881 z "},"ż":{"ha":547,"x_min":0,"x_max":0,"o":"m 501 0 l 501 63 l 121 63 l 503 733 l 503 789 l 68 789 l 68 729 l 431 729 l 44 53 l 44 0 z m 285 882 b 339 943 319 882 339 899 b 285 1007 339 986 321 1007 b 229 944 249 1007 229 988 b 285 882 229 899 246 882 z "},"þ":{"ha":682,"x_min":0,"x_max":0,"o":"m 347 49 b 161 282 224 49 161 139 l 161 499 b 354 743 161 644 226 743 b 536 503 474 743 536 667 l 536 281 b 347 49 536 129 474 49 z m 361 -12 b 603 279 514 -12 603 86 l 603 506 b 367 801 603 711 518 801 b 163 643 257 801 190 740 l 163 1039 l 99 1039 l 99 -274 l 163 -274 l 163 135 b 361 -12 189 42 253 -12 z "},"ª":{"ha":471,"x_min":0,"x_max":0,"o":"m 207 472 b 117 561 146 472 117 508 l 117 575 b 149 651 117 610 129 631 b 251 708 172 675 196 688 b 350 774 307 731 338 744 l 349 650 b 207 472 349 554 297 472 z m 354 431 l 408 431 l 408 854 b 242 1000 408 943 351 1000 b 61 844 128 1000 64 936 l 61 793 l 124 793 l 124 844 b 242 947 126 903 167 947 b 349 857 315 947 349 911 l 349 840 b 239 753 349 796 306 779 b 104 685 169 726 135 710 b 50 569 74 658 50 622 l 50 554 b 189 421 50 474 94 421 b 350 544 268 421 325 468 z "},"º":{"ha":485,"x_min":0,"x_max":0,"o":"m 243 422 b 424 611 354 422 424 493 l 424 810 b 243 1001 424 928 353 1001 b 61 808 136 1001 61 929 l 61 610 b 243 422 61 493 125 422 z m 243 479 b 124 613 164 479 124 531 l 124 808 b 243 946 124 894 169 946 b 363 808 318 946 363 892 l 363 613 b 243 479 363 531 322 479 z "},"&":{"ha":822,"x_min":0,"x_max":0,"o":"m 264 793 l 264 803 b 382 940 264 889 311 940 b 492 826 453 940 492 894 l 492 817 b 308 567 492 704 410 639 b 264 793 279 647 264 721 z m 318 46 b 118 231 201 46 118 107 l 118 235 b 279 481 119 344 189 414 b 351 335 300 433 324 385 b 507 106 403 242 454 164 b 318 46 456 68 393 46 z m 708 -10 b 781 11 739 -10 763 -4 l 781 76 b 711 50 761 57 740 50 b 594 106 675 50 636 69 b 750 576 699 215 750 390 l 750 657 l 688 657 l 688 576 b 553 146 688 407 644 246 b 404 363 504 200 453 274 b 331 513 375 415 350 465 b 551 817 453 601 551 683 l 551 826 b 382 994 551 931 486 994 b 204 801 275 994 204 921 l 204 792 b 257 536 204 713 224 626 b 53 233 146 456 53 371 l 53 226 b 318 -12 53 63 161 -12 b 549 64 410 -12 486 15 b 708 -10 603 17 656 -10 z "},"´":{"ha":546,"x_min":0,"x_max":0,"o":"m 219 890 l 276 890 l 432 1107 l 357 1107 z "},"˘":{"ha":546,"x_min":0,"x_max":0,"o":"m 268 886 b 444 1069 386 886 440 961 l 390 1069 b 269 936 388 989 349 938 b 151 1069 185 938 154 989 l 97 1069 b 268 886 100 960 143 886 z "},"ˇ":{"ha":546,"x_min":0,"x_max":0,"o":"m 296 888 l 429 1072 l 364 1072 l 272 940 l 183 1072 l 118 1072 l 247 888 z "},"¸":{"ha":546,"x_min":0,"x_max":0,"o":"m 271 -279 b 417 -165 361 -279 417 -236 b 290 -68 417 -103 374 -69 l 290 7 l 236 7 l 236 -112 l 268 -112 b 360 -168 335 -112 360 -128 b 271 -231 360 -211 326 -231 b 178 -162 218 -231 183 -210 l 117 -162 b 271 -279 128 -237 174 -279 z "},"ˆ":{"ha":546,"x_min":0,"x_max":0,"o":"m 364 889 l 429 889 l 299 1075 l 247 1075 l 115 889 l 179 889 l 272 1025 z "},"¨":{"ha":549,"x_min":0,"x_max":0,"o":"m 356 892 b 404 947 388 892 404 908 b 356 1006 404 988 389 1006 b 306 949 322 1006 306 988 b 356 892 306 907 321 892 z m 182 892 b 232 947 214 892 232 908 b 182 1006 232 988 215 1006 b 132 949 150 1006 132 988 b 182 892 132 907 149 892 z "},"˙":{"ha":549,"x_min":0,"x_max":0,"o":"m 265 889 b 319 950 300 889 319 906 b 265 1014 319 993 301 1014 b 210 951 229 1014 210 994 b 265 889 210 906 226 889 z "},"`":{"ha":546,"x_min":0,"x_max":0,"o":"m 282 889 l 339 889 l 218 1078 l 142 1078 z "},"˝":{"ha":546,"x_min":0,"x_max":0,"o":"m 325 1078 l 251 1078 l 135 890 l 189 890 z m 481 1078 l 406 1078 l 276 890 l 332 890 z "},"¯":{"ha":546,"x_min":0,"x_max":0,"o":"m 129 910 l 418 910 l 418 965 l 129 965 z "},"˛":{"ha":546,"x_min":0,"x_max":0,"o":"m 274 -253 b 433 -139 357 -253 408 -214 l 371 -139 b 276 -203 356 -181 324 -203 b 196 -136 226 -203 196 -176 b 315 0 196 -93 228 -56 l 274 28 b 139 -139 178 -28 139 -82 b 274 -253 139 -210 188 -253 z "},"˚":{"ha":546,"x_min":0,"x_max":0,"o":"m 268 890 b 392 1011 342 890 392 936 b 268 1132 392 1086 343 1132 b 147 1011 197 1132 147 1083 b 268 890 147 938 196 890 z m 268 940 b 200 1011 226 940 200 969 b 268 1082 200 1054 228 1082 b 339 1011 311 1082 339 1054 b 268 940 339 967 308 940 z "},"˜":{"ha":546,"x_min":0,"x_max":0,"o":"m 86 892 l 136 892 b 185 967 136 943 149 967 b 363 889 239 967 285 889 b 463 1017 433 889 463 938 l 413 1017 b 363 942 413 961 396 942 b 183 1019 311 942 264 1019 b 86 892 115 1019 86 974 z "},".":{"ha":336,"x_min":0,"x_max":0,"o":"m 169 -11 b 226 56 207 -11 226 8 b 169 122 226 103 207 122 b 113 56 131 122 113 103 b 169 -11 113 7 129 -11 z "},",":{"ha":336,"x_min":0,"x_max":0,"o":"m 118 -154 b 229 28 188 -122 229 -58 b 168 118 229 96 210 118 b 113 51 131 118 113 99 b 158 -8 113 4 131 -8 b 179 -1 167 -8 174 -6 b 106 -115 175 -56 146 -94 z "},":":{"ha":344,"x_min":0,"x_max":0,"o":"m 172 529 b 229 594 211 529 229 546 b 172 660 229 642 213 660 b 115 594 132 660 115 642 b 172 529 115 544 132 529 z m 172 68 b 231 133 213 68 231 85 b 174 199 231 182 214 199 b 117 133 133 199 117 182 b 172 68 117 83 133 68 z "},";":{"ha":344,"x_min":0,"x_max":0,"o":"m 172 529 b 229 594 211 529 229 546 b 172 660 229 642 213 660 b 115 594 132 660 115 642 b 172 529 115 544 132 529 z m 122 -154 b 233 28 193 -122 233 -58 b 174 118 233 96 215 118 b 117 51 135 118 117 99 b 164 -8 117 4 135 -8 b 185 -1 172 -8 179 -6 b 110 -115 179 -56 150 -94 z "},"…":{"ha":792,"x_min":0,"x_max":0,"o":"m 624 -10 b 676 56 660 -10 676 8 b 624 119 676 103 661 119 b 572 56 588 119 572 103 b 624 -10 572 7 586 -10 z m 397 -10 b 449 56 432 -10 449 8 b 397 119 449 103 435 119 b 344 56 360 119 344 103 b 397 -10 344 7 360 -10 z m 169 -10 b 221 56 204 -10 221 8 b 169 119 221 103 207 119 b 117 56 132 119 117 103 b 169 -10 117 7 132 -10 z "},"!":{"ha":357,"x_min":0,"x_max":0,"o":"m 142 985 l 142 804 b 153 206 142 583 150 236 b 175 207 156 207 168 207 b 200 206 182 207 196 207 b 211 806 203 236 211 583 l 211 985 z m 176 -11 b 232 56 213 -11 232 8 b 176 121 232 101 214 121 b 121 56 138 121 121 101 b 176 -11 121 7 138 -11 z "},"¡":{"ha":357,"x_min":0,"x_max":0,"o":"m 176 818 b 121 753 140 818 121 799 b 176 688 121 706 139 688 b 232 753 215 688 232 706 b 176 818 232 800 215 818 z m 211 -182 l 211 3 b 200 603 211 225 203 571 b 176 600 196 600 185 600 b 153 603 167 600 157 600 b 142 3 150 571 142 225 l 142 -182 z "},"?":{"ha":678,"x_min":0,"x_max":0,"o":"m 296 200 b 329 206 299 203 318 206 b 361 200 339 206 358 203 l 363 286 b 468 490 363 396 414 442 b 579 715 524 540 579 592 l 579 786 b 343 994 579 904 506 994 b 100 765 179 994 100 908 l 100 632 l 168 632 l 168 761 b 343 933 168 869 219 933 b 511 782 464 933 511 867 l 511 713 b 408 526 511 614 460 572 b 294 293 353 476 294 424 l 294 250 b 296 200 294 242 296 204 z m 331 -11 b 388 56 369 -11 388 10 b 332 121 388 103 369 121 b 275 56 293 121 275 103 b 331 -11 275 7 293 -11 z "},"¿":{"ha":678,"x_min":0,"x_max":0,"o":"m 385 606 b 351 600 382 603 363 600 b 319 606 342 600 322 603 l 318 519 b 213 315 318 410 267 364 b 101 90 157 265 101 214 l 101 19 b 338 -189 101 -99 175 -189 b 581 40 501 -189 581 -103 l 581 174 l 513 174 l 513 44 b 338 -128 513 -64 461 -128 b 169 24 217 -128 169 -61 l 169 93 b 272 279 169 192 221 233 b 386 513 328 329 386 382 l 386 556 b 385 606 386 564 385 601 z m 350 817 b 293 750 311 817 293 796 b 349 685 293 703 311 685 b 406 750 388 685 406 703 b 350 817 406 799 388 817 z "},"‽":{"ha":690,"x_min":0,"x_max":0,"o":"m 368 201 l 368 281 b 588 715 369 504 588 472 l 588 790 b 349 994 588 904 513 994 b 100 765 181 994 100 910 l 100 629 l 165 629 l 165 761 b 311 938 165 863 210 925 l 311 804 b 313 269 311 619 311 381 b 315 201 313 232 315 211 b 340 204 319 203 332 204 b 368 201 347 204 364 203 z m 372 806 l 372 938 b 522 786 479 929 522 867 l 522 713 b 364 419 522 544 410 557 b 372 806 369 539 372 689 z m 342 -11 b 397 56 379 -11 397 10 b 342 121 397 103 381 121 b 286 56 304 121 286 103 b 342 -11 286 7 303 -11 z "},"⸘":{"ha":690,"x_min":0,"x_max":0,"o":"m 349 753 b 293 686 311 753 293 733 b 349 622 293 640 311 622 b 404 686 388 622 404 640 b 349 753 404 735 388 753 z m 343 -253 b 590 -22 511 -253 590 -167 l 590 113 l 525 113 l 525 -19 b 381 -193 525 -121 482 -182 l 381 -62 b 379 474 381 122 381 363 b 375 542 378 510 376 532 b 351 539 372 539 358 539 b 324 540 343 539 326 539 l 324 463 b 103 28 322 238 103 269 l 103 -47 b 343 -253 103 -162 178 -253 z m 169 -43 l 169 31 b 326 321 169 196 281 186 b 319 -62 322 203 319 53 l 319 -194 b 169 -43 213 -187 169 -125 z "},"‘":{"ha":317,"x_min":0,"x_max":0,"o":"m 160 735 b 214 797 196 735 214 753 b 169 856 214 844 197 856 b 147 849 161 856 154 853 b 215 964 151 906 176 940 l 200 999 b 101 825 139 969 101 910 b 160 735 101 757 119 735 z "},"’":{"ha":317,"x_min":0,"x_max":0,"o":"m 118 733 b 217 906 179 761 217 821 b 158 997 217 975 199 997 b 106 933 122 997 106 979 b 150 875 106 886 122 875 b 171 882 158 875 165 878 b 104 768 167 826 142 792 z "},"“":{"ha":501,"x_min":0,"x_max":0,"o":"m 344 735 b 399 797 381 735 399 753 b 354 856 399 844 382 856 b 332 849 346 856 339 853 b 400 964 336 906 361 940 l 385 999 b 286 825 324 969 286 910 b 344 735 286 757 304 735 z m 160 735 b 214 797 196 735 214 753 b 169 856 214 844 197 856 b 147 849 161 856 154 853 b 215 964 151 906 176 940 l 200 999 b 101 825 139 969 101 910 b 160 735 101 757 119 735 z "},"”":{"ha":501,"x_min":0,"x_max":0,"o":"m 118 733 b 217 906 179 761 217 822 b 158 997 217 975 199 997 b 104 933 122 997 104 979 b 149 875 104 886 121 875 b 171 882 157 875 164 878 b 103 768 167 826 142 792 z m 303 733 b 401 906 364 761 401 822 b 343 997 401 975 383 997 b 289 933 307 997 289 979 b 333 875 289 886 306 875 b 356 882 342 875 349 878 b 288 768 351 826 326 792 z "},"‚":{"ha":322,"x_min":0,"x_max":0,"o":"m 119 -147 b 218 25 181 -119 218 -60 b 160 117 218 94 200 117 b 107 53 124 117 107 97 b 151 -6 107 6 124 -6 b 172 1 160 -6 167 -3 b 106 -114 168 -56 143 -90 z "},"„":{"ha":504,"x_min":0,"x_max":0,"o":"m 118 -147 b 217 25 179 -119 217 -60 b 158 117 217 94 199 117 b 104 53 122 117 104 97 b 149 -6 104 6 121 -6 b 171 1 157 -6 164 -3 b 103 -114 167 -56 142 -90 z m 306 -147 b 404 25 367 -119 404 -60 b 346 117 404 94 386 117 b 292 53 310 117 292 97 b 336 -6 292 6 308 -6 b 358 1 344 -6 351 -3 b 290 -114 354 -56 329 -90 z "},"‛":{"ha":317,"x_min":0,"x_max":0,"o":"m 214 768 b 146 882 175 792 150 826 b 168 875 153 878 160 875 b 213 933 196 875 213 886 b 160 997 213 979 196 997 b 100 904 119 997 100 974 b 199 733 100 819 138 761 z "},"‟":{"ha":501,"x_min":0,"x_max":0,"o":"m 214 768 b 146 882 175 792 150 826 b 168 875 153 878 160 875 b 213 933 196 875 213 886 b 160 997 213 979 196 997 b 100 904 119 997 100 974 b 199 733 100 819 138 761 z m 399 768 b 331 882 360 792 335 826 b 353 875 338 878 344 875 b 397 933 381 875 397 886 b 344 997 397 979 381 997 b 285 904 304 997 285 974 b 383 733 285 819 322 761 z "},"‹":{"ha":415,"x_min":0,"x_max":0,"o":"m 340 146 l 143 413 l 331 686 l 261 686 l 81 415 l 81 406 l 269 146 z "},"›":{"ha":415,"x_min":0,"x_max":0,"o":"m 147 146 l 336 406 l 336 415 l 154 686 l 86 686 l 272 414 l 75 146 z "},"«":{"ha":653,"x_min":0,"x_max":0,"o":"m 582 146 l 381 417 l 567 686 l 499 686 l 318 418 l 318 407 l 511 146 z m 340 146 l 146 414 l 332 686 l 265 686 l 82 415 l 82 407 l 268 146 z "},"»":{"ha":653,"x_min":0,"x_max":0,"o":"m 146 146 l 338 407 l 338 418 l 157 686 l 89 686 l 275 417 l 74 146 z m 388 146 l 574 407 l 574 415 l 392 686 l 324 686 l 510 414 l 315 146 z "},"/":{"ha":396,"x_min":0,"x_max":0,"o":"m 119 0 l 347 983 l 278 983 l 51 0 z "},"\\":{"ha":396,"x_min":0,"x_max":0,"o":"m 51 983 l 276 0 l 344 0 l 119 983 z "},"|":{"ha":282,"x_min":0,"x_max":0,"o":"m 175 -162 l 175 1119 l 108 1119 l 108 -162 z "},"‖":{"ha":517,"x_min":0,"x_max":0,"o":"m 410 -162 l 410 1119 l 343 1119 l 343 -162 z m 175 -162 l 175 1119 l 108 1119 l 108 -162 z "},"¦":{"ha":282,"x_min":0,"x_max":0,"o":"m 108 563 l 175 563 l 175 1119 l 108 1119 z m 108 422 l 108 -162 l 175 -162 l 175 422 z "},"•":{"ha":361,"x_min":0,"x_max":0,"o":"m 179 326 b 256 401 229 326 256 349 b 179 478 256 457 229 478 b 104 401 132 478 104 454 b 179 326 104 349 126 326 z "},"·":{"ha":338,"x_min":0,"x_max":0,"o":"m 169 354 b 226 419 207 354 226 372 b 171 486 226 467 208 486 b 114 419 132 486 114 467 b 169 354 114 371 131 354 z "},"-":{"ha":586,"x_min":0,"x_max":0,"o":"m 510 453 l 79 453 l 79 388 l 510 388 z "},"­":{"ha":586,"x_min":0,"x_max":0,"o":"m 510 453 l 79 453 l 79 388 l 510 388 z "},"–":{"ha":581,"x_min":0,"x_max":0,"o":"m 501 453 l 79 453 l 79 388 l 501 388 z "},"—":{"ha":767,"x_min":0,"x_max":0,"o":"m 686 453 l 79 453 l 79 388 l 686 388 z "},"‒":{"ha":713,"x_min":0,"x_max":0,"o":"m 633 453 l 79 453 l 79 388 l 633 388 z "},"―":{"ha":1025,"x_min":0,"x_max":0,"o":"m 946 453 l 79 453 l 79 388 l 946 388 z "},"(":{"ha":438,"x_min":0,"x_max":0,"o":"m 103 178 b 385 -253 103 -114 204 -240 l 385 -189 b 172 179 251 -176 172 -69 l 172 608 b 385 976 172 858 250 961 l 385 1039 b 103 608 211 1024 103 899 z "},")":{"ha":438,"x_min":0,"x_max":0,"o":"m 53 -253 b 335 178 233 -240 335 -114 l 335 608 b 53 1039 335 899 226 1024 l 53 975 b 265 608 188 961 265 858 l 265 179 b 53 -189 265 -69 186 -176 z "},"[":{"ha":419,"x_min":0,"x_max":0,"o":"m 367 -190 l 183 -190 l 183 976 l 367 976 l 367 1036 l 117 1036 l 117 -250 l 367 -250 z "},"]":{"ha":419,"x_min":0,"x_max":0,"o":"m 303 -250 l 303 1036 l 54 1036 l 54 976 l 238 976 l 238 -190 l 54 -190 l 54 -250 z "},"{":{"ha":428,"x_min":0,"x_max":0,"o":"m 374 -251 l 374 -193 l 324 -193 b 190 -72 219 -193 190 -149 b 253 271 190 17 253 183 b 133 413 253 358 210 413 b 250 542 213 413 250 457 b 194 858 250 629 194 771 b 326 981 194 936 222 981 l 374 981 l 374 1038 l 306 1038 b 128 869 165 1038 128 969 b 183 547 128 771 183 628 b 86 444 183 476 151 444 l 43 444 l 43 381 l 88 381 b 188 265 151 381 188 346 b 122 -83 188 186 122 17 b 303 -251 122 -183 164 -251 z "},"}":{"ha":428,"x_min":0,"x_max":0,"o":"m 125 -251 b 304 -83 264 -251 304 -183 b 240 265 304 17 240 186 b 340 381 240 346 276 381 l 385 381 l 385 444 l 342 444 b 244 547 276 444 244 476 b 300 869 244 628 300 771 b 122 1038 300 969 261 1038 l 53 1038 l 53 981 l 101 981 b 233 858 206 981 233 936 b 178 542 233 771 178 629 b 294 413 178 457 215 413 b 175 271 218 413 175 358 b 238 -72 175 183 238 17 b 104 -193 238 -149 208 -193 l 53 -193 l 53 -251 z "},"〈":{"ha":425,"x_min":0,"x_max":0,"o":"m 379 -261 l 149 385 l 376 1028 l 307 1028 l 78 383 l 307 -261 z "},"〉":{"ha":425,"x_min":0,"x_max":0,"o":"m 119 -261 l 346 383 l 119 1028 l 47 1028 l 276 385 l 46 -261 z "},"*":{"ha":471,"x_min":0,"x_max":0,"o":"m 372 717 l 401 768 l 249 831 l 401 892 l 372 942 l 243 843 l 265 1004 l 207 1004 l 229 842 l 100 942 l 71 890 l 221 829 l 69 768 l 100 717 l 229 818 l 207 656 l 265 656 l 243 817 z "},"†":{"ha":565,"x_min":0,"x_max":0,"o":"m 492 658 l 492 724 l 315 724 l 315 1013 l 250 1013 l 250 724 l 74 724 l 74 658 l 250 658 l 250 -29 l 315 -29 l 315 658 z "},"‡":{"ha":565,"x_min":0,"x_max":0,"o":"m 492 288 l 492 353 l 315 353 l 315 660 l 492 660 l 492 725 l 315 725 l 315 1013 l 250 1013 l 250 725 l 74 725 l 74 660 l 250 660 l 250 353 l 74 353 l 74 288 l 250 288 l 250 -29 l 315 -29 l 315 288 z "},"§":{"ha":615,"x_min":0,"x_max":0,"o":"m 299 422 b 97 585 160 478 97 504 l 97 590 b 139 683 99 622 117 661 b 307 603 181 647 240 626 b 515 439 422 560 515 526 l 515 429 b 485 338 514 396 500 361 b 299 422 440 371 375 392 z m 311 -14 b 544 200 469 -14 544 64 l 544 210 b 504 321 544 260 531 294 b 576 442 540 342 576 389 l 576 453 b 350 654 576 572 464 611 b 150 810 233 697 150 718 l 150 815 b 304 949 150 893 201 949 b 464 813 411 949 464 900 l 464 753 l 531 753 l 531 811 b 306 1006 531 936 451 1006 b 85 814 163 1006 85 929 l 85 808 b 124 700 85 761 99 726 b 36 578 79 682 36 626 l 36 571 b 258 368 36 457 122 425 b 479 206 390 317 479 299 l 479 200 b 313 47 479 100 426 47 b 139 204 194 47 139 108 l 139 269 l 69 269 l 69 201 b 311 -14 69 63 149 -14 z "},"¶":{"ha":747,"x_min":0,"x_max":0,"o":"m 454 0 l 454 925 l 578 925 l 578 0 l 642 0 l 642 983 l 339 983 b 61 713 156 983 61 876 l 61 700 b 333 432 61 532 157 431 l 390 432 l 390 0 z m 335 492 b 128 700 206 492 128 568 l 128 713 b 339 925 128 842 201 925 l 390 925 l 390 492 z "},"^":{"ha":560,"x_min":0,"x_max":0,"o":"m 389 674 l 456 674 l 306 983 l 253 983 l 103 674 l 168 674 l 279 919 z "},"~":{"ha":558,"x_min":0,"x_max":0,"o":"m 79 756 l 132 756 b 185 847 133 813 149 847 b 369 753 243 847 283 753 b 475 894 443 753 475 807 l 422 894 b 368 806 422 833 404 806 b 185 900 311 806 268 900 b 79 756 113 900 79 844 z "},"_":{"ha":593,"x_min":0,"x_max":0,"o":"m 544 -81 l 50 -81 l 50 -144 l 544 -144 z "},"'":{"ha":210,"x_min":0,"x_max":0,"o":"m 86 663 l 124 663 b 136 897 129 704 136 825 l 136 983 l 74 983 l 74 897 b 86 663 74 826 81 703 z "},"\"":{"ha":360,"x_min":0,"x_max":0,"o":"m 235 663 l 275 663 b 285 906 281 704 285 833 l 285 983 l 224 983 l 224 906 b 235 663 224 833 229 704 z m 85 663 l 125 663 b 136 906 131 704 136 833 l 136 983 l 74 983 l 74 906 b 85 663 74 833 79 704 z "},"‴":{"ha":508,"x_min":0,"x_max":0,"o":"m 374 983 l 374 906 b 383 663 374 833 378 704 l 424 663 b 435 906 429 704 435 833 l 435 983 z m 224 983 l 224 906 b 235 663 224 833 229 704 l 275 663 b 285 906 281 704 285 833 l 285 983 z m 74 983 l 74 906 b 85 663 74 833 79 704 l 125 663 b 136 906 131 704 136 833 l 136 983 z "},"@":{"ha":926,"x_min":0,"x_max":0,"o":"m 469 -161 b 761 -22 600 -161 699 -112 l 701 -1 b 469 -104 653 -68 579 -104 b 139 242 265 -104 139 1 l 139 561 b 468 911 139 789 272 911 b 788 583 682 911 788 775 l 788 281 b 703 114 788 167 763 114 b 625 214 649 114 625 149 l 625 747 l 586 747 l 578 660 b 451 754 560 718 522 754 b 290 544 350 754 290 686 l 290 257 b 447 54 290 124 339 54 b 581 151 519 54 563 89 b 701 63 597 96 639 63 b 844 279 797 63 844 136 l 844 586 b 468 967 844 806 711 967 b 82 564 243 967 82 822 l 82 239 b 469 -161 82 -39 238 -161 z m 457 106 b 347 260 382 106 347 157 l 347 540 b 460 701 347 651 389 701 b 569 536 540 701 569 649 l 569 261 b 457 106 569 158 531 106 z "},"©":{"ha":903,"x_min":0,"x_max":0,"o":"m 453 -14 b 826 357 664 -14 826 111 l 826 618 b 450 994 826 861 663 994 b 76 614 233 994 76 853 l 76 356 b 453 -14 76 106 232 -14 z m 453 40 b 131 357 261 40 131 149 l 131 613 b 450 942 131 819 261 942 b 771 617 638 942 771 825 l 771 360 b 453 40 771 149 640 40 z m 456 176 b 633 374 568 176 633 238 l 633 436 l 578 436 l 578 375 b 456 229 578 271 538 229 b 332 381 371 229 332 274 l 332 604 b 457 758 332 707 374 758 b 576 613 536 758 576 711 l 576 568 l 632 568 l 632 614 b 456 810 632 742 572 810 b 276 604 339 810 276 740 l 276 379 b 456 176 276 239 338 176 z "},"®":{"ha":601,"x_min":0,"x_max":0,"o":"m 301 531 b 531 758 429 531 531 614 l 531 769 b 300 999 531 914 429 999 b 71 768 167 999 71 910 l 71 758 b 301 531 71 611 167 531 z m 301 572 b 114 760 190 572 114 639 l 114 767 b 300 958 114 885 190 958 b 488 767 408 958 488 889 l 488 760 b 301 572 488 639 410 572 z m 307 853 b 361 817 343 853 361 844 b 303 774 361 789 346 774 l 254 774 l 254 853 z m 304 739 b 354 697 349 739 354 728 l 354 663 b 356 650 354 657 354 653 l 399 650 b 394 663 396 653 394 657 l 394 697 b 353 756 394 735 383 750 b 401 818 385 764 401 783 b 310 889 401 860 375 889 l 214 889 l 214 650 l 254 650 l 254 739 z "},"℗":{"ha":901,"x_min":0,"x_max":0,"o":"m 453 -14 b 826 357 664 -14 826 111 l 826 618 b 450 994 826 861 663 994 b 76 614 233 994 76 853 l 76 356 b 453 -14 76 106 232 -14 z m 453 40 b 131 357 261 40 131 149 l 131 613 b 450 942 131 819 261 942 b 771 617 638 942 771 825 l 771 360 b 453 40 771 149 640 40 z m 463 751 b 575 643 546 751 575 714 l 575 539 b 463 425 575 464 540 425 l 369 425 l 369 751 z m 467 375 b 629 536 578 375 629 435 l 629 646 b 463 800 629 746 578 800 l 315 800 l 315 183 l 369 183 l 369 375 z "},"™":{"ha":690,"x_min":0,"x_max":0,"o":"m 257 942 l 257 983 l 35 983 l 35 942 l 122 942 l 122 561 l 167 561 l 167 942 z m 360 818 l 351 926 l 363 886 l 454 672 l 468 672 l 558 888 l 569 926 l 561 818 l 561 561 l 604 561 l 604 983 l 561 983 l 461 743 l 360 983 l 317 983 l 317 561 l 360 561 z "},"℠":{"ha":715,"x_min":0,"x_max":0,"o":"m 388 818 l 383 915 l 389 892 l 483 661 l 497 661 l 590 893 l 596 917 l 592 818 l 592 561 l 635 561 l 635 983 l 592 983 l 490 735 l 389 983 l 344 983 l 344 561 l 388 561 z m 157 554 b 272 658 235 554 272 600 l 272 675 b 178 794 272 747 225 772 b 89 878 133 814 89 831 l 89 889 b 154 951 89 928 113 951 b 219 889 200 951 219 932 l 219 853 l 264 853 l 264 892 b 154 989 264 953 228 989 b 44 890 86 989 44 949 l 44 878 b 140 764 44 808 93 785 b 228 674 185 744 228 726 l 228 658 b 157 594 228 621 206 594 b 82 664 104 594 82 621 l 82 707 l 38 707 l 38 663 b 157 554 38 593 75 554 z "},"€":{"ha":724,"x_min":0,"x_max":0,"o":"m 665 278 l 665 304 l 596 304 l 596 281 b 408 50 596 115 535 50 b 201 294 268 50 201 126 l 201 363 l 411 363 l 432 415 l 201 415 l 201 574 l 485 574 l 506 628 l 201 628 l 201 679 b 403 933 201 843 263 933 b 590 724 542 933 590 854 l 590 707 l 658 707 l 658 725 b 404 994 658 888 583 994 b 135 682 225 994 135 885 l 135 628 l 36 628 l 36 574 l 135 574 l 135 415 l 36 415 l 36 363 l 135 363 l 135 292 b 408 -14 135 79 226 -14 b 665 278 582 -14 665 81 z "},"$":{"ha":650,"x_min":0,"x_max":0,"o":"m 360 -171 l 360 -12 b 582 224 507 0 582 100 l 582 271 b 351 531 582 433 464 483 b 147 732 247 574 147 614 l 147 767 b 319 935 147 867 210 935 b 496 768 431 935 496 878 l 496 682 l 563 682 l 563 771 b 363 992 563 899 490 979 l 363 1156 l 300 1156 l 300 994 b 79 768 160 986 79 897 l 79 729 b 304 482 79 576 193 529 b 515 268 410 439 515 396 l 515 222 b 329 49 515 125 454 49 b 131 238 199 49 131 118 l 131 339 l 61 339 l 61 236 b 297 -12 61 85 138 -3 l 297 -171 z "},"¢":{"ha":640,"x_min":0,"x_max":0,"o":"m 571 246 l 571 307 l 501 307 l 501 249 b 322 49 501 111 444 49 b 142 272 197 49 142 125 l 142 510 b 328 743 142 668 206 743 b 501 547 440 743 501 693 l 501 501 l 571 501 l 571 550 b 364 800 571 715 493 789 l 364 983 l 301 983 l 301 800 b 75 514 156 792 75 701 l 75 268 b 300 -14 75 90 151 -4 l 300 -214 l 364 -214 l 364 -12 b 571 246 499 1 571 86 z "},"£":{"ha":739,"x_min":0,"x_max":0,"o":"m 517 -17 b 679 197 632 -17 679 40 l 679 261 l 611 261 l 611 207 b 507 46 611 82 582 46 b 332 121 446 46 389 83 b 346 210 342 147 346 178 b 313 417 346 282 331 350 l 482 417 l 482 472 l 294 472 b 225 789 261 578 225 678 b 367 947 225 889 278 947 b 507 789 463 947 507 893 l 507 749 l 576 749 l 576 790 b 369 1007 576 931 506 1007 b 157 789 238 1007 157 924 b 231 472 157 672 197 571 l 96 472 l 96 417 l 250 417 b 293 207 275 347 293 278 b 288 150 293 186 292 168 b 156 199 244 178 201 199 b 32 90 81 199 32 153 b 163 -17 32 24 72 -17 b 311 72 225 -17 279 18 b 517 -17 371 29 438 -17 z m 164 33 b 89 90 114 33 89 56 b 157 150 89 125 107 150 b 272 101 194 150 232 129 b 164 33 250 57 213 33 z "},"ƒ":{"ha":414,"x_min":0,"x_max":0,"o":"m 232 79 l 233 490 l 382 490 l 382 550 l 233 550 l 233 849 b 353 1008 233 983 256 1008 l 382 1008 l 382 1067 l 346 1067 b 168 853 213 1067 168 1021 l 168 550 l 33 550 l 33 490 l 168 490 l 168 86 b 50 -68 168 -44 146 -68 l 17 -68 l 17 -131 l 56 -131 b 232 79 196 -131 232 -89 z "},"¥":{"ha":606,"x_min":0,"x_max":0,"o":"m 518 161 l 518 215 l 331 215 l 331 338 l 519 338 l 519 393 l 332 393 l 572 983 l 501 983 l 308 486 l 299 442 l 290 486 l 106 983 l 35 983 l 264 393 l 89 393 l 89 338 l 265 338 l 265 215 l 89 215 l 89 161 l 265 161 l 265 0 l 331 0 l 331 161 z "},"₡":{"ha":718,"x_min":0,"x_max":0,"o":"m 147 301 l 147 674 b 346 936 147 838 210 928 l 208 103 b 147 301 167 144 147 210 z m 336 50 b 249 72 303 53 274 60 l 392 935 b 479 911 425 932 454 925 z m 299 -161 l 346 -161 l 371 -15 b 647 289 560 -15 647 88 l 647 376 l 581 376 l 581 290 b 382 49 581 131 518 54 l 519 881 b 579 693 560 839 579 775 l 579 633 l 646 633 l 646 693 b 532 956 646 818 608 907 l 565 1140 l 519 1140 l 490 976 b 401 994 464 986 435 992 l 426 1140 l 381 1140 l 356 996 b 82 676 171 992 82 875 l 82 299 b 194 28 82 165 119 76 l 158 -161 l 206 -161 l 236 6 b 325 -14 263 -4 292 -11 z "},"₢":{"ha":715,"x_min":0,"x_max":0,"o":"m 642 286 l 642 374 l 574 374 l 574 288 b 393 49 574 135 518 58 l 393 299 b 540 485 393 438 419 485 l 576 485 l 576 550 l 547 550 b 389 440 458 550 410 513 l 382 549 l 332 549 l 332 49 b 150 299 206 60 150 140 l 150 676 b 364 935 150 843 217 935 b 571 694 510 935 571 847 l 571 656 l 640 656 l 640 694 b 364 996 640 892 549 996 b 82 679 176 996 82 882 l 82 297 b 363 -15 82 85 171 -15 b 642 286 554 -15 642 89 z "},"₣":{"ha":569,"x_min":0,"x_max":0,"o":"m 478 311 l 478 374 l 172 374 l 172 539 l 478 539 l 478 600 l 172 600 l 172 922 l 524 922 l 524 983 l 106 983 l 106 0 l 172 0 l 172 311 z "},"₤":{"ha":744,"x_min":0,"x_max":0,"o":"m 517 -17 b 679 197 632 -17 679 40 l 679 261 l 611 261 l 611 207 b 507 46 611 82 582 46 b 333 121 446 46 390 83 b 344 203 340 144 344 172 b 326 349 344 253 338 301 l 485 349 l 485 399 l 314 399 b 282 507 304 435 293 471 l 485 507 l 485 557 l 267 557 b 224 789 243 633 224 711 b 367 947 224 889 276 947 b 507 789 463 947 507 893 l 507 749 l 576 749 l 576 790 b 368 1007 576 931 506 1007 b 157 789 235 1007 157 924 b 203 557 157 708 178 632 l 82 557 l 82 507 l 219 507 b 257 399 232 471 246 435 l 82 399 l 82 349 l 272 349 b 294 201 285 300 294 250 b 290 149 294 182 293 164 b 156 199 247 176 203 199 b 32 90 81 199 32 153 b 163 -17 32 24 72 -17 b 314 71 228 -17 282 15 b 517 -17 372 28 439 -17 z m 164 33 b 89 90 114 33 89 56 b 157 150 89 125 107 150 b 275 99 196 150 235 128 b 164 33 254 56 215 33 z "},"₦":{"ha":786,"x_min":0,"x_max":0,"o":"m 188 753 l 181 897 l 204 829 l 307 611 l 188 611 z m 383 450 l 188 450 l 188 561 l 331 561 z m 599 450 l 446 450 l 393 561 l 599 561 z m 596 0 l 661 0 l 661 400 l 772 400 l 772 450 l 661 450 l 661 561 l 772 561 l 772 611 l 661 611 l 661 983 l 599 983 l 599 611 l 369 611 l 193 983 l 125 983 l 125 611 l 14 611 l 14 561 l 125 561 l 125 450 l 14 450 l 14 400 l 125 400 l 125 0 l 188 0 l 188 400 l 407 400 z m 576 176 l 471 400 l 599 400 l 599 246 l 607 90 z "},"₧":{"ha":1533,"x_min":0,"x_max":0,"o":"m 318 924 b 511 732 451 924 511 850 l 511 578 b 322 382 511 458 447 382 l 172 382 l 172 924 z m 324 322 b 578 578 496 321 578 422 l 578 728 l 719 728 l 719 300 b 1032 0 719 82 782 0 l 1204 0 b 1468 218 1397 0 1468 81 l 1468 231 b 1271 435 1468 357 1369 400 b 1074 596 1172 471 1074 499 l 1074 607 b 1228 744 1074 685 1125 744 b 1388 604 1335 744 1388 692 l 1388 546 l 1454 546 l 1454 603 b 1229 801 1454 728 1375 801 b 1008 606 1086 801 1008 721 l 1008 592 b 1206 392 1008 468 1107 426 b 1403 228 1304 357 1403 328 l 1403 219 b 1201 61 1403 118 1356 61 l 1039 61 b 783 306 836 61 783 122 l 783 728 l 949 728 l 949 789 l 783 789 l 783 983 l 735 983 b 726 846 733 954 731 861 b 679 789 722 799 715 792 b 575 785 674 786 603 785 b 318 983 557 911 476 983 l 106 983 l 106 0 l 172 0 l 172 322 z "},"₨":{"ha":1258,"x_min":0,"x_max":0,"o":"m 943 -15 b 1189 208 1110 -15 1189 72 l 1189 221 b 794 596 1189 474 794 401 l 794 607 b 949 744 794 685 846 744 b 1108 604 1056 744 1108 692 l 1108 546 l 1175 546 l 1175 603 b 950 801 1175 728 1096 801 b 729 606 807 801 729 721 l 729 592 b 1124 217 729 343 1124 418 l 1124 207 b 940 46 1124 107 1069 46 l 917 46 b 667 224 794 46 732 92 l 624 307 b 458 463 579 399 532 444 b 596 658 549 488 596 551 l 596 768 b 343 983 596 913 521 983 l 106 983 l 106 0 l 172 0 l 172 432 l 332 432 b 572 272 449 432 515 393 l 614 189 b 914 -15 685 43 756 -15 z m 340 924 b 528 765 475 924 528 872 l 528 661 b 343 490 528 546 464 490 l 172 490 l 172 924 z "},"₩":{"ha":1001,"x_min":0,"x_max":0,"o":"m 486 825 l 496 915 l 506 825 l 553 614 l 436 614 z m 346 453 l 218 453 l 203 564 l 372 564 z m 589 453 l 397 453 l 424 564 l 564 564 z m 772 453 l 639 453 l 614 564 l 792 564 z m 258 185 l 226 404 l 335 404 l 281 179 l 264 68 z m 689 0 l 749 0 l 821 404 l 988 404 l 988 453 l 829 453 l 850 564 l 988 564 l 988 614 l 858 614 l 925 983 l 864 983 l 800 614 l 603 614 l 519 983 l 474 983 l 385 614 l 194 614 l 140 983 l 78 983 l 135 614 l 14 614 l 14 564 l 142 564 l 158 453 l 14 453 l 14 404 l 167 404 l 228 0 l 290 0 l 386 404 l 599 404 z m 700 179 l 650 404 l 764 404 l 725 183 l 715 69 z "},"₪":{"ha":896,"x_min":0,"x_max":0,"o":"m 328 925 b 525 710 474 925 525 849 l 525 211 b 589 290 576 211 589 229 l 589 713 b 329 983 589 892 514 983 l 106 983 l 106 0 l 169 0 l 169 925 z m 550 0 b 797 276 719 0 797 97 l 797 989 l 732 989 l 732 279 b 549 60 732 133 672 60 l 378 60 l 378 696 b 314 776 378 763 368 776 l 314 0 z "},"₮":{"ha":546,"x_min":0,"x_max":0,"o":"m 457 449 l 457 499 l 304 433 l 304 563 l 457 628 l 457 678 l 304 613 l 304 921 l 508 921 l 508 983 l 38 983 l 38 921 l 238 921 l 238 585 l 93 524 l 93 472 l 238 533 l 238 404 l 93 343 l 93 293 l 238 354 l 238 0 l 304 0 l 304 383 z "},"₱":{"ha":699,"x_min":0,"x_max":0,"o":"m 308 924 b 510 753 446 924 503 858 l 200 753 l 200 924 z m 510 571 l 200 571 l 200 704 l 510 704 z m 311 344 l 200 344 l 200 522 l 510 522 b 311 344 503 414 442 344 z m 314 285 b 576 522 489 283 569 378 l 679 522 l 679 571 l 576 571 l 576 704 l 679 704 l 679 753 l 576 753 b 308 983 569 899 490 983 l 135 983 l 135 753 l 25 753 l 25 704 l 135 704 l 135 571 l 25 571 l 25 522 l 135 522 l 135 0 l 200 0 l 200 285 z "},"฿":{"ha":706,"x_min":0,"x_max":0,"o":"m 172 538 l 172 925 l 336 925 l 336 538 z m 560 765 l 560 711 b 392 538 560 597 513 539 l 392 925 b 560 765 517 925 560 868 z m 172 61 l 172 478 l 336 478 l 336 61 z m 571 310 l 571 233 b 396 61 571 119 535 61 l 392 61 l 392 478 b 571 310 519 478 571 421 z m 401 0 b 640 231 586 0 640 83 l 640 313 b 493 510 640 424 596 486 b 628 710 589 535 628 600 l 628 769 b 392 983 628 903 565 981 l 392 1114 l 336 1114 l 336 983 l 106 983 l 106 0 l 336 0 l 336 -140 l 392 -140 l 392 0 z "},"#":{"ha":910,"x_min":0,"x_max":0,"o":"m 539 394 l 332 394 l 365 625 l 575 625 z m 479 0 l 543 0 l 593 335 l 806 335 l 806 394 l 603 394 l 638 625 l 846 625 l 846 685 l 647 685 l 692 983 l 629 983 l 583 685 l 375 685 l 419 983 l 357 983 l 311 685 l 104 685 l 104 625 l 303 625 l 267 394 l 64 394 l 64 335 l 258 335 l 207 0 l 272 0 l 322 335 l 531 335 z "},"⁰":{"ha":385,"x_min":0,"x_max":0,"o":"m 193 496 b 332 650 279 496 332 547 l 332 836 b 193 992 332 938 279 992 b 56 836 106 992 56 936 l 56 650 b 193 496 56 547 103 496 z m 193 546 b 108 651 135 546 108 582 l 108 836 b 194 944 108 906 136 944 b 278 836 250 944 278 906 l 278 651 b 193 546 278 582 246 546 z "},"¹":{"ha":274,"x_min":0,"x_max":0,"o":"m 240 501 l 240 550 l 164 550 l 164 985 l 121 985 b 50 908 114 935 97 910 l 50 864 b 115 890 75 865 101 874 l 115 550 l 36 550 l 36 501 z "},"²":{"ha":360,"x_min":0,"x_max":0,"o":"m 317 501 l 317 551 l 104 551 b 311 853 115 674 311 711 l 311 872 b 183 990 311 943 268 990 b 54 864 101 990 54 943 l 54 799 l 107 799 l 107 863 b 183 944 107 915 131 944 b 258 872 235 944 258 917 l 258 854 b 50 539 258 735 50 699 l 50 501 z "},"³":{"ha":369,"x_min":0,"x_max":0,"o":"m 185 494 b 318 617 276 494 318 542 l 318 649 b 250 751 318 703 299 739 b 311 853 296 767 311 804 l 311 874 b 185 990 311 944 272 990 b 54 871 100 990 54 944 l 54 825 l 108 825 l 108 871 b 185 946 108 918 132 946 b 261 871 239 946 261 918 l 261 853 b 189 772 261 803 247 772 l 144 772 l 144 725 l 190 725 b 265 647 246 725 265 700 l 265 619 b 185 542 265 567 242 542 b 101 615 126 542 101 567 l 101 674 l 49 674 l 49 614 b 185 494 49 533 92 494 z "},"⁴":{"ha":360,"x_min":0,"x_max":0,"o":"m 222 894 l 231 914 l 226 881 l 226 656 l 88 656 z m 332 611 l 332 656 l 272 656 l 272 985 l 225 985 l 33 651 l 33 611 l 226 611 l 226 501 l 272 501 l 272 611 z "},"⁵":{"ha":372,"x_min":0,"x_max":0,"o":"m 189 494 b 322 626 275 494 322 540 l 322 704 b 208 831 322 790 281 831 b 110 775 160 831 129 810 b 128 936 114 814 122 890 l 251 936 b 301 983 290 936 301 949 l 301 985 l 86 985 l 60 731 l 104 718 l 111 732 b 196 786 129 764 150 786 b 272 700 247 786 272 765 l 272 628 b 189 542 272 569 243 542 b 108 618 135 542 108 568 l 108 656 l 54 656 l 54 615 b 189 494 54 540 94 494 z "},"⁶":{"ha":381,"x_min":0,"x_max":0,"o":"m 328 629 l 328 678 b 207 799 328 760 285 799 b 104 735 154 799 121 772 l 104 833 b 190 946 104 910 132 946 b 265 863 246 946 265 915 l 265 842 l 319 842 l 319 864 b 190 990 319 946 274 990 b 54 833 99 990 54 935 l 54 644 b 193 494 54 547 96 494 b 328 629 285 494 328 550 z m 193 542 b 104 643 135 542 104 575 l 104 679 b 193 757 111 722 140 757 b 278 675 251 757 278 731 l 278 631 b 193 542 278 576 251 542 z "},"⁷":{"ha":314,"x_min":0,"x_max":0,"o":"m 138 501 b 282 943 160 657 218 819 l 282 985 l 32 985 l 32 935 l 229 935 b 82 501 171 824 108 660 z "},"⁸":{"ha":374,"x_min":0,"x_max":0,"o":"m 188 494 b 325 615 276 494 325 538 l 325 646 b 253 750 325 704 296 739 b 318 847 292 763 318 793 l 318 872 b 189 990 318 949 274 990 b 60 872 103 990 60 944 l 60 847 b 121 750 60 794 83 763 b 50 646 79 738 50 701 l 50 615 b 188 494 50 535 93 494 z m 196 769 l 179 769 b 111 844 133 769 111 799 l 111 869 b 189 947 111 917 133 947 b 268 871 243 947 268 919 l 268 846 b 196 769 268 797 242 769 z m 188 542 b 101 619 129 542 101 569 l 101 650 b 179 728 101 697 129 728 l 196 728 b 275 650 247 728 275 701 l 275 619 b 188 542 275 569 246 542 z "},"⁹":{"ha":376,"x_min":0,"x_max":0,"o":"m 186 738 b 101 824 128 738 101 768 l 101 854 b 186 944 101 908 128 944 b 274 842 244 944 274 910 l 274 815 b 186 738 267 772 239 738 z m 189 493 b 324 650 282 494 324 550 l 324 839 b 186 990 324 938 281 990 b 51 854 93 990 51 933 l 51 821 b 174 696 51 739 94 696 b 274 760 225 696 257 721 l 274 650 b 189 542 274 575 247 542 b 108 626 133 542 108 564 l 108 649 l 56 649 l 56 624 b 189 493 56 529 103 493 z "},"⁺":{"ha":372,"x_min":0,"x_max":0,"o":"m 308 722 l 308 767 l 206 767 l 206 865 l 161 865 l 161 767 l 60 767 l 60 722 l 161 722 l 161 621 l 206 621 l 206 722 z "},"⁻":{"ha":372,"x_min":0,"x_max":0,"o":"m 307 721 l 307 768 l 61 768 l 61 721 z "},"⁼":{"ha":372,"x_min":0,"x_max":0,"o":"m 303 782 l 303 828 l 65 828 l 65 782 z m 303 649 l 303 694 l 65 694 l 65 649 z "},"⁽":{"ha":260,"x_min":0,"x_max":0,"o":"m 68 617 b 239 386 68 461 129 390 l 239 438 b 118 621 163 443 118 496 l 118 858 b 239 1046 118 983 160 1040 l 239 1096 b 68 860 128 1089 68 1013 z "},"⁾":{"ha":260,"x_min":0,"x_max":0,"o":"m 21 386 b 192 617 131 390 192 461 l 192 860 b 21 1096 192 1013 132 1089 l 21 1046 b 142 858 100 1040 142 985 l 142 621 b 21 438 142 496 97 442 z "},"₀":{"ha":385,"x_min":0,"x_max":0,"o":"m 193 -7 b 332 147 279 -7 332 44 l 332 333 b 193 489 332 435 279 489 b 56 333 106 489 56 433 l 56 147 b 193 -7 56 44 103 -7 z m 193 43 b 108 149 135 43 108 79 l 108 333 b 194 442 108 403 136 442 b 278 333 250 442 278 403 l 278 149 b 193 43 278 79 246 43 z "},"₁":{"ha":274,"x_min":0,"x_max":0,"o":"m 240 0 l 240 49 l 164 49 l 164 483 l 121 483 b 50 407 114 433 97 408 l 50 363 b 115 389 75 364 101 372 l 115 49 l 36 49 l 36 0 z "},"₂":{"ha":360,"x_min":0,"x_max":0,"o":"m 317 0 l 317 50 l 104 50 b 311 351 115 172 311 210 l 311 371 b 183 489 311 442 268 489 b 54 363 101 489 54 442 l 54 297 l 107 297 l 107 361 b 183 443 107 414 131 443 b 258 371 235 443 258 415 l 258 353 b 50 38 258 233 50 197 l 50 0 z "},"₃":{"ha":369,"x_min":0,"x_max":0,"o":"m 185 -7 b 318 115 276 -7 318 40 l 318 147 b 250 250 318 201 299 238 b 311 351 296 265 311 303 l 311 372 b 185 489 311 443 272 489 b 54 369 100 489 54 443 l 54 324 l 108 324 l 108 369 b 185 444 108 417 132 444 b 261 369 239 444 261 417 l 261 351 b 189 271 261 301 247 271 l 144 271 l 144 224 l 190 224 b 265 146 246 224 265 199 l 265 118 b 185 40 265 65 242 40 b 101 114 126 40 101 65 l 101 172 l 49 172 l 49 113 b 185 -7 49 32 92 -7 z "},"₄":{"ha":360,"x_min":0,"x_max":0,"o":"m 222 393 l 231 413 l 226 379 l 226 154 l 88 154 z m 332 110 l 332 154 l 272 154 l 272 483 l 225 483 l 33 150 l 33 110 l 226 110 l 226 0 l 272 0 l 272 110 z "},"₅":{"ha":372,"x_min":0,"x_max":0,"o":"m 189 -7 b 322 125 275 -7 322 39 l 322 203 b 208 329 322 289 281 329 b 110 274 160 329 129 308 b 128 435 114 313 122 389 l 251 435 b 301 482 290 435 301 447 l 301 483 l 86 483 l 60 229 l 104 217 l 111 231 b 196 285 129 263 150 285 b 272 199 247 285 272 264 l 272 126 b 189 40 272 68 243 40 b 108 117 135 40 108 67 l 108 154 l 54 154 l 54 114 b 189 -7 54 39 94 -7 z "},"₆":{"ha":381,"x_min":0,"x_max":0,"o":"m 328 128 l 328 176 b 207 297 328 258 285 297 b 104 233 154 297 121 271 l 104 332 b 190 444 104 408 132 444 b 265 361 246 444 265 414 l 265 340 l 319 340 l 319 363 b 190 489 319 444 274 489 b 54 332 99 489 54 433 l 54 143 b 193 -7 54 46 96 -7 b 328 128 285 -7 328 49 z m 193 40 b 104 142 135 40 104 74 l 104 178 b 193 256 111 221 140 256 b 278 174 251 256 278 229 l 278 129 b 193 40 278 75 251 40 z "},"₇":{"ha":314,"x_min":0,"x_max":0,"o":"m 138 0 b 282 442 160 156 218 318 l 282 483 l 32 483 l 32 433 l 229 433 b 82 0 171 322 108 158 z "},"₈":{"ha":372,"x_min":0,"x_max":0,"o":"m 186 -7 b 324 114 275 -7 324 36 l 324 144 b 251 249 324 203 294 238 b 317 346 290 261 317 292 l 317 371 b 188 489 317 447 272 489 b 58 371 101 489 58 443 l 58 346 b 119 249 58 293 82 261 b 49 144 78 236 49 200 l 49 114 b 186 -7 49 33 92 -7 z m 194 268 l 178 268 b 110 343 132 268 110 297 l 110 368 b 188 446 110 415 132 446 b 267 369 242 446 267 418 l 267 344 b 194 268 267 296 240 268 z m 186 40 b 100 118 128 40 100 68 l 100 149 b 178 226 100 196 128 226 l 194 226 b 274 149 246 226 274 200 l 274 118 b 186 40 274 68 244 40 z "},"₉":{"ha":376,"x_min":0,"x_max":0,"o":"m 186 236 b 101 322 128 236 101 267 l 101 353 b 186 443 101 407 128 443 b 274 340 244 443 274 408 l 274 314 b 186 236 267 271 239 236 z m 189 -8 b 324 149 282 -7 324 49 l 324 338 b 186 489 324 436 281 489 b 51 353 93 489 51 432 l 51 319 b 174 194 51 238 94 194 b 274 258 225 194 257 219 l 274 149 b 189 40 274 74 247 40 b 108 125 133 40 108 63 l 108 147 l 56 147 l 56 122 b 189 -8 56 28 103 -8 z "},"₊":{"ha":372,"x_min":0,"x_max":0,"o":"m 308 219 l 308 264 l 206 264 l 206 363 l 161 363 l 161 264 l 60 264 l 60 219 l 161 219 l 161 118 l 206 118 l 206 219 z "},"₋":{"ha":372,"x_min":0,"x_max":0,"o":"m 307 218 l 307 265 l 61 265 l 61 218 z "},"₌":{"ha":372,"x_min":0,"x_max":0,"o":"m 303 285 l 303 331 l 65 331 l 65 285 z m 303 151 l 303 197 l 65 197 l 65 151 z "},"₍":{"ha":260,"x_min":0,"x_max":0,"o":"m 68 100 b 239 -131 68 -56 129 -126 l 239 -79 b 118 104 163 -74 118 -21 l 118 342 b 239 529 118 467 160 524 l 239 579 b 68 343 128 572 68 496 z "},"₎":{"ha":260,"x_min":0,"x_max":0,"o":"m 21 -131 b 192 100 131 -126 192 -56 l 192 343 b 21 579 192 496 132 572 l 21 529 b 142 342 100 524 142 468 l 142 104 b 21 -79 142 -21 97 -75 z "},"⁄":{"ha":806,"x_min":0,"x_max":0,"o":"m 457 553 l 740 968 l 675 1010 l 432 568 z m 361 457 l 68 25 l 136 -21 l 385 440 z "},"⅟":{"ha":806,"x_min":0,"x_max":0,"o":"m 457 553 l 740 968 l 675 1010 l 432 568 z m 361 457 l 68 25 l 136 -21 l 385 440 z m 290 501 l 290 550 l 214 550 l 214 985 l 171 985 b 100 908 164 935 147 910 l 100 864 b 165 890 125 865 151 874 l 165 550 l 86 550 l 86 501 z "},"½":{"ha":806,"x_min":0,"x_max":0,"o":"m 457 553 l 740 968 l 675 1010 l 432 568 z m 361 457 l 68 25 l 136 -21 l 385 440 z m 290 501 l 290 550 l 214 550 l 214 985 l 171 985 b 100 908 164 935 147 910 l 100 864 b 165 890 125 865 151 874 l 165 550 l 86 550 l 86 501 z m 742 0 l 742 50 l 529 50 b 736 351 540 172 736 210 l 736 371 b 608 489 736 442 693 489 b 479 363 526 489 479 442 l 479 297 l 532 297 l 532 361 b 608 443 532 414 556 443 b 683 371 660 443 683 415 l 683 353 b 475 38 683 233 475 197 l 475 0 z "},"⅓":{"ha":806,"x_min":0,"x_max":0,"o":"m 457 553 l 740 968 l 675 1010 l 432 568 z m 361 457 l 68 25 l 136 -21 l 385 440 z m 290 501 l 290 550 l 214 550 l 214 985 l 171 985 b 100 908 164 935 147 910 l 100 864 b 165 890 125 865 151 874 l 165 550 l 86 550 l 86 501 z m 603 -7 b 736 115 694 -7 736 40 l 736 147 b 668 250 736 201 717 238 b 729 351 714 265 729 303 l 729 372 b 603 489 729 443 690 489 b 472 369 518 489 472 443 l 472 324 l 526 324 l 526 369 b 603 444 526 417 550 444 b 679 369 657 444 679 417 l 679 351 b 607 271 679 301 665 271 l 563 271 l 563 224 l 608 224 b 683 146 664 224 683 199 l 683 118 b 603 40 683 65 660 40 b 519 114 544 40 519 65 l 519 172 l 467 172 l 467 113 b 603 -7 467 32 510 -7 z "},"⅔":{"ha":806,"x_min":0,"x_max":0,"o":"m 457 553 l 740 968 l 675 1010 l 432 568 z m 361 457 l 68 25 l 136 -21 l 385 440 z m 324 501 l 324 551 l 111 551 b 318 853 122 674 318 711 l 318 872 b 190 990 318 943 275 990 b 61 864 108 990 61 943 l 61 799 l 114 799 l 114 863 b 190 944 114 915 138 944 b 265 872 242 944 265 917 l 265 854 b 57 539 265 735 57 699 l 57 501 z m 603 -7 b 736 115 694 -7 736 40 l 736 147 b 668 250 736 201 717 238 b 729 351 714 265 729 303 l 729 372 b 603 489 729 443 690 489 b 472 369 518 489 472 443 l 472 324 l 526 324 l 526 369 b 603 444 526 417 550 444 b 679 369 657 444 679 417 l 679 351 b 607 271 679 301 665 271 l 563 271 l 563 224 l 608 224 b 683 146 664 224 683 199 l 683 118 b 603 40 683 65 660 40 b 519 114 544 40 519 65 l 519 172 l 467 172 l 467 113 b 603 -7 467 32 510 -7 z "},"¼":{"ha":806,"x_min":0,"x_max":0,"o":"m 457 553 l 740 968 l 675 1010 l 432 568 z m 361 457 l 68 25 l 136 -21 l 385 440 z m 604 393 l 613 413 l 608 379 l 608 154 l 469 154 z m 714 110 l 714 154 l 654 154 l 654 483 l 607 483 l 415 150 l 415 110 l 608 110 l 608 0 l 654 0 l 654 110 z m 292 501 l 292 550 l 215 550 l 215 985 l 172 985 b 101 908 165 935 149 910 l 101 864 b 167 890 126 865 153 874 l 167 550 l 88 550 l 88 501 z "},"¾":{"ha":806,"x_min":0,"x_max":0,"o":"m 457 553 l 740 968 l 675 1010 l 432 568 z m 361 457 l 68 25 l 136 -21 l 385 440 z m 604 393 l 613 413 l 608 379 l 608 154 l 469 154 z m 714 110 l 714 154 l 654 154 l 654 483 l 607 483 l 415 150 l 415 110 l 608 110 l 608 0 l 654 0 l 654 110 z m 192 494 b 325 617 283 494 325 542 l 325 649 b 257 751 325 703 306 739 b 318 853 303 767 318 804 l 318 874 b 192 990 318 944 279 990 b 61 871 107 990 61 944 l 61 825 l 115 825 l 115 871 b 192 946 115 918 139 946 b 268 871 246 946 268 918 l 268 853 b 196 772 268 803 254 772 l 151 772 l 151 725 l 197 725 b 272 647 253 725 272 700 l 272 619 b 192 542 272 567 249 542 b 108 615 133 542 108 567 l 108 674 l 56 674 l 56 614 b 192 494 56 533 99 494 z "},"⅕":{"ha":806,"x_min":0,"x_max":0,"o":"m 457 553 l 740 968 l 675 1010 l 432 568 z m 361 457 l 68 25 l 136 -21 l 385 440 z m 607 -7 b 740 125 693 -7 740 39 l 740 203 b 626 329 740 289 699 329 b 528 274 578 329 547 308 b 546 435 532 313 540 389 l 669 435 b 719 482 708 435 719 447 l 719 483 l 504 483 l 478 229 l 522 217 l 529 231 b 614 285 547 263 568 285 b 690 199 665 285 690 264 l 690 126 b 607 40 690 68 661 40 b 526 117 553 40 526 67 l 526 154 l 472 154 l 472 114 b 607 -7 472 39 513 -7 z m 292 501 l 292 550 l 215 550 l 215 985 l 172 985 b 101 908 165 935 149 910 l 101 864 b 167 890 126 865 153 874 l 167 550 l 88 550 l 88 501 z "},"⅖":{"ha":806,"x_min":0,"x_max":0,"o":"m 457 553 l 740 968 l 675 1010 l 432 568 z m 361 457 l 68 25 l 136 -21 l 385 440 z m 607 -7 b 740 125 693 -7 740 39 l 740 203 b 626 329 740 289 699 329 b 528 274 578 329 547 308 b 546 435 532 313 540 389 l 669 435 b 719 482 708 435 719 447 l 719 483 l 504 483 l 478 229 l 522 217 l 529 231 b 614 285 547 263 568 285 b 690 199 665 285 690 264 l 690 126 b 607 40 690 68 661 40 b 526 117 553 40 526 67 l 526 154 l 472 154 l 472 114 b 607 -7 472 39 513 -7 z m 324 501 l 324 551 l 111 551 b 318 853 122 674 318 711 l 318 872 b 190 990 318 943 275 990 b 61 864 108 990 61 943 l 61 799 l 114 799 l 114 863 b 190 944 114 915 138 944 b 265 872 242 944 265 917 l 265 854 b 57 539 265 735 57 699 l 57 501 z "},"⅗":{"ha":806,"x_min":0,"x_max":0,"o":"m 457 553 l 740 968 l 675 1010 l 432 568 z m 361 457 l 68 25 l 136 -21 l 385 440 z m 607 -7 b 740 125 693 -7 740 39 l 740 203 b 626 329 740 289 699 329 b 528 274 578 329 547 308 b 546 435 532 313 540 389 l 669 435 b 719 482 708 435 719 447 l 719 483 l 504 483 l 478 229 l 522 217 l 529 231 b 614 285 547 263 568 285 b 690 199 665 285 690 264 l 690 126 b 607 40 690 68 661 40 b 526 117 553 40 526 67 l 526 154 l 472 154 l 472 114 b 607 -7 472 39 513 -7 z m 193 494 b 326 617 285 494 326 542 l 326 649 b 258 751 326 703 307 739 b 319 853 304 767 319 804 l 319 874 b 193 990 319 944 281 990 b 63 871 108 990 63 944 l 63 825 l 117 825 l 117 871 b 193 946 117 918 140 946 b 269 871 247 946 269 918 l 269 853 b 197 772 269 803 256 772 l 153 772 l 153 725 l 199 725 b 274 647 254 725 274 700 l 274 619 b 193 542 274 567 250 542 b 110 615 135 542 110 567 l 110 674 l 57 674 l 57 614 b 193 494 57 533 100 494 z "},"⅘":{"ha":806,"x_min":0,"x_max":0,"o":"m 457 553 l 740 968 l 675 1010 l 432 568 z m 361 457 l 68 25 l 136 -21 l 385 440 z m 607 -7 b 740 125 693 -7 740 39 l 740 203 b 626 329 740 289 699 329 b 528 274 578 329 547 308 b 546 435 532 313 540 389 l 669 435 b 719 482 708 435 719 447 l 719 483 l 504 483 l 478 229 l 522 217 l 529 231 b 614 285 547 263 568 285 b 690 199 665 285 690 264 l 690 126 b 607 40 690 68 661 40 b 526 117 553 40 526 67 l 526 154 l 472 154 l 472 114 b 607 -7 472 39 513 -7 z m 232 894 l 240 914 l 236 881 l 236 656 l 97 656 z m 342 611 l 342 656 l 282 656 l 282 985 l 235 985 l 43 651 l 43 611 l 236 611 l 236 501 l 282 501 l 282 611 z "},"⅙":{"ha":806,"x_min":0,"x_max":0,"o":"m 457 553 l 740 968 l 675 1010 l 432 568 z m 361 457 l 68 25 l 136 -21 l 385 440 z m 292 501 l 292 550 l 215 550 l 215 985 l 172 985 b 101 908 165 935 149 910 l 101 864 b 167 890 126 865 153 874 l 167 550 l 88 550 l 88 501 z m 739 128 l 739 176 b 618 297 739 258 696 297 b 515 233 565 297 532 271 l 515 332 b 601 444 515 408 543 444 b 676 361 657 444 676 414 l 676 340 l 731 340 l 731 363 b 601 489 731 444 685 489 b 465 332 510 489 465 433 l 465 143 b 604 -7 465 46 507 -7 b 739 128 696 -7 739 49 z m 604 40 b 515 142 546 40 515 74 l 515 178 b 604 256 522 221 551 256 b 689 174 663 256 689 229 l 689 129 b 604 40 689 75 663 40 z "},"⅚":{"ha":806,"x_min":0,"x_max":0,"o":"m 457 553 l 740 968 l 675 1010 l 432 568 z m 361 457 l 68 25 l 136 -21 l 385 440 z m 197 494 b 331 626 283 494 331 540 l 331 704 b 217 831 331 790 289 831 b 118 775 168 831 138 810 b 136 936 122 814 131 890 l 260 936 b 310 983 299 936 310 949 l 310 985 l 94 985 l 68 731 l 113 718 l 119 732 b 204 786 138 764 158 786 b 281 700 256 786 281 765 l 281 628 b 197 542 281 569 251 542 b 117 618 143 542 117 568 l 117 656 l 63 656 l 63 615 b 197 494 63 540 103 494 z m 739 128 l 739 176 b 618 297 739 258 696 297 b 515 233 565 297 532 271 l 515 332 b 601 444 515 408 543 444 b 676 361 657 444 676 414 l 676 340 l 731 340 l 731 363 b 601 489 731 444 685 489 b 465 332 510 489 465 433 l 465 143 b 604 -7 465 46 507 -7 b 739 128 696 -7 739 49 z m 604 40 b 515 142 546 40 515 74 l 515 178 b 604 256 522 221 551 256 b 689 174 663 256 689 229 l 689 129 b 604 40 689 75 663 40 z "},"⅛":{"ha":806,"x_min":0,"x_max":0,"o":"m 457 553 l 740 968 l 675 1010 l 432 568 z m 361 457 l 68 25 l 136 -21 l 385 440 z m 292 501 l 292 550 l 215 550 l 215 985 l 172 985 b 101 908 165 935 149 910 l 101 864 b 167 890 126 865 153 874 l 167 550 l 88 550 l 88 501 z m 606 -7 b 743 114 694 -7 743 36 l 743 144 b 671 249 743 203 714 238 b 736 346 710 261 736 292 l 736 371 b 607 489 736 447 692 489 b 478 371 521 489 478 443 l 478 346 b 539 249 478 293 501 261 b 468 144 497 236 468 200 l 468 114 b 606 -7 468 33 511 -7 z m 614 268 l 597 268 b 529 343 551 268 529 297 l 529 368 b 607 446 529 415 551 446 b 686 369 661 446 686 418 l 686 344 b 614 268 686 296 660 268 z m 606 40 b 519 118 547 40 519 68 l 519 149 b 597 226 519 196 547 226 l 614 226 b 693 149 665 226 693 200 l 693 118 b 606 40 693 68 664 40 z "},"⅜":{"ha":806,"x_min":0,"x_max":0,"o":"m 457 553 l 740 968 l 675 1010 l 432 568 z m 361 457 l 68 25 l 136 -21 l 385 440 z m 606 -7 b 743 114 694 -7 743 36 l 743 144 b 671 249 743 203 714 238 b 736 346 710 261 736 292 l 736 371 b 607 489 736 447 692 489 b 478 371 521 489 478 443 l 478 346 b 539 249 478 293 501 261 b 468 144 497 236 468 200 l 468 114 b 606 -7 468 33 511 -7 z m 614 268 l 597 268 b 529 343 551 268 529 297 l 529 368 b 607 446 529 415 551 446 b 686 369 661 446 686 418 l 686 344 b 614 268 686 296 660 268 z m 606 40 b 519 118 547 40 519 68 l 519 149 b 597 226 519 196 547 226 l 614 226 b 693 149 665 226 693 200 l 693 118 b 606 40 693 68 664 40 z m 193 494 b 326 617 285 494 326 542 l 326 649 b 258 751 326 703 307 739 b 319 853 304 767 319 804 l 319 874 b 193 990 319 944 281 990 b 63 871 108 990 63 944 l 63 825 l 117 825 l 117 871 b 193 946 117 918 140 946 b 269 871 247 946 269 918 l 269 853 b 197 772 269 803 256 772 l 153 772 l 153 725 l 199 725 b 274 647 254 725 274 700 l 274 619 b 193 542 274 567 250 542 b 110 615 135 542 110 567 l 110 674 l 57 674 l 57 614 b 193 494 57 533 100 494 z "},"⅝":{"ha":806,"x_min":0,"x_max":0,"o":"m 457 553 l 740 968 l 675 1010 l 432 568 z m 361 457 l 68 25 l 136 -21 l 385 440 z m 606 -7 b 743 114 694 -7 743 36 l 743 144 b 671 249 743 203 714 238 b 736 346 710 261 736 292 l 736 371 b 607 489 736 447 692 489 b 478 371 521 489 478 443 l 478 346 b 539 249 478 293 501 261 b 468 144 497 236 468 200 l 468 114 b 606 -7 468 33 511 -7 z m 614 268 l 597 268 b 529 343 551 268 529 297 l 529 368 b 607 446 529 415 551 446 b 686 369 661 446 686 418 l 686 344 b 614 268 686 296 660 268 z m 606 40 b 519 118 547 40 519 68 l 519 149 b 597 226 519 196 547 226 l 614 226 b 693 149 665 226 693 200 l 693 118 b 606 40 693 68 664 40 z m 197 494 b 331 626 283 494 331 540 l 331 704 b 217 831 331 790 289 831 b 118 775 168 831 138 810 b 136 936 122 814 131 890 l 260 936 b 310 983 299 936 310 949 l 310 985 l 94 985 l 68 731 l 113 718 l 119 732 b 204 786 138 764 158 786 b 281 700 256 786 281 765 l 281 628 b 197 542 281 569 251 542 b 117 618 143 542 117 568 l 117 656 l 63 656 l 63 615 b 197 494 63 540 103 494 z "},"⅞":{"ha":806,"x_min":0,"x_max":0,"o":"m 457 553 l 740 968 l 675 1010 l 432 568 z m 361 457 l 68 25 l 136 -21 l 385 440 z m 606 -7 b 743 114 694 -7 743 36 l 743 144 b 671 249 743 203 714 238 b 736 346 710 261 736 292 l 736 371 b 607 489 736 447 692 489 b 478 371 521 489 478 443 l 478 346 b 539 249 478 293 501 261 b 468 144 497 236 468 200 l 468 114 b 606 -7 468 33 511 -7 z m 614 268 l 597 268 b 529 343 551 268 529 297 l 529 368 b 607 446 529 415 551 446 b 686 369 661 446 686 418 l 686 344 b 614 268 686 296 660 268 z m 606 40 b 519 118 547 40 519 68 l 519 149 b 597 226 519 196 547 226 l 614 226 b 693 149 665 226 693 200 l 693 118 b 606 40 693 68 664 40 z m 225 501 b 369 943 247 657 306 819 l 369 985 l 119 985 l 119 935 l 317 935 b 169 501 258 824 196 660 z "},"%":{"ha":810,"x_min":0,"x_max":0,"o":"m 213 586 b 360 742 307 586 360 647 l 360 840 b 213 994 360 936 304 994 b 65 840 125 994 65 939 l 65 742 b 213 586 65 642 118 586 z m 85 0 l 157 0 l 724 983 l 654 983 z m 213 638 b 119 744 153 638 119 676 l 119 839 b 213 944 119 907 156 944 b 306 839 269 944 306 906 l 306 744 b 213 638 306 679 274 638 z m 594 -14 b 743 142 689 -14 743 47 l 743 240 b 596 396 743 336 688 396 b 447 240 508 396 447 339 l 447 142 b 594 -14 447 42 501 -14 z m 594 39 b 503 144 536 39 503 76 l 503 239 b 596 346 503 307 539 346 b 689 239 651 346 689 306 l 689 144 b 594 39 689 79 656 39 z "},"‰":{"ha":1203,"x_min":0,"x_max":0,"o":"m 213 586 b 360 742 307 586 360 647 l 360 840 b 213 994 360 936 304 994 b 65 840 125 994 65 939 l 65 742 b 213 586 65 642 118 586 z m 85 0 l 157 0 l 724 983 l 654 983 z m 213 638 b 119 744 153 638 119 676 l 119 839 b 213 944 119 907 156 944 b 306 839 269 944 306 906 l 306 744 b 213 638 306 679 274 638 z m 988 -14 b 1136 142 1082 -14 1136 47 l 1136 240 b 989 396 1136 336 1081 396 b 840 240 901 396 840 339 l 840 142 b 988 -14 840 42 894 -14 z m 594 -14 b 743 142 689 -14 743 47 l 743 240 b 596 396 743 336 688 396 b 447 240 508 396 447 339 l 447 142 b 594 -14 447 42 501 -14 z m 988 39 b 896 144 929 39 896 76 l 896 239 b 989 346 896 307 932 346 b 1082 239 1044 346 1082 306 l 1082 144 b 988 39 1082 79 1049 39 z m 594 39 b 503 144 536 39 503 76 l 503 239 b 596 346 503 307 539 346 b 689 239 651 346 689 306 l 689 144 b 594 39 689 79 656 39 z "},"№":{"ha":1172,"x_min":0,"x_max":0,"o":"m 940 422 b 1121 611 1051 422 1121 493 l 1121 810 b 940 1001 1121 928 1050 1001 b 758 808 833 1001 758 929 l 758 610 b 940 422 758 493 822 422 z m 940 479 b 821 613 861 479 821 531 l 821 808 b 940 946 821 894 867 946 b 1060 808 1015 946 1060 892 l 1060 613 b 940 479 1060 531 1019 479 z m 169 753 l 158 897 l 183 819 l 575 0 l 633 0 l 633 983 l 569 983 l 569 244 l 581 97 l 550 185 l 167 983 l 106 983 l 106 0 l 169 0 z m 1110 306 l 774 306 l 774 246 l 1110 246 z "},"¤":{"ha":690,"x_min":0,"x_max":0,"o":"m 349 311 b 189 476 254 311 189 386 l 189 524 b 349 689 189 617 256 689 b 508 524 443 689 508 615 l 508 478 b 349 311 508 385 442 311 z m 349 256 b 483 297 401 256 447 271 l 581 192 l 622 235 l 526 340 b 568 476 553 376 568 424 l 568 525 b 524 663 568 578 553 625 l 621 772 l 574 813 l 481 706 b 349 746 444 731 400 746 b 214 703 297 746 251 731 l 117 813 l 74 768 l 172 660 b 129 524 144 622 129 576 l 129 475 b 169 342 129 424 143 378 l 67 229 l 114 186 l 214 297 b 349 256 250 271 296 256 z "},"←":{"ha":1054,"x_min":0,"x_max":0,"o":"m 957 465 l 957 529 l 178 529 b 374 772 246 576 335 669 l 301 772 b 71 513 265 672 156 560 l 71 481 b 304 224 154 436 265 322 l 378 224 b 179 465 336 324 247 417 z "},"→":{"ha":1054,"x_min":0,"x_max":0,"o":"m 744 224 b 976 481 782 322 893 436 l 976 513 b 747 772 893 560 785 674 l 675 772 b 871 529 715 671 803 576 l 92 529 l 92 467 l 871 467 b 671 224 803 419 713 325 z "},"↑":{"ha":1054,"x_min":0,"x_max":0,"o":"m 792 617 l 792 689 b 535 919 693 726 579 836 l 503 919 b 244 689 457 836 342 728 l 244 617 b 486 813 343 657 438 744 l 486 67 l 550 67 l 550 813 b 792 617 597 744 690 656 z "},"↓":{"ha":1054,"x_min":0,"x_max":0,"o":"m 533 64 b 792 294 579 147 693 256 l 792 368 b 549 169 692 326 596 239 l 549 917 l 486 917 l 486 169 b 243 367 440 238 347 326 l 243 294 b 501 64 343 257 456 149 z "},"↖":{"ha":1054,"x_min":0,"x_max":0,"o":"m 850 208 l 300 760 b 610 792 382 744 510 747 l 558 843 b 214 824 463 800 306 797 l 192 801 b 171 456 218 710 214 553 l 222 404 b 256 715 264 504 269 633 l 807 164 z "},"↗":{"ha":1054,"x_min":0,"x_max":0,"o":"m 804 404 l 856 456 b 836 801 813 551 808 708 l 814 824 b 468 843 722 796 565 801 l 417 792 b 725 758 515 751 643 744 l 176 208 l 221 164 l 772 717 b 804 404 757 636 760 504 z "},"↘":{"ha":1054,"x_min":0,"x_max":0,"o":"m 814 178 l 836 200 b 856 546 810 292 814 449 l 804 597 b 771 289 764 499 757 371 l 221 838 l 176 793 l 729 242 b 417 210 649 257 518 254 l 468 158 b 814 178 565 201 721 206 z "},"↙":{"ha":1054,"x_min":0,"x_max":0,"o":"m 560 158 l 611 210 b 300 242 511 251 382 256 l 851 793 l 807 838 l 256 286 b 224 596 271 368 268 496 l 172 546 b 190 200 215 449 218 292 l 214 178 b 560 158 304 204 463 200 z "},"○":{"ha":1256,"x_min":0,"x_max":0,"o":"m 626 -14 b 1131 489 918 -14 1131 197 b 626 993 1131 781 919 993 b 125 489 336 993 125 782 b 626 -14 125 196 333 -14 z m 626 71 b 214 489 388 71 214 251 b 626 908 214 729 393 908 b 1042 489 865 908 1042 725 b 626 71 1042 251 863 71 z "},"●":{"ha":1256,"x_min":0,"x_max":0,"o":"m 626 -14 b 1131 489 918 -14 1131 197 b 626 993 1131 781 919 993 b 125 489 336 993 125 782 b 626 -14 125 196 333 -14 z "},"■":{"ha":1250,"x_min":0,"x_max":0,"o":"m 138 0 l 1114 0 l 1114 983 l 138 983 z "},"□":{"ha":1250,"x_min":0,"x_max":0,"o":"m 138 0 l 1114 0 l 1114 983 l 138 983 z m 225 901 l 1026 901 l 1026 83 l 225 83 z "},"⊠":{"ha":1250,"x_min":0,"x_max":0,"o":"m 138 0 l 1114 0 l 1114 983 l 138 983 z m 225 901 l 1026 901 l 1026 83 l 225 83 z m 853 210 l 908 263 l 681 497 l 903 726 l 850 779 l 628 550 l 404 781 l 349 728 l 575 496 l 344 258 l 397 204 l 628 442 z "},"▪":{"ha":1061,"x_min":0,"x_max":0,"o":"m 140 0 l 921 0 l 921 782 l 140 782 z "},"▫":{"ha":1061,"x_min":0,"x_max":0,"o":"m 140 0 l 921 0 l 921 782 l 140 782 z m 228 699 l 835 699 l 835 83 l 228 83 z "},"▲":{"ha":1214,"x_min":0,"x_max":0,"o":"m 1185 0 l 608 1001 l 29 0 z "},"▼":{"ha":1214,"x_min":0,"x_max":0,"o":"m 29 985 l 608 -17 l 1185 985 z "},"◄":{"ha":1214,"x_min":0,"x_max":0,"o":"m 1078 1079 l 75 501 l 1078 -76 z "},"►":{"ha":1214,"x_min":0,"x_max":0,"o":"m 138 -76 l 1138 501 l 138 1079 z "},"◤":{"ha":1214,"x_min":0,"x_max":0,"o":"m 1158 -72 l 858 1043 l 42 226 z "},"◥":{"ha":1214,"x_min":0,"x_max":0,"o":"m 1178 219 l 361 1039 l 63 -78 z "},"◢":{"ha":1214,"x_min":0,"x_max":0,"o":"m 1179 719 l 64 1018 l 361 -99 z "},"◣":{"ha":1214,"x_min":0,"x_max":0,"o":"m 854 -99 l 1154 1018 l 38 719 z "},"◎":{"ha":1231,"x_min":0,"x_max":0,"o":"m 613 -14 b 1108 479 903 -14 1108 197 b 613 976 1108 768 899 976 b 122 479 328 976 122 764 b 613 -14 122 193 328 -14 z m 613 163 b 300 479 436 163 300 299 b 613 803 300 663 436 803 b 931 479 796 803 931 658 b 613 163 931 299 796 163 z m 614 250 b 846 478 747 250 846 349 b 614 708 846 608 746 708 b 385 478 485 708 385 608 b 614 250 385 346 481 250 z m 614 401 b 543 478 574 401 543 436 b 614 558 543 525 574 558 b 689 478 658 558 689 525 b 614 401 689 436 658 401 z "},"★":{"ha":1246,"x_min":0,"x_max":0,"o":"m 776 418 l 1036 603 l 718 604 l 621 906 l 521 604 l 206 606 l 461 419 l 361 117 l 619 304 l 876 117 z "},"☼":{"ha":1285,"x_min":0,"x_max":0,"o":"m 624 783 l 651 783 l 675 979 l 601 979 z m 772 753 l 793 739 l 914 897 l 849 935 z m 482 739 l 503 753 l 426 935 l 361 897 z m 883 650 l 897 628 l 1081 706 l 1039 768 z m 378 628 l 392 649 l 233 768 l 196 704 z m 397 490 b 638 251 397 360 507 251 b 878 490 768 251 878 360 b 638 732 878 622 768 732 b 397 490 507 732 397 622 z m 929 506 l 929 479 l 1125 456 l 1125 529 z m 347 479 l 347 506 l 151 529 l 151 456 z m 392 336 l 378 357 l 196 281 l 236 217 z m 897 357 l 883 338 l 1042 217 l 1081 282 z m 503 233 l 482 247 l 361 88 l 426 50 z m 793 247 l 772 233 l 849 50 l 914 88 z m 651 201 l 624 201 l 601 6 l 675 6 z "},"☾":{"ha":1089,"x_min":0,"x_max":0,"o":"m 739 835 b 836 818 771 835 804 826 b 592 897 767 868 681 897 b 183 488 365 897 183 714 b 592 79 183 264 365 79 b 836 158 681 79 767 108 b 739 142 804 149 771 142 b 408 488 557 142 408 299 b 739 835 408 679 557 835 z "},"♻":{"ha":1147,"x_min":0,"x_max":0,"o":"m 485 938 b 592 872 485 938 556 933 l 675 726 l 628 699 l 828 661 l 901 857 l 850 828 l 817 885 b 711 939 788 936 754 938 l 485 939 z m 246 728 l 421 626 l 557 861 b 364 903 533 906 433 943 b 325 867 346 893 331 876 z m 954 644 l 779 544 l 915 311 b 1046 457 964 311 1047 375 b 1036 507 1046 478 1040 497 z m 231 172 b 235 299 231 172 201 239 b 319 444 238 304 319 444 l 367 415 l 299 610 l 94 574 l 144 544 l 111 488 b 117 368 81 436 96 406 l 228 172 z m 1022 340 b 910 279 1022 340 979 279 l 740 279 l 740 338 l 610 178 l 740 19 l 740 76 l 807 76 b 910 142 868 76 886 106 l 1024 339 z m 535 76 l 535 279 l 264 279 b 325 92 238 236 254 133 b 376 76 343 81 363 76 z "},"♼":{"ha":1147,"x_min":0,"x_max":0,"o":"m 1040 488 b 576 957 1040 749 832 957 b 107 488 317 957 107 749 b 576 24 107 231 317 24 b 1040 488 832 24 1040 231 z m 497 844 l 672 844 b 756 801 707 844 732 842 l 781 758 l 819 779 l 765 628 l 610 657 l 646 679 l 581 792 b 497 843 554 838 497 843 z m 379 786 b 408 815 382 796 394 807 b 558 783 463 847 540 818 l 454 601 l 318 681 z m 928 510 b 939 471 933 500 939 488 b 836 354 939 407 875 354 l 731 536 l 867 615 z m 304 250 l 217 400 b 213 493 203 431 189 453 l 239 538 l 201 561 l 357 588 l 411 438 l 374 461 l 308 347 b 306 250 282 301 306 250 z m 919 376 l 831 226 b 753 176 814 199 800 176 l 701 176 l 701 131 l 599 254 l 701 375 l 701 333 l 831 333 b 918 378 886 333 918 378 z m 414 176 b 374 188 404 176 388 179 b 326 333 319 219 306 299 l 538 333 l 538 176 z "},"♽":{"ha":1147,"x_min":0,"x_max":0,"o":"m 1040 488 b 576 957 1040 749 832 957 b 107 488 317 957 107 749 b 576 24 107 231 317 24 b 1040 488 832 24 1040 231 z m 1018 488 b 576 46 1018 243 819 46 b 131 488 329 46 131 243 b 576 933 131 736 329 933 b 1018 488 819 933 1018 736 z m 497 843 b 581 792 497 843 554 838 l 646 679 l 610 657 l 765 628 l 819 779 l 781 758 l 756 801 b 672 844 732 842 707 844 l 497 844 z m 318 681 l 454 601 l 558 783 b 408 815 540 818 463 847 b 379 786 394 807 382 796 z m 867 615 l 731 536 l 836 354 b 939 471 875 354 939 407 b 928 510 939 488 933 500 z m 306 250 b 308 347 306 250 282 301 l 374 461 l 411 438 l 357 588 l 201 561 l 239 538 l 213 493 b 217 400 189 453 203 431 l 304 250 z m 918 378 b 831 333 918 378 886 333 l 701 333 l 701 375 l 599 254 l 701 131 l 701 176 l 753 176 b 831 226 800 176 814 199 l 919 376 z m 538 176 l 538 333 l 326 333 b 374 188 306 299 319 219 b 414 176 388 179 404 176 z "},"⌂":{"ha":1179,"x_min":0,"x_max":0,"o":"m 1039 0 l 1039 560 l 590 992 l 140 560 l 140 0 z "},"♠":{"ha":1249,"x_min":0,"x_max":0,"o":"m 668 392 b 914 210 704 299 781 210 b 1126 422 1032 210 1126 306 b 818 858 1126 576 1042 681 l 629 1008 l 628 1008 l 439 858 b 121 422 215 681 121 576 b 351 208 121 306 226 208 b 582 392 475 208 549 299 b 453 0 582 229 492 69 l 803 0 b 668 392 768 69 668 229 z "},"♣":{"ha":1249,"x_min":0,"x_max":0,"o":"m 894 176 b 1133 418 1028 176 1133 286 b 896 657 1133 550 1029 657 b 833 646 874 657 851 653 b 858 765 849 683 858 725 b 622 1001 858 897 753 1001 b 382 765 490 1001 382 897 b 410 649 382 725 393 685 b 353 657 392 653 374 657 b 114 418 221 657 114 550 b 353 176 114 286 221 176 b 581 340 458 176 543 246 b 454 0 564 197 489 61 l 804 0 b 674 339 774 61 692 196 b 894 176 710 244 790 176 z "},"♥":{"ha":1249,"x_min":0,"x_max":0,"o":"m 621 -24 l 810 189 b 1125 747 1036 439 1125 589 b 868 1001 1125 886 1008 1001 b 621 779 728 1001 633 906 b 369 1001 608 906 510 1001 b 122 747 231 1001 122 886 b 429 189 122 589 206 439 z "},"♦":{"ha":1249,"x_min":0,"x_max":0,"o":"m 182 501 l 624 -14 l 1065 501 l 624 1013 z "},"+":{"ha":633,"x_min":0,"x_max":0,"o":"m 526 457 l 526 517 l 346 517 l 346 692 l 286 692 l 286 517 l 110 517 l 110 457 l 286 457 l 286 282 l 346 282 l 346 457 z "},"−":{"ha":633,"x_min":0,"x_max":0,"o":"m 539 456 l 539 518 l 92 518 l 92 456 z "},"±":{"ha":633,"x_min":0,"x_max":0,"o":"m 517 578 l 517 639 l 346 639 l 346 801 l 285 801 l 285 639 l 118 639 l 118 578 l 285 578 l 285 414 l 346 414 l 346 578 z m 517 267 l 517 328 l 119 328 l 119 267 z "},"×":{"ha":631,"x_min":0,"x_max":0,"o":"m 474 293 l 515 335 l 351 503 l 508 663 l 468 704 l 311 544 l 163 699 l 122 657 l 271 504 l 104 335 l 144 293 l 311 463 z "},"÷":{"ha":633,"x_min":0,"x_max":0,"o":"m 313 619 b 360 668 343 619 360 633 b 314 719 360 704 344 719 b 268 669 282 719 268 704 b 313 619 268 632 282 619 z m 536 456 l 536 517 l 96 517 l 96 456 z m 313 251 b 358 300 343 251 358 264 b 313 351 358 336 344 351 b 265 301 282 351 265 336 b 313 251 265 264 282 251 z "},"=":{"ha":639,"x_min":0,"x_max":0,"o":"m 531 594 l 531 656 l 106 656 l 106 594 z m 531 336 l 531 396 l 106 396 l 106 336 z "},"≠":{"ha":639,"x_min":0,"x_max":0,"o":"m 531 336 l 531 396 l 310 396 l 365 596 l 531 596 l 531 656 l 382 656 l 415 775 l 371 775 l 338 656 l 106 656 l 106 596 l 321 596 l 265 396 l 106 396 l 106 336 l 249 336 l 213 204 l 257 204 l 293 336 z "},"≈":{"ha":639,"x_min":0,"x_max":0,"o":"m 207 663 b 114 617 164 663 128 639 l 114 547 b 206 601 131 581 171 601 b 433 549 269 601 349 549 b 522 593 472 549 510 572 l 522 665 b 433 611 506 631 474 611 b 207 663 367 611 285 663 z m 114 389 l 114 318 b 206 372 131 347 167 372 b 433 321 269 372 350 321 b 522 365 479 321 510 343 l 522 433 b 433 382 501 400 474 382 b 206 433 369 382 285 433 b 114 389 164 433 128 411 z "},"<":{"ha":639,"x_min":0,"x_max":0,"o":"m 513 296 l 513 367 l 185 507 l 513 643 l 513 710 l 110 533 l 110 476 z "},">":{"ha":639,"x_min":0,"x_max":0,"o":"m 129 296 l 531 476 l 531 533 l 129 710 l 129 643 l 457 507 l 129 367 z "},"≤":{"ha":639,"x_min":0,"x_max":0,"o":"m 515 388 l 515 457 l 192 582 l 515 706 l 515 772 l 113 610 l 113 554 z m 515 235 l 515 296 l 113 296 l 113 235 z "},"≥":{"ha":639,"x_min":0,"x_max":0,"o":"m 124 388 l 526 554 l 526 610 l 124 772 l 124 706 l 447 582 l 124 457 z m 525 235 l 525 296 l 122 296 l 122 235 z "},"¬":{"ha":700,"x_min":0,"x_max":0,"o":"m 608 296 l 608 621 l 64 621 l 64 558 l 543 558 l 543 296 z "},"≡":{"ha":639,"x_min":0,"x_max":0,"o":"m 531 658 l 531 718 l 106 718 l 106 658 z m 531 467 l 531 526 l 106 526 l 106 467 z m 531 275 l 531 335 l 106 335 l 106 275 z "},"′":{"ha":224,"x_min":0,"x_max":0,"o":"m 96 708 l 176 983 l 108 983 l 49 708 z "},"″":{"ha":357,"x_min":0,"x_max":0,"o":"m 226 708 l 314 983 l 246 983 l 179 708 z m 94 708 l 174 983 l 107 983 l 47 708 z "},"℅":{"ha":810,"x_min":0,"x_max":0,"o":"m 85 0 l 157 0 l 724 983 l 654 983 z m 213 586 b 358 735 308 586 358 647 l 358 744 l 301 744 l 301 738 b 213 638 301 678 275 638 b 119 744 153 638 119 676 l 119 839 b 214 944 119 907 157 944 b 301 850 271 944 301 911 l 301 843 l 357 843 l 357 850 b 214 994 357 940 307 994 b 65 840 126 994 65 939 l 65 742 b 213 586 65 642 119 586 z m 594 -14 b 743 142 689 -14 743 47 l 743 240 b 596 396 743 336 688 396 b 447 240 508 396 447 339 l 447 142 b 594 -14 447 42 501 -14 z m 594 39 b 503 144 536 39 503 76 l 503 239 b 596 346 503 307 539 346 b 689 239 651 346 689 306 l 689 144 b 594 39 689 79 656 39 z "},"‗":{"ha":585,"x_min":0,"x_max":0,"o":"m 535 56 l 50 56 l 50 0 l 535 0 z m 535 -94 l 50 -94 l 50 -150 l 535 -150 z "},"‼":{"ha":592,"x_min":0,"x_max":0,"o":"m 382 989 l 382 804 b 393 206 382 583 390 236 b 418 208 397 207 408 208 b 440 206 426 208 436 207 b 453 806 443 236 453 583 l 453 989 z m 140 989 l 140 804 b 153 206 140 583 150 236 b 176 208 157 207 167 208 b 200 206 185 208 194 207 b 211 806 203 236 211 583 l 211 989 z m 417 -11 b 474 56 454 -11 474 10 b 417 121 474 103 456 121 b 361 56 379 121 361 103 b 417 -11 361 7 378 -11 z m 176 -11 b 232 56 213 -11 232 10 b 176 121 232 103 214 121 b 121 56 138 121 121 103 b 176 -11 121 7 138 -11 z "},"∞":{"ha":968,"x_min":0,"x_max":0,"o":"m 249 328 b 485 456 346 328 424 401 b 721 328 546 401 622 328 b 890 497 821 328 890 397 b 721 667 890 596 824 667 b 483 535 624 667 546 589 b 250 667 422 589 346 667 b 78 497 150 667 78 594 b 249 328 78 393 149 328 z m 719 388 b 525 494 643 388 576 447 b 719 607 579 543 644 607 b 829 496 785 607 829 558 b 719 388 829 436 785 388 z m 250 388 b 140 496 186 388 140 436 b 250 607 140 558 188 607 b 444 496 324 607 390 544 b 250 388 393 449 325 388 z "},"∂":{"ha":660,"x_min":0,"x_max":0,"o":"m 328 -14 b 581 261 492 -14 581 82 l 581 535 b 283 1068 581 760 483 931 l 183 1068 b 508 669 376 943 476 822 b 314 794 476 749 411 794 b 75 531 169 794 75 704 l 75 250 b 328 -14 75 82 165 -14 z m 328 49 b 143 253 204 49 143 128 l 143 531 b 329 735 143 663 213 735 b 514 531 453 735 514 649 l 514 261 b 328 49 514 125 454 49 z "},"π":{"ha":768,"x_min":0,"x_max":0,"o":"m 504 190 b 679 0 504 40 540 0 l 717 0 l 717 61 l 685 61 b 572 194 592 61 572 86 l 572 922 l 725 922 l 725 983 l 42 983 l 42 922 l 188 922 l 188 0 l 254 0 l 254 922 l 504 922 z "},"μ":{"ha":654,"x_min":0,"x_max":0,"o":"m 317 -12 b 494 143 413 -12 471 46 l 503 0 l 556 0 l 556 789 l 489 789 l 489 283 b 318 49 489 138 425 49 b 165 246 210 49 165 121 l 165 789 l 99 789 l 99 -274 l 161 -274 l 161 111 b 317 -12 179 31 225 -12 z "},"∫":{"ha":372,"x_min":0,"x_max":0,"o":"m -14 -214 l 31 -214 b 208 -4 171 -214 210 -172 l 210 849 b 329 1008 210 983 232 1008 l 364 1008 l 364 1067 l 324 1067 b 144 853 189 1067 144 1021 l 144 3 b 25 -153 144 -128 121 -153 l -14 -153 z "},"√":{"ha":804,"x_min":0,"x_max":0,"o":"m 386 0 l 763 985 l 693 985 l 358 101 l 196 642 l 47 642 l 47 579 l 147 579 l 324 0 z "},"∆":{"ha":803,"x_min":0,"x_max":0,"o":"m 786 0 l 401 1001 l 18 0 z m 692 61 l 113 61 l 403 832 z "},"Ω":{"ha":854,"x_min":0,"x_max":0,"o":"m 356 54 b 161 563 265 189 161 343 b 424 933 161 828 274 933 b 688 563 569 933 688 836 b 499 54 688 342 589 193 l 531 0 l 819 0 l 819 63 l 579 63 b 757 561 664 183 757 343 b 424 996 757 868 618 996 b 93 561 225 996 93 858 b 272 63 93 342 186 181 l 35 63 l 35 0 l 325 0 z "},"∏":{"ha":768,"x_min":0,"x_max":0,"o":"m 508 0 l 575 0 l 575 922 l 726 922 l 726 983 l 42 983 l 42 922 l 189 922 l 189 0 l 256 0 l 256 922 l 508 922 z "},"∑":{"ha":538,"x_min":0,"x_max":0,"o":"m 488 63 l 115 63 l 361 508 l 126 922 l 476 922 l 476 983 l 56 983 l 56 918 l 288 510 l 44 68 l 44 0 l 488 0 z "},"◊":{"ha":821,"x_min":0,"x_max":0,"o":"m 408 122 l 775 488 l 406 856 l 40 490 z m 131 490 l 406 768 l 686 488 l 408 211 z "},"°":{"ha":442,"x_min":0,"x_max":0,"o":"m 219 683 b 379 835 318 683 379 744 l 379 842 b 221 996 379 938 315 996 b 63 842 135 996 63 940 l 63 835 b 219 683 63 742 124 683 z m 219 735 b 118 836 157 735 118 774 l 118 842 b 221 946 118 908 164 946 b 324 842 279 946 324 906 l 324 836 b 219 735 324 778 285 735 z "}}}
